<svg width="80%" height="80%" viewBox="0 0 973 730" fill="none" xmlns="http://www.w3.org/2000/svg">
<path d="M188.671 620.755L137.436 355.467C136.815 351.798 136.954 348.041 137.843 344.428C138.732 340.815 140.353 337.423 142.605 334.462L306.319 119.026C308.856 115.687 312.131 112.98 315.887 111.116C319.644 109.252 323.781 108.283 327.974 108.283H642.107C645.896 108.28 649.648 109.068 653.114 110.599C656.586 112.129 659.694 114.368 662.248 117.171L851.983 325.556C854.476 328.291 856.38 331.506 857.59 335.004C858.794 338.501 859.275 342.208 859.001 345.898L819.339 620.646L188.671 620.755Z" fill="#4DD188"/>
<path opacity="0.9" d="M188.671 620.755L137.436 355.467C136.815 351.798 136.954 348.041 137.843 344.428C138.732 340.815 140.353 337.423 142.605 334.462L306.319 119.026C308.856 115.687 312.131 112.98 315.887 111.116C319.644 109.252 323.781 108.283 327.974 108.283H642.107C645.896 108.28 649.648 109.068 653.114 110.599C656.586 112.129 659.694 114.368 662.248 117.171L851.983 325.556C854.476 328.291 856.38 331.506 857.59 335.004C858.794 338.501 859.275 342.208 859.001 345.898L819.339 620.646L188.671 620.755Z" fill="white"/>
<path d="M851.722 621.717H159.749C159.506 621.698 159.28 621.589 159.115 621.406C158.949 621.23 158.858 620.993 158.858 620.756C158.858 620.512 158.949 620.275 159.115 620.099C159.28 619.916 159.506 619.807 159.749 619.788H851.722C851.965 619.807 852.19 619.916 852.354 620.099C852.518 620.275 852.61 620.512 852.61 620.756C852.61 620.993 852.518 621.23 852.354 621.406C852.19 621.589 851.965 621.698 851.722 621.717Z" fill="#4DD188"/>
<g opacity="0.6">
<path opacity="0.6" d="M851.722 621.717H159.749C159.506 621.698 159.28 621.589 159.115 621.406C158.949 621.23 158.858 620.993 158.858 620.756C158.858 620.512 158.949 620.275 159.115 620.099C159.28 619.916 159.506 619.807 159.749 619.788H851.722C851.965 619.807 852.19 619.916 852.354 620.099C852.518 620.275 852.61 620.512 852.61 620.756C852.61 620.993 852.518 621.23 852.354 621.406C852.19 621.589 851.965 621.698 851.722 621.717Z" fill="white"/>
</g>
<path d="M687.698 388.19L689.675 322.155L690.41 324.82L714.34 319.205L707.858 289.031C707.189 286.016 705.82 283.201 703.862 280.815C701.898 278.429 699.405 276.54 696.577 275.301L667.034 262.484H666.973L665.21 261.717L662.887 262.228L647.124 265.744L641.742 258.73L639.918 258.122V258.171L620.488 255.969C613.404 255.162 606.239 256.486 599.909 259.771L573.541 273.324L590.945 291.818L607 288.35L607.906 295.382C611.652 323.633 612.662 359.659 611.36 388.19H687.698ZM667.022 262.539C667.022 262.569 667.022 262.618 667.022 262.678V262.539Z" fill="#4DD188"/>
<path d="M611.421 383.652L616.189 590.345H635.181L645.786 416.441C645.847 415.455 646.285 414.531 647.009 413.858C647.732 413.186 648.681 412.815 649.672 412.823C650.657 412.831 651.606 413.216 652.318 413.9C653.029 414.585 653.449 415.515 653.497 416.502L663.136 590.345H682.134L687.972 383.652H611.421Z" fill="#15247C"/>
<g opacity="0.5">
<path opacity="0.5" d="M611.421 383.652L610.813 389.662H687.759L687.984 383.652H611.421Z" fill="black"/>
</g>
<path d="M618.171 602.25L617.661 585.685H633.764L633.058 602.767L618.171 602.25Z" fill="#FC9D9D"/>
<path opacity="0.15" d="M633.593 590.345L633.082 602.767L629.227 602.652L629.342 595.352C629.342 594.78 629.16 594.224 628.807 593.772C628.461 593.32 627.968 592.999 627.415 592.857L617.776 590.363L633.593 590.345Z" fill="black"/>
<path d="M679.981 602.25L680.492 585.685H664.328L665.064 602.761L679.981 602.25Z" fill="#FC9D9D"/>
<path d="M639.948 236.331L640.118 259.704C640.112 260.273 640.289 260.829 640.623 261.291L640.854 261.687C642.192 263.679 643.925 265.369 645.956 266.648C647.988 267.926 650.256 268.764 652.634 269.108C655.005 269.452 657.426 269.294 659.73 268.644C662.041 267.995 664.188 266.868 666.031 265.337C666.42 265.009 666.718 264.586 666.9 264.109C667.077 263.631 667.131 263.115 667.052 262.612L662.795 234.482L639.948 236.331Z" fill="#FC9D9D"/>
<path d="M665.289 224.761C665.289 224.761 669.935 255.506 652.98 256.753C636.421 258 635.916 226.914 635.916 226.914L635.46 218.008L656.781 214.267L662.169 217.047L665.289 224.761Z" fill="#FC9D9D"/>
<path opacity="0.15" d="M665.69 254.198L664.443 245.767C662.911 251.211 659.737 255.749 654.178 256.656H654.233L653.017 256.826C648.59 257.167 644.904 255.129 642.125 250.743C642.101 250.697 642.071 250.656 642.028 250.624C641.991 250.591 641.943 250.568 641.894 250.554C641.846 250.541 641.791 250.538 641.742 250.546C641.693 250.554 641.645 250.572 641.602 250.6C641.56 250.628 641.523 250.666 641.493 250.709C641.462 250.752 641.444 250.8 641.438 250.851C641.432 250.902 641.432 250.953 641.444 251.003C641.462 251.052 641.487 251.099 641.517 251.138C644.467 255.792 648.377 257.945 653.072 257.605C654.057 257.536 655.024 257.346 655.96 257.039C659.451 257.392 662.941 256.373 665.69 254.198Z" fill="black"/>
<path d="M648.869 246.716L656.076 246.205C656.118 246.203 656.161 246.213 656.197 246.23C656.24 246.248 656.27 246.274 656.301 246.307C656.325 246.34 656.343 246.378 656.355 246.419C656.361 246.461 656.368 246.504 656.355 246.545C656.136 247.354 655.668 248.075 655.024 248.611C654.373 249.145 653.582 249.468 652.743 249.535C651.91 249.601 651.071 249.408 650.347 248.982C649.623 248.556 649.052 247.918 648.705 247.154V247.099C648.681 247.064 648.669 247.025 648.663 246.983C648.663 246.943 648.669 246.901 648.687 246.863C648.699 246.825 648.723 246.792 648.76 246.766C648.79 246.74 648.827 246.723 648.869 246.716Z" fill="white"/>
<path d="M661.269 217.899C661.269 217.899 666.651 214.322 669.175 220.448C671.328 225.613 667.703 231.228 667.703 231.228L664.583 230.887C663.276 230.832 662.37 230.206 662.254 228.958L661.269 217.899Z" fill="#15247C"/>
<path d="M665.125 214.133C665.575 219.979 660.588 221.512 658.545 221.683L641.815 223.1C641.159 223.159 640.55 223.469 640.119 223.966C639.687 224.462 639.462 225.107 639.492 225.765L639.778 231.094C639.802 231.45 639.693 231.802 639.468 232.078C639.243 232.354 638.915 232.531 638.562 232.572L637.54 232.688L636.403 234.105C629.829 232.517 627.105 213.854 639.182 210.106C639.833 209.903 640.435 209.573 640.958 209.135C641.481 208.698 641.907 208.162 642.223 207.557C643.98 203.907 651.18 202.964 654.811 207.046C655.164 207.464 655.608 207.795 656.106 208.011C656.611 208.228 657.152 208.324 657.7 208.293C662.06 208.196 664.894 210.921 665.125 214.133Z" fill="#15247C"/>
<path d="M658.66 222.437C658.374 222.47 658.089 222.47 657.809 222.437C657.718 222.421 657.639 222.371 657.584 222.299C657.523 222.227 657.499 222.136 657.505 222.044C657.511 221.953 657.554 221.867 657.62 221.804C657.687 221.74 657.772 221.704 657.864 221.701C657.918 221.701 661.269 221.871 662.686 219.657C662.741 219.574 662.82 219.515 662.917 219.493C663.014 219.472 663.112 219.489 663.197 219.541C663.24 219.568 663.276 219.601 663.3 219.641C663.331 219.681 663.349 219.726 663.361 219.774C663.367 219.821 663.367 219.87 663.361 219.919C663.349 219.966 663.331 220.012 663.306 220.052C662.06 221.926 659.846 222.376 658.66 222.437Z" fill="#FC9D9D"/>
<path d="M646.072 238.886C646.364 238.886 646.65 238.799 646.893 238.637C647.136 238.475 647.325 238.244 647.434 237.974C647.55 237.704 647.58 237.406 647.519 237.12C647.465 236.833 647.325 236.57 647.118 236.363C646.911 236.156 646.65 236.015 646.358 235.958C646.072 235.901 645.774 235.93 645.507 236.042C645.239 236.154 645.008 236.344 644.844 236.587C644.679 236.83 644.594 237.115 644.594 237.408C644.594 237.602 644.631 237.795 644.704 237.974C644.777 238.155 644.886 238.318 645.026 238.455C645.16 238.593 645.324 238.701 645.507 238.776C645.683 238.849 645.878 238.887 646.072 238.886Z" fill="black"/>
<path d="M645.391 237.579C645.439 237.585 645.488 237.581 645.537 237.567C645.579 237.553 645.622 237.529 645.658 237.498C645.695 237.465 645.725 237.426 645.743 237.381C645.768 237.338 645.774 237.29 645.774 237.241C645.774 237.192 645.768 237.144 645.743 237.1C645.725 237.056 645.695 237.016 645.658 236.984C645.622 236.953 645.579 236.929 645.537 236.915C645.488 236.901 645.439 236.897 645.391 236.903C645.342 236.897 645.293 236.901 645.245 236.915C645.202 236.929 645.16 236.953 645.123 236.984C645.087 237.016 645.056 237.056 645.038 237.1C645.014 237.144 645.008 237.192 645.008 237.241C645.008 237.29 645.014 237.338 645.038 237.381C645.056 237.426 645.087 237.465 645.123 237.498C645.16 237.529 645.202 237.553 645.245 237.567C645.293 237.581 645.342 237.585 645.391 237.579Z" fill="white"/>
<path d="M657.383 238.035C657.675 238.036 657.961 237.95 658.204 237.788C658.453 237.626 658.642 237.395 658.751 237.125C658.867 236.855 658.897 236.557 658.836 236.269C658.782 235.982 658.642 235.718 658.435 235.511C658.228 235.304 657.961 235.163 657.675 235.106C657.389 235.05 657.091 235.08 656.824 235.192C656.55 235.305 656.319 235.495 656.161 235.739C655.997 235.983 655.911 236.27 655.911 236.563C655.911 236.756 655.948 236.947 656.021 237.126C656.1 237.305 656.203 237.467 656.343 237.603C656.477 237.74 656.641 237.849 656.817 237.923C657 237.996 657.188 238.035 657.383 238.035Z" fill="black"/>
<path d="M656.732 236.788C656.824 236.788 656.909 236.752 656.976 236.688C657.036 236.624 657.073 236.538 657.073 236.447C657.073 236.356 657.036 236.27 656.976 236.206C656.909 236.142 656.824 236.106 656.732 236.106C656.641 236.106 656.556 236.142 656.489 236.206C656.428 236.27 656.392 236.356 656.392 236.447C656.392 236.538 656.428 236.624 656.489 236.688C656.556 236.752 656.641 236.788 656.732 236.788Z" fill="white"/>
<path opacity="0.3" d="M652.476 244.386L653.692 244.276C653.801 244.264 653.905 244.211 653.978 244.125C654.051 244.041 654.093 243.932 654.087 243.82C654.075 243.709 654.026 243.606 653.941 243.533C653.856 243.46 653.747 243.421 653.637 243.425L652.421 243.534C652.299 243.541 652.184 243.526 652.068 243.487C651.953 243.448 651.849 243.387 651.758 243.308C651.667 243.228 651.594 243.132 651.545 243.024C651.49 242.917 651.46 242.799 651.454 242.679C651.442 242.559 651.46 242.44 651.496 242.326C651.539 242.212 651.6 242.107 651.679 242.017C651.758 241.927 651.855 241.853 651.959 241.801C652.068 241.748 652.184 241.716 652.305 241.709C652.36 241.705 652.415 241.691 652.463 241.666C652.518 241.642 652.561 241.607 652.597 241.565C652.634 241.523 652.664 241.474 652.682 241.421C652.701 241.368 652.707 241.312 652.707 241.256C652.701 241.2 652.688 241.145 652.658 241.095C652.634 241.045 652.603 241 652.561 240.963C652.518 240.925 652.47 240.898 652.415 240.879C652.36 240.861 652.305 240.854 652.251 240.857C652.026 240.874 651.807 240.936 651.6 241.04C651.399 241.143 651.223 241.287 651.077 241.461C650.931 241.635 650.821 241.837 650.755 242.054C650.694 242.271 650.669 242.499 650.694 242.725C650.694 242.954 650.736 243.181 650.828 243.392C650.919 243.603 651.053 243.793 651.217 243.949C651.387 244.105 651.582 244.224 651.801 244.3C652.019 244.375 652.245 244.405 652.476 244.386Z" fill="black"/>
<path d="M665.124 246.892L663.3 240.888L665.398 231.082L667.764 230.808L668.487 238.248L665.124 246.892ZM664.072 240.9L665.082 245.158L667.697 238.272L667.77 231.988L665.897 231.568L664.072 240.9Z" fill="#4DD188"/>
<path d="M640.653 248.139L636.141 241.186L637.503 233.886C637.516 233.776 637.558 233.672 637.631 233.588C637.704 233.504 637.801 233.444 637.911 233.417C638.014 233.39 638.13 233.396 638.233 233.436C638.336 233.475 638.428 233.545 638.489 233.637L641.103 242.251L640.653 248.139ZM636.907 240.985L640.07 245.943L640.343 242.403L638.02 234.154V234.64L636.907 240.985Z" fill="#4DD188"/>
<path d="M640.003 240.785C640.003 240.785 650.998 244.976 664.936 239.927L665.599 244.666C665.599 244.666 665.258 255.458 653.904 256.942C653.904 256.942 642.271 258.353 639.626 246.126L640.003 240.785Z" fill="#4DD188"/>
<path opacity="0.15" d="M653.892 256.942C665.246 255.457 665.587 244.666 665.587 244.666L665.307 242.64L665.143 242.184C654.391 251.309 639.766 244.009 639.766 244.009L639.614 246.132C642.259 258.353 653.892 256.942 653.892 256.942Z" fill="white"/>
<path opacity="0.15" d="M653.892 256.942C662.297 255.841 664.662 249.642 665.331 246.497L665.289 246.375C650.694 258.31 640.106 247.452 640.106 247.452L640.015 247.592C643.201 258.231 653.892 256.942 653.892 256.942Z" fill="white"/>
<path d="M661.494 232.645L655.084 232.985L654.233 233.04L648.62 233.381H648.565L641.365 233.782C641.085 233.799 640.812 233.871 640.556 233.994C640.307 234.117 640.082 234.289 639.893 234.5C639.711 234.711 639.571 234.958 639.48 235.224C639.389 235.49 639.358 235.772 639.377 236.051L639.492 237.694C639.601 239.2 640.295 240.603 641.426 241.603C642.563 242.601 644.041 243.116 645.549 243.036C647.051 242.957 648.468 242.289 649.49 241.176C650.511 240.063 651.052 238.595 651.004 237.086L650.888 235.443C650.864 234.981 650.688 234.541 650.377 234.196L652.591 234.08C652.336 234.467 652.214 234.927 652.251 235.388L652.366 237.031C652.409 237.786 652.597 238.527 652.919 239.21C653.248 239.893 653.704 240.505 654.263 241.011C654.829 241.517 655.486 241.907 656.197 242.16C656.909 242.412 657.669 242.522 658.423 242.482C659.177 242.441 659.919 242.253 660.6 241.927C661.281 241.601 661.895 241.144 662.4 240.581C662.911 240.018 663.3 239.361 663.549 238.648C663.805 237.934 663.914 237.178 663.872 236.423L663.762 234.774C663.762 234.483 663.701 234.194 663.586 233.927C663.47 233.659 663.3 233.418 663.087 233.219C662.874 233.02 662.625 232.866 662.351 232.766C662.078 232.668 661.786 232.627 661.494 232.645ZM650.037 235.425L650.152 237.067C650.189 237.707 650.104 238.347 649.891 238.951C649.684 239.556 649.356 240.114 648.93 240.593C648.504 241.071 647.988 241.461 647.416 241.74C646.838 242.019 646.212 242.182 645.573 242.22C644.935 242.258 644.296 242.169 643.688 241.959C643.086 241.749 642.527 241.422 642.052 240.997C641.572 240.571 641.183 240.056 640.903 239.48C640.623 238.904 640.459 238.279 640.422 237.639L640.313 235.991C640.295 235.655 640.41 235.326 640.629 235.073C640.854 234.819 641.164 234.662 641.499 234.634L648.705 234.233H648.76C648.924 234.225 649.088 234.249 649.24 234.305C649.392 234.361 649.532 234.447 649.654 234.558C649.769 234.669 649.867 234.804 649.934 234.952C650 235.101 650.037 235.262 650.037 235.425ZM663.026 236.331C663.099 237.622 662.662 238.89 661.804 239.857C660.947 240.823 659.736 241.408 658.447 241.484C657.158 241.56 655.887 241.12 654.926 240.261C653.959 239.402 653.369 238.194 653.296 236.903L653.181 235.255C653.169 234.914 653.284 234.582 653.515 234.327C653.74 234.073 654.057 233.917 654.397 233.892L655.249 233.837L661.652 233.496C661.993 233.483 662.327 233.602 662.576 233.829C662.832 234.056 662.99 234.373 663.014 234.713L663.026 236.331Z" fill="#15247C"/>
<path d="M633.058 617.233V602.767C633.052 600.668 632.219 598.655 630.741 597.168C629.257 595.68 627.251 594.837 625.152 594.822H624.812C623.073 594.814 621.388 595.409 620.044 596.507C618.7 597.604 617.776 599.136 617.435 600.839C617.034 602.916 616.098 604.853 614.717 606.454L612.449 609.118C610.521 611.381 609.457 614.259 609.445 617.233H633.058Z" fill="#4DD188"/>
<path d="M619.363 602.542C619.302 602.542 619.247 602.527 619.199 602.496C619.144 602.467 619.108 602.423 619.077 602.372C619.022 602.201 619.022 602.031 619.193 601.97C620.525 601.215 622.027 600.819 623.559 600.819C625.091 600.819 626.594 601.215 627.925 601.97C628.035 602.086 628.096 602.256 627.98 602.372C627.865 602.487 627.7 602.542 627.585 602.426C626.35 601.724 624.952 601.355 623.529 601.355C622.106 601.355 620.707 601.724 619.472 602.426C619.472 602.542 619.418 602.542 619.363 602.542Z" fill="white"/>
<g opacity="0.8">
<path opacity="0.8" d="M627.171 270.684L624.106 273.002L620.567 271.505L620.093 267.691L623.158 265.373L626.697 266.87L627.171 270.684Z" fill="white"/>
<path opacity="0.8" d="M656.969 316.917L653.904 319.235L650.365 317.739L649.891 313.924L652.956 311.607L656.495 313.103L656.969 316.917Z" fill="white"/>
<path opacity="0.8" d="M638.726 348.551L635.661 350.869L632.121 349.372L631.647 345.558L634.712 343.24L638.251 344.737L638.726 348.551Z" fill="white"/>
<path opacity="0.8" d="M687.376 278.592L684.311 280.91L680.771 279.414L680.297 275.599L683.362 273.281L686.901 274.778L687.376 278.592Z" fill="white"/>
<path opacity="0.8" d="M654.555 289.774L650.694 288.143L650.177 283.982L653.521 281.452L657.383 283.082L657.9 287.243L654.555 289.774ZM651.253 287.717L654.47 289.08L657.255 286.975L656.823 283.508L653.607 282.145L650.821 284.25L651.253 287.717Z" fill="white"/>
<path opacity="0.8" d="M624.149 329.315L620.287 327.685L619.771 323.524L623.115 320.993L626.977 322.624L627.494 326.785L624.149 329.315ZM620.847 327.259L624.064 328.622L626.849 326.517L626.417 323.049L623.2 321.687L620.415 323.792L620.847 327.259Z" fill="white"/>
<path opacity="0.8" d="M652.123 378.59L648.261 376.96L647.744 372.799L651.089 370.268L654.95 371.898L655.467 376.059L652.123 378.59ZM648.821 376.534L652.038 377.897L654.823 375.792L654.391 372.324L651.174 370.962L648.389 373.066L648.821 376.534Z" fill="white"/>
<path opacity="0.8" d="M702.597 310.457L698.735 308.826L698.219 304.665L701.563 302.135L705.425 303.765L705.942 307.926L702.597 310.457ZM699.295 308.401L702.512 309.763L705.297 307.658L704.865 304.191L701.648 302.828L698.863 304.933L699.295 308.401Z" fill="white"/>
<path opacity="0.8" d="M662.461 342.698L658.599 341.068L658.082 336.907L661.427 334.376L665.289 336.007L665.805 340.168L662.461 342.698ZM659.159 340.642L662.376 342.005L665.161 339.9L664.729 336.433L661.512 335.07L658.727 337.175L659.159 340.642Z" fill="white"/>
<path opacity="0.8" d="M677.056 314.107L673.194 312.477L672.677 308.316L676.022 305.785L679.884 307.415L680.401 311.576L677.056 314.107ZM673.754 312.051L676.971 313.413L679.756 311.309L679.324 307.841L676.107 306.478L673.322 308.583L673.754 312.051Z" fill="white"/>
<path opacity="0.8" d="M593.135 276.999L589.273 275.368L588.756 271.207L592.101 268.677L595.962 270.307L596.479 274.468L593.135 276.999ZM589.832 274.967L593.049 276.329L595.835 274.225L595.403 270.757L592.186 269.394L589.401 271.499L589.832 274.967Z" fill="white"/>
<path opacity="0.8" d="M626.563 374.709L623.498 377.027L619.959 375.53L619.484 371.716L622.549 369.398L626.089 370.895L626.563 374.709Z" fill="white"/>
<path opacity="0.8" d="M680.078 366.192L677.013 368.51L673.474 367.014L673 363.199L676.064 360.882L679.604 362.378L680.078 366.192Z" fill="white"/>
<path opacity="0.8" d="M627.171 301.101L624.106 303.419L620.567 301.922L620.093 298.108L623.158 295.79L626.697 297.287L627.171 301.101Z" fill="white"/>
</g>
<path d="M618.396 604.58C618.335 604.581 618.281 604.566 618.232 604.535C618.183 604.506 618.141 604.462 618.116 604.41C618.056 604.239 618.056 604.069 618.226 604.014C619.558 603.259 621.06 602.861 622.592 602.861C624.125 602.861 625.627 603.259 626.959 604.014C627.074 604.13 627.129 604.3 627.019 604.41C626.995 604.44 626.971 604.466 626.934 604.486C626.904 604.505 626.867 604.518 626.831 604.524C626.794 604.529 626.758 604.528 626.721 604.518C626.685 604.509 626.648 604.493 626.618 604.47C625.384 603.768 623.985 603.399 622.562 603.399C621.145 603.399 619.746 603.768 618.512 604.47C618.512 604.58 618.463 604.58 618.396 604.58Z" fill="white"/>
<path d="M617.375 606.74C617.32 606.74 617.259 606.724 617.21 606.693C617.162 606.663 617.119 606.62 617.095 606.569C617.04 606.399 617.04 606.229 617.204 606.168C618.536 605.412 620.038 605.015 621.571 605.015C623.103 605.015 624.605 605.412 625.937 606.168C625.967 606.19 625.992 606.218 626.01 606.25C626.034 606.283 626.046 606.319 626.052 606.356C626.059 606.393 626.052 606.431 626.046 606.468C626.034 606.505 626.022 606.539 625.998 606.569C625.882 606.679 625.712 606.74 625.602 606.624C624.368 605.923 622.969 605.553 621.546 605.553C620.123 605.553 618.725 605.923 617.49 606.624C617.435 606.74 617.375 606.74 617.375 606.74Z" fill="white"/>
<path d="M610.405 620.238H632.006C632.28 620.238 632.535 620.129 632.73 619.94C632.918 619.746 633.028 619.49 633.028 619.216V617.288H609.384V619.216C609.384 619.35 609.408 619.484 609.463 619.606C609.511 619.734 609.584 619.843 609.682 619.94C609.779 620.038 609.888 620.111 610.016 620.159C610.138 620.214 610.272 620.238 610.405 620.238Z" fill="#4DD188"/>
<path opacity="0.2" d="M610.405 620.238H632.006C632.28 620.238 632.535 620.129 632.73 619.94C632.918 619.746 633.028 619.49 633.028 619.216V617.288H609.384V619.216C609.384 619.35 609.408 619.484 609.463 619.606C609.511 619.734 609.584 619.843 609.682 619.94C609.779 620.038 609.888 620.111 610.016 620.159C610.138 620.214 610.272 620.238 610.405 620.238Z" fill="black"/>
<path d="M615.787 590.345L615.617 583.763H636.032L635.636 590.345H615.787Z" fill="#4DD188"/>
<path d="M637.619 234.519C637.571 234.023 637.388 233.55 637.096 233.15C636.798 232.749 636.397 232.436 635.941 232.244C635.485 232.052 634.98 231.988 634.487 232.058C633.995 232.129 633.533 232.332 633.143 232.645L633.083 232.706C630.194 235.2 632.061 243.047 638.416 242.348L637.619 234.519Z" fill="#FC9D9D"/>
<path d="M669.205 230.376L669.15 230.321C668.725 230.072 668.238 229.942 667.746 229.945C667.247 229.949 666.766 230.085 666.341 230.34C665.915 230.595 665.568 230.96 665.337 231.395C665.1 231.83 664.991 232.321 665.009 232.815L665.349 240.304C671.759 240.079 672.379 232.42 669.205 230.376Z" fill="#FC9D9D"/>
<path d="M638.416 235.48C638.428 235.675 638.361 235.867 638.233 236.016C638.112 236.165 637.929 236.258 637.735 236.277C637.546 236.304 637.358 236.261 637.199 236.157C637.041 236.052 636.932 235.894 636.883 235.711L636.147 230.662L638.245 230.717L638.416 235.48Z" fill="#15247C"/>
<path d="M666.31 233.442C666.322 233.636 666.262 233.827 666.134 233.975C666.006 234.123 665.83 234.216 665.635 234.233C665.447 234.261 665.258 234.219 665.1 234.114C664.942 234.009 664.833 233.85 664.784 233.667L664.042 228.618L666.14 228.672L666.31 233.442Z" fill="#15247C"/>
<path d="M636.032 583.763L635.636 590.345H615.787L615.617 583.763H636.032Z" fill="#4DD188"/>
<path opacity="0.15" d="M698.462 284.7L706.915 321.115L714.565 319.29L707.937 289.001C707.268 285.985 705.899 283.169 703.935 280.783C701.977 278.397 699.478 276.508 696.65 275.271L689.9 272.32C694.254 275.177 697.325 279.617 698.462 284.7Z" fill="black"/>
<path opacity="0.15" d="M683.155 302.81L678.667 388.19H688.002L689.875 322.325L684.402 302.701C684.39 302.535 684.311 302.382 684.183 302.276C684.055 302.169 683.891 302.117 683.721 302.132C683.557 302.146 683.405 302.226 683.301 302.353C683.192 302.48 683.143 302.645 683.155 302.81Z" fill="black"/>
<path d="M719.412 341.5L714.547 319.32L690.623 324.935L695.385 338.927L655.352 347.833L653.138 348.289C652.403 348.459 651.721 348.514 651.211 348.003L650.359 347.152C649.556 346.505 648.632 346.023 647.641 345.734C645.281 345.041 643.287 343.454 642.083 341.312L640.155 337.905C640.137 337.865 640.106 337.829 640.07 337.801C640.039 337.773 639.997 337.753 639.954 337.742C639.912 337.732 639.863 337.732 639.82 337.741C639.778 337.75 639.735 337.769 639.699 337.795L639.358 337.905C638.689 338.158 638.142 338.657 637.826 339.3C637.51 339.943 637.449 340.682 637.662 341.366L639.133 346.02C639.206 346.262 639.182 346.523 639.066 346.748C638.957 346.974 638.762 347.149 638.525 347.237L618.779 355.352C616.791 356.088 617.472 358.813 619.29 358.357C620.251 358.132 630.814 353.813 630.814 353.813L628.947 354.78C626.849 355.802 627.81 358.637 629.628 358.241C631.447 357.846 633.824 357.219 633.824 357.219L631.495 358.126C631.106 358.32 630.802 358.655 630.65 359.062C630.498 359.47 630.504 359.92 630.674 360.322C630.838 360.725 631.149 361.05 631.544 361.231C631.939 361.413 632.389 361.438 632.803 361.301C634.159 360.961 636.318 360.279 636.318 360.279L634.901 360.961C633.076 361.533 633.684 364.367 635.412 364.002C636.883 363.716 650.718 360.316 657.864 359.008L710.88 353.223C712.242 353.09 713.562 352.67 714.754 351.99C715.939 351.311 716.973 350.387 717.776 349.279C718.585 348.171 719.144 346.905 719.43 345.564C719.71 344.224 719.704 342.838 719.412 341.5Z" fill="#FC9D9D"/>
<path d="M573.462 273.318L546.929 287.273C538.081 291.921 541.371 305.31 551.405 305.31L585.223 308.547L585.46 302.117V293.709L591.438 291.641" fill="#FC9D9D"/>
<path opacity="0.15" d="M710.898 353.521L657.882 359.312C650.736 360.614 636.901 364.014 635.43 364.3C635.223 364.33 635.01 364.313 634.809 364.252C634.609 364.191 634.42 364.087 634.262 363.946C634.11 363.806 633.982 363.634 633.897 363.441C633.818 363.247 633.775 363.039 633.782 362.828C633.782 362.828 634.177 363.51 635.259 363.169C635.825 362.999 644.333 359.878 649.714 357.834C652.621 356.755 655.619 355.957 658.678 355.449C670.233 353.521 700.353 348.417 708.459 346.604C709.019 346.484 709.554 346.252 710.022 345.923C710.497 345.594 710.898 345.173 711.202 344.687C711.512 344.201 711.713 343.658 711.81 343.091C711.901 342.524 711.883 341.944 711.749 341.384L707.085 321.2L714.626 319.436L719.442 341.616C719.71 342.964 719.697 344.352 719.412 345.696C719.12 347.039 718.554 348.308 717.758 349.425C716.955 350.541 715.933 351.481 714.753 352.185C713.574 352.89 712.26 353.345 710.898 353.521Z" fill="black"/>
<path opacity="0.3" d="M636.032 238.6C635.923 238.595 635.819 238.554 635.74 238.481C635.655 238.409 635.6 238.312 635.582 238.205L635.466 237.299C635.448 236.561 635.162 235.856 634.67 235.309C634.579 235.229 634.469 235.167 634.354 235.128C634.238 235.09 634.116 235.075 633.995 235.084C633.879 235.107 633.764 235.084 633.666 235.02C633.575 234.956 633.508 234.857 633.484 234.744C633.46 234.631 633.484 234.514 633.551 234.418C633.612 234.321 633.709 234.255 633.824 234.233C634.305 234.182 634.785 234.302 635.181 234.573C635.533 234.898 635.819 235.292 636.014 235.732C636.208 236.172 636.312 236.647 636.318 237.128L636.427 238.035C636.433 238.159 636.397 238.284 636.324 238.386C636.257 238.489 636.154 238.564 636.032 238.6Z" fill="black"/>
<path opacity="0.3" d="M667.223 236.277C667.332 236.266 667.436 236.212 667.509 236.128C667.588 236.043 667.624 235.933 667.618 235.82V234.914C667.557 234.556 667.569 234.191 667.661 233.839C667.746 233.487 667.91 233.157 668.129 232.87C668.208 232.767 668.311 232.684 668.433 232.626C668.548 232.568 668.676 232.537 668.81 232.536C668.925 232.543 669.035 232.505 669.12 232.43C669.205 232.355 669.254 232.25 669.26 232.137C669.272 232.024 669.23 231.913 669.157 231.828C669.084 231.743 668.98 231.691 668.865 231.684C668.627 231.689 668.396 231.743 668.184 231.84C667.971 231.937 667.776 232.076 667.618 232.25C667.052 232.815 666.821 233.722 666.882 234.969V235.881C666.767 236.106 666.937 236.277 667.223 236.277Z" fill="black"/>
<path d="M706.97 321.133L714.51 319.375L706.97 321.133Z" fill="#4DD188"/>
<path opacity="0.15" d="M585.284 285.399L591.462 291.696L607 288.289L605.869 281.823C605.801 281.434 605.65 281.065 605.425 280.74C605.2 280.416 604.907 280.145 604.567 279.945C604.227 279.745 603.847 279.622 603.454 279.584C603.062 279.546 602.666 279.594 602.293 279.724L585.284 285.399Z" fill="black"/>
<path opacity="0.15" d="M591.462 291.696L585.284 285.4L574.678 288.916L563.397 287.273C563.227 287.212 563.057 287.383 562.996 287.553C562.997 287.64 563.026 287.725 563.077 287.796C563.128 287.866 563.2 287.92 563.282 287.949L582.894 294.999L590.191 291.957L591.462 291.696Z" fill="black"/>
<path opacity="0.2" d="M649.642 412.785C648.662 412.778 647.72 413.146 647.002 413.813C646.285 414.48 645.847 415.396 645.786 416.374L635.582 583.763H629.5L631.933 423.887C631.994 420.91 633.222 418.076 635.357 415.998C637.491 413.921 640.355 412.766 643.329 412.785H649.642Z" fill="black"/>
<path opacity="0.2" d="M635.636 590.345L636.032 583.763H629.513L629.397 590.345H635.636Z" fill="black"/>
<path opacity="0.15" d="M680.322 590.345L679.981 602.256L673.231 602.481L673.346 594.427C673.346 594.051 673.231 593.683 673.012 593.377C672.799 593.072 672.489 592.843 672.13 592.723L664.529 590.29H680.297L680.322 590.345Z" fill="black"/>
<path opacity="0.2" d="M687.406 389.485L682.134 590.345H680.31L680.492 585.217H673.456L675.955 389.504L687.406 389.485Z" fill="black"/>
<path d="M665.064 617.233V602.767C665.07 600.662 665.909 598.645 667.399 597.157C668.883 595.668 670.902 594.829 673.006 594.822H673.346C675.08 594.815 676.764 595.411 678.108 596.509C679.452 597.606 680.376 599.137 680.717 600.839C681.118 602.916 682.055 604.851 683.435 606.454L685.704 609.118C687.643 611.381 688.72 614.253 688.744 617.233H665.064Z" fill="#4DD188"/>
<path d="M678.789 602.542C678.759 602.546 678.728 602.543 678.698 602.532C678.668 602.522 678.637 602.504 678.619 602.481C677.391 601.758 675.986 601.376 674.563 601.376C673.134 601.376 671.735 601.758 670.507 602.481C670.476 602.505 670.446 602.524 670.409 602.534C670.373 602.544 670.336 602.547 670.294 602.542C670.257 602.537 670.221 602.524 670.19 602.504C670.16 602.484 670.13 602.457 670.111 602.426C670.087 602.397 670.075 602.363 670.063 602.327C670.05 602.291 670.05 602.254 670.057 602.217C670.063 602.181 670.075 602.145 670.093 602.113C670.111 602.081 670.136 602.053 670.166 602.031C671.492 601.263 673 600.857 674.532 600.857C676.065 600.857 677.573 601.263 678.899 602.031C679.069 602.086 679.069 602.311 679.014 602.426C678.953 602.486 678.874 602.526 678.789 602.542Z" fill="white"/>
<path d="M679.695 604.58C679.665 604.584 679.635 604.581 679.604 604.571C679.574 604.562 679.55 604.546 679.525 604.525C678.297 603.802 676.898 603.421 675.469 603.421C674.046 603.421 672.647 603.802 671.419 604.525C671.388 604.552 671.352 604.572 671.315 604.584C671.279 604.597 671.236 604.601 671.2 604.598C671.157 604.593 671.121 604.581 671.084 604.562C671.054 604.542 671.024 604.516 670.999 604.484C670.975 604.452 670.957 604.416 670.951 604.377C670.938 604.338 670.938 604.298 670.944 604.259C670.957 604.22 670.969 604.183 670.993 604.15C671.017 604.117 671.042 604.09 671.078 604.069C672.404 603.302 673.912 602.898 675.445 602.898C676.977 602.898 678.485 603.302 679.811 604.069C679.981 604.13 679.981 604.355 679.92 604.47C679.86 604.586 679.811 604.58 679.695 604.58Z" fill="white"/>
<path d="M680.772 606.739C680.741 606.743 680.711 606.74 680.681 606.729C680.65 606.719 680.626 606.701 680.602 606.679C679.373 605.955 677.974 605.574 676.545 605.574C675.122 605.574 673.724 605.955 672.495 606.679C672.465 606.701 672.434 606.718 672.398 606.727C672.361 606.736 672.325 606.738 672.288 606.733C672.252 606.728 672.215 606.716 672.179 606.697C672.149 606.678 672.124 606.654 672.1 606.624C672.076 606.594 672.063 606.561 672.051 606.525C672.045 606.489 672.039 606.452 672.045 606.415C672.051 606.378 672.063 606.343 672.082 606.311C672.1 606.279 672.124 606.251 672.155 606.228C673.48 605.46 674.988 605.054 676.521 605.054C678.053 605.054 679.562 605.46 680.887 606.228C681.058 606.283 681.058 606.508 680.997 606.624C680.972 606.659 680.936 606.687 680.9 606.707C680.857 606.727 680.814 606.738 680.772 606.739Z" fill="white"/>
<path d="M687.692 620.239H666.085C665.812 620.239 665.556 620.129 665.362 619.94C665.173 619.746 665.064 619.49 665.064 619.217V617.288H688.781V619.217C688.768 619.496 688.647 619.758 688.446 619.947C688.239 620.141 687.972 620.245 687.692 620.239Z" fill="#4DD188"/>
<path opacity="0.2" d="M687.692 620.239H666.085C665.812 620.239 665.556 620.129 665.362 619.94C665.173 619.746 665.064 619.49 665.064 619.217V617.288H688.781V619.217C688.768 619.496 688.647 619.758 688.446 619.947C688.239 620.141 687.972 620.245 687.692 620.239Z" fill="black"/>
<path d="M662.284 583.763L662.686 590.345H682.529L682.644 583.763H662.284Z" fill="#4DD188"/>
<path opacity="0.2" d="M673.456 583.763V590.345H682.529L682.645 583.763H673.456Z" fill="black"/>
<path d="M655.309 347.967L657.408 359.312L660.983 358.911L658.885 347.17L655.309 347.967Z" fill="#15247C"/>
<path d="M658.32 357.438C659.025 357.438 659.718 357.229 660.308 356.836C660.892 356.443 661.354 355.884 661.622 355.23C661.895 354.577 661.962 353.857 661.829 353.164C661.689 352.47 661.348 351.833 660.849 351.332C660.351 350.832 659.712 350.491 659.019 350.353C658.326 350.215 657.602 350.286 656.951 350.557C656.301 350.828 655.741 351.286 655.346 351.874C654.957 352.462 654.744 353.154 654.744 353.861C654.744 354.332 654.835 354.797 655.011 355.231C655.194 355.666 655.455 356.06 655.79 356.393C656.124 356.725 656.513 356.988 656.951 357.168C657.383 357.347 657.851 357.439 658.32 357.438Z" fill="#298EE0"/>
<path d="M658.32 356.873C658.916 356.867 659.493 356.685 659.986 356.351C660.472 356.016 660.855 355.544 661.08 354.993C661.299 354.443 661.36 353.838 661.239 353.256C661.117 352.673 660.831 352.14 660.405 351.722C659.986 351.303 659.451 351.02 658.867 350.906C658.283 350.792 657.681 350.854 657.128 351.083C656.58 351.311 656.112 351.697 655.784 352.192C655.455 352.686 655.279 353.267 655.279 353.862C655.279 354.259 655.358 354.654 655.51 355.021C655.662 355.388 655.887 355.722 656.173 356.002C656.453 356.282 656.787 356.503 657.158 356.653C657.529 356.802 657.924 356.877 658.32 356.873Z" fill="white"/>
<path d="M660.302 354.147L658.259 354.032L656.775 352.955C656.72 352.9 656.66 352.785 656.72 352.73C656.781 352.675 656.891 352.614 656.945 352.675L658.308 353.691L660.235 353.807C660.26 353.804 660.284 353.806 660.302 353.813C660.327 353.821 660.345 353.834 660.363 353.85C660.381 353.866 660.393 353.886 660.4 353.908C660.406 353.931 660.406 353.954 660.406 353.977C660.473 354.05 660.424 354.147 660.302 354.147Z" fill="#15247C"/>
<path d="M401.885 207.867H560.393C563.641 207.867 566.858 208.507 569.858 209.751C572.859 210.994 575.585 212.816 577.882 215.114C580.179 217.412 582 220.139 583.243 223.14C584.486 226.142 585.126 229.359 585.126 232.608V595.029C585.126 601.59 582.52 607.884 577.882 612.525C573.243 617.166 566.953 619.77 560.393 619.77H398.121C394.718 619.77 391.454 618.419 389.048 616.01C386.642 613.601 385.29 610.341 385.29 606.934V224.475C385.29 220.072 387.038 215.849 390.15 212.736C393.263 209.622 397.484 207.874 401.885 207.874V207.867Z" fill="#4DD188"/>
<path opacity="0.2" d="M401.885 207.867H560.393C563.641 207.867 566.858 208.507 569.858 209.751C572.859 210.994 575.585 212.816 577.882 215.114C580.179 217.412 582 220.139 583.243 223.14C584.486 226.142 585.126 229.359 585.126 232.608V595.029C585.126 601.59 582.52 607.884 577.882 612.525C573.243 617.166 566.953 619.77 560.393 619.77H401.15C396.943 619.77 392.909 618.097 389.935 615.122C386.961 612.147 385.29 608.112 385.29 603.905V224.475C385.29 220.072 387.038 215.849 390.15 212.736C393.263 209.622 397.484 207.874 401.885 207.874V207.867Z" fill="black"/>
<path d="M569.235 213.574H381.708V609.605H569.235V213.574Z" fill="#4DD188"/>
<path opacity="0.8" d="M569.235 213.574H381.708V609.605H569.235V213.574Z" fill="white"/>
<path d="M565.653 215.137H384.043V261.37H565.653V215.137Z" fill="#4DD188"/>
<path d="M565.635 580.125H384.025V612.215H565.635V580.125Z" fill="#4DD188"/>
<path opacity="0.4" d="M565.653 215.137H384.043V261.37H565.653V215.137Z" fill="white"/>
<path opacity="0.4" d="M565.635 580.125H384.025V612.215H565.635V580.125Z" fill="white"/>
<path d="M551.57 607.907H398.109C390.38 607.907 384.122 601.934 384.122 594.561V232.085C384.122 224.718 390.392 218.744 398.109 218.744H425.73C427.346 218.72 428.929 219.206 430.253 220.133C431.577 221.06 432.576 222.382 433.107 223.909L434.366 227.754C434.896 229.28 435.893 230.601 437.216 231.529C438.539 232.457 440.12 232.945 441.736 232.925H507.973C509.588 232.947 511.169 232.46 512.491 231.533C513.815 230.606 514.812 229.286 515.343 227.76L516.608 223.909C517.138 222.383 518.136 221.062 519.459 220.135C520.782 219.208 522.363 218.721 523.979 218.744H551.6C559.335 218.744 565.587 224.718 565.587 232.085V594.561C565.556 601.934 559.317 607.907 551.57 607.907ZM374.946 226.537V600.62C374.946 605.635 376.937 610.444 380.481 613.991C384.025 617.537 388.833 619.533 393.846 619.533H555.863C558.345 619.533 560.803 619.046 563.097 618.097C565.39 617.148 567.474 615.755 569.229 613.997C570.984 612.239 572.376 610.158 573.326 607.862C574.276 605.568 574.764 603.109 574.763 600.626V226.543C574.763 221.529 572.772 216.72 569.227 213.174C565.683 209.628 560.875 207.636 555.863 207.636H393.828C388.819 207.641 384.017 209.635 380.477 213.178C376.937 216.722 374.947 221.527 374.946 226.537Z" fill="#4DD188"/>
<path d="M549.07 246.764H536.597C536.517 246.764 536.439 246.732 536.382 246.676C536.326 246.618 536.293 246.541 536.293 246.46C536.293 246.379 536.326 246.302 536.382 246.245C536.439 246.188 536.517 246.156 536.597 246.156H549.07C549.151 246.156 549.228 246.188 549.285 246.245C549.342 246.302 549.374 246.379 549.374 246.46C549.374 246.541 549.342 246.618 549.285 246.676C549.228 246.732 549.151 246.764 549.07 246.764Z" fill="white"/>
<path d="M549.07 250.864H536.597C536.518 250.864 536.442 250.833 536.386 250.777C536.331 250.722 536.299 250.645 536.299 250.566C536.299 250.487 536.331 250.41 536.386 250.353C536.442 250.296 536.518 250.264 536.597 250.262H549.07C549.15 250.262 549.228 250.294 549.285 250.351C549.342 250.408 549.374 250.485 549.374 250.566C549.374 250.647 549.342 250.725 549.285 250.782C549.228 250.838 549.15 250.871 549.07 250.871V250.864Z" fill="white"/>
<path d="M549.07 254.965H536.597C536.517 254.965 536.439 254.933 536.382 254.876C536.326 254.819 536.293 254.742 536.293 254.661C536.293 254.58 536.326 254.502 536.382 254.445C536.439 254.389 536.517 254.356 536.597 254.356H549.07C549.151 254.356 549.228 254.389 549.285 254.445C549.342 254.502 549.374 254.58 549.374 254.661C549.374 254.742 549.342 254.819 549.285 254.876C549.228 254.933 549.151 254.965 549.07 254.965Z" fill="white"/>
<path d="M405.066 244.611L400.347 248.723C400.274 248.788 400.215 248.867 400.176 248.957C400.136 249.046 400.116 249.142 400.116 249.24V256.23C400.115 256.29 400.126 256.35 400.149 256.406C400.172 256.461 400.205 256.512 400.248 256.554C400.29 256.597 400.341 256.63 400.397 256.653C400.452 256.676 400.512 256.687 400.572 256.686H403.394C403.454 256.687 403.514 256.676 403.57 256.653C403.626 256.631 403.677 256.597 403.72 256.555C403.763 256.512 403.797 256.462 403.82 256.406C403.844 256.35 403.856 256.29 403.856 256.23V252.58C403.858 252.46 403.906 252.345 403.991 252.259C404.076 252.174 404.191 252.126 404.312 252.124H406.744C406.866 252.124 406.983 252.172 407.069 252.257C407.155 252.342 407.205 252.458 407.206 252.58V256.23C407.206 256.29 407.217 256.35 407.239 256.406C407.262 256.462 407.296 256.514 407.338 256.557C407.38 256.6 407.431 256.634 407.487 256.657C407.543 256.68 407.602 256.692 407.663 256.692H410.484C410.607 256.692 410.724 256.644 410.811 256.557C410.898 256.47 410.946 256.353 410.946 256.23V249.24C410.948 249.142 410.927 249.044 410.886 248.955C410.845 248.866 410.785 248.786 410.709 248.723L405.996 244.611C405.869 244.495 405.703 244.431 405.531 244.431C405.359 244.431 405.194 244.495 405.066 244.611Z" stroke="white" stroke-width="1.64" stroke-miterlimit="10"/>
<path d="M419.296 590.728H407.949C407.871 590.707 407.802 590.662 407.753 590.598C407.704 590.534 407.677 590.456 407.677 590.375C407.677 590.295 407.704 590.217 407.753 590.153C407.802 590.089 407.871 590.043 407.949 590.022H419.296C419.374 590.043 419.443 590.089 419.492 590.153C419.541 590.217 419.568 590.295 419.568 590.375C419.568 590.456 419.541 590.534 419.492 590.598C419.443 590.662 419.374 590.707 419.296 590.728Z" fill="white" stroke="white" stroke-width="0.4" stroke-miterlimit="10"/>
<path d="M419.296 594.561H407.949C407.867 594.55 407.792 594.508 407.741 594.443C407.69 594.378 407.666 594.296 407.675 594.214C407.666 594.131 407.69 594.048 407.741 593.982C407.792 593.916 407.867 593.873 407.949 593.861H419.296C419.374 593.882 419.443 593.927 419.492 593.991C419.541 594.055 419.567 594.134 419.567 594.214C419.567 594.294 419.541 594.373 419.492 594.437C419.443 594.5 419.374 594.546 419.296 594.567V594.561Z" fill="white" stroke="white" stroke-width="0.4" stroke-miterlimit="10"/>
<path d="M419.296 598.387H407.948C407.869 598.369 407.799 598.324 407.748 598.261C407.697 598.197 407.67 598.119 407.67 598.037C407.67 597.956 407.697 597.877 407.748 597.814C407.799 597.75 407.869 597.706 407.948 597.688H419.296C419.378 597.7 419.453 597.743 419.504 597.809C419.555 597.875 419.578 597.958 419.57 598.04C419.578 598.122 419.555 598.205 419.503 598.27C419.452 598.334 419.378 598.377 419.296 598.387Z" fill="white" stroke="white" stroke-width="0.4" stroke-miterlimit="10"/>
<path d="M535.868 589.56L541.985 593.721L535.868 598.862" stroke="white" stroke-width="1.61" stroke-miterlimit="10" stroke-linecap="round"/>
<path d="M479.233 592.249V599.592H469.448V592.249" stroke="white" stroke-width="1.61" stroke-miterlimit="10" stroke-linecap="round"/>
<path d="M467.976 593.229L474.337 588.824L480.698 593.229" stroke="white" stroke-width="1.61" stroke-miterlimit="10" stroke-linecap="round"/>
<path d="M532.024 226.416L531.653 226.787L531.44 227C530.969 226.525 530.408 226.148 529.791 225.892C529.174 225.635 528.512 225.502 527.843 225.502C527.174 225.502 526.513 225.635 525.896 225.892C525.278 226.148 524.718 226.525 524.246 227L524.046 226.793L523.675 226.422L524.143 226.008C524.479 225.733 524.847 225.498 525.238 225.308C525.696 225.083 526.183 224.92 526.685 224.822C526.922 224.779 527.165 224.755 527.409 224.73C527.488 224.73 528.017 224.73 528.017 224.73L528.509 224.767C528.962 224.817 529.408 224.924 529.835 225.083C530.145 225.199 530.446 225.34 530.735 225.503C531.037 225.678 531.322 225.882 531.586 226.111C531.726 226.227 531.854 226.349 531.982 226.464L532.024 226.416Z" fill="white"/>
<path d="M525.42 228.168C525.219 227.973 525.025 227.784 524.812 227.559C525.61 226.764 526.69 226.318 527.816 226.318C528.942 226.318 530.022 226.764 530.82 227.559L530.212 228.168C529.572 227.528 528.705 227.169 527.801 227.169C526.897 227.169 526.029 227.528 525.39 228.168H525.42Z" fill="white"/>
<path d="M529.677 228.733L529.069 229.342C528.907 229.178 528.714 229.048 528.501 228.959C528.289 228.87 528.061 228.824 527.831 228.824C527.601 228.824 527.373 228.87 527.161 228.959C526.948 229.048 526.756 229.178 526.594 229.342L525.986 228.733C526.225 228.484 526.511 228.287 526.828 228.152C527.145 228.017 527.487 227.947 527.831 227.947C528.176 227.947 528.517 228.017 528.834 228.152C529.152 228.287 529.438 228.484 529.677 228.733Z" fill="white"/>
<path d="M528.375 229.877C528.375 229.984 528.343 230.088 528.284 230.176C528.225 230.264 528.141 230.333 528.042 230.373C527.944 230.413 527.835 230.423 527.731 230.401C527.627 230.38 527.531 230.327 527.457 230.251C527.383 230.175 527.333 230.078 527.314 229.974C527.294 229.869 527.307 229.761 527.349 229.664C527.391 229.566 527.462 229.483 527.551 229.426C527.641 229.368 527.746 229.339 527.852 229.342C527.922 229.342 527.99 229.357 528.054 229.384C528.118 229.412 528.176 229.451 528.225 229.501C528.273 229.551 528.312 229.609 528.337 229.674C528.363 229.738 528.376 229.808 528.375 229.877Z" fill="white"/>
<path d="M397.756 227.517C397.756 227.213 397.847 226.915 398.016 226.661C398.185 226.408 398.425 226.211 398.706 226.095C398.987 225.978 399.297 225.948 399.595 226.008C399.894 226.067 400.167 226.213 400.383 226.428C400.598 226.644 400.744 226.918 400.804 227.216C400.863 227.515 400.833 227.825 400.716 228.106C400.6 228.387 400.403 228.628 400.15 228.797C399.897 228.966 399.599 229.056 399.295 229.056C398.887 229.056 398.496 228.893 398.207 228.605C397.919 228.317 397.756 227.925 397.756 227.517Z" fill="white"/>
<path d="M402.579 227.517C402.579 227.213 402.669 226.915 402.838 226.661C403.007 226.408 403.248 226.211 403.529 226.095C403.81 225.978 404.119 225.948 404.418 226.008C404.716 226.067 404.99 226.213 405.205 226.428C405.421 226.644 405.567 226.918 405.626 227.216C405.686 227.515 405.655 227.825 405.538 228.106C405.422 228.387 405.225 228.628 404.972 228.797C404.719 228.966 404.421 229.056 404.117 229.056C403.709 229.056 403.318 228.893 403.029 228.605C402.741 228.317 402.579 227.925 402.579 227.517Z" fill="white"/>
<path d="M407.444 227.517C407.444 227.213 407.534 226.915 407.703 226.661C407.872 226.408 408.113 226.211 408.394 226.095C408.675 225.978 408.984 225.948 409.283 226.008C409.581 226.067 409.855 226.213 410.07 226.428C410.285 226.644 410.432 226.918 410.491 227.216C410.551 227.515 410.52 227.825 410.403 228.106C410.287 228.387 410.09 228.628 409.837 228.797C409.584 228.966 409.286 229.056 408.982 229.056C408.574 229.056 408.183 228.893 407.894 228.605C407.606 228.317 407.444 227.925 407.444 227.517Z" fill="white"/>
<path d="M412.309 227.517C412.309 227.213 412.399 226.915 412.568 226.661C412.737 226.408 412.978 226.211 413.259 226.095C413.54 225.978 413.849 225.948 414.148 226.008C414.446 226.067 414.72 226.213 414.935 226.428C415.151 226.644 415.297 226.918 415.356 227.216C415.416 227.515 415.385 227.825 415.269 228.106C415.152 228.387 414.955 228.628 414.702 228.797C414.449 228.966 414.151 229.056 413.847 229.056C413.439 229.056 413.048 228.893 412.759 228.605C412.471 228.317 412.309 227.925 412.309 227.517Z" fill="white"/>
<path d="M555.826 230.351H546.048V225.819H555.826V230.351ZM546.54 229.859H555.334V226.3H546.54V229.859Z" fill="white"/>
<path d="M553.169 226.586H546.856V229.579H553.169V226.586Z" fill="white"/>
<path d="M556.708 226.872H555.839V229.299H556.708V226.872Z" fill="white"/>
<path d="M507.669 248.456H442.022C440.93 248.456 440.045 249.341 440.045 250.433V250.694C440.045 251.786 440.93 252.671 442.022 252.671H507.669C508.76 252.671 509.645 251.786 509.645 250.694V250.433C509.645 249.341 508.76 248.456 507.669 248.456Z" fill="white"/>
<path d="M475.475 410.844C505.131 410.844 529.172 386.795 529.172 357.128C529.172 327.462 505.131 303.412 475.475 303.412C445.819 303.412 421.777 327.462 421.777 357.128C421.777 386.795 445.819 410.844 475.475 410.844Z" fill="white"/>
<path d="M518.98 388.409L491.128 379.977H491.067V380.014L489.303 379.241L486.98 379.752L472.306 380.141L465.824 378.846L463.999 378.237V378.286L440.891 384.892C440.283 385.057 439.711 385.191 439.115 385.318C436.603 385.922 434.213 386.951 432.049 388.36C437.022 395.228 443.552 400.82 451.103 404.677C458.653 408.535 467.01 410.548 475.488 410.553C483.967 410.557 492.325 408.552 499.879 404.702C507.433 400.851 513.969 395.266 518.95 388.403L518.98 388.409ZM491.067 380.038C491.067 380.038 491.067 380.117 491.067 380.172V380.038Z" fill="#4DD188"/>
<path d="M463.999 353.831L464.17 377.197C464.164 377.77 464.344 378.329 464.68 378.791L464.912 379.186C466.246 381.179 467.984 382.869 470.013 384.147C472.042 385.425 474.316 386.264 476.689 386.607C479.062 386.952 481.481 386.794 483.788 386.144C486.096 385.495 488.242 384.368 490.088 382.836C490.478 382.508 490.778 382.085 490.956 381.608C491.135 381.131 491.188 380.615 491.11 380.111L486.853 351.976L463.999 353.831Z" fill="#FC9D9D"/>
<path d="M489.364 342.261C489.364 342.261 494.016 373 477.062 374.253C460.503 375.47 459.992 344.414 459.992 344.414L459.542 335.508L480.863 331.767L486.251 334.547L489.364 342.261Z" fill="#FC9D9D"/>
<path opacity="0.15" d="M489.766 371.692L488.549 363.242C487.017 368.717 483.842 373.225 478.284 374.131H478.339L477.123 374.301C472.702 374.642 469.016 372.598 466.237 368.218C466.176 368.156 466.097 368.118 466.011 368.108C465.925 368.099 465.839 368.12 465.767 368.168C465.695 368.215 465.642 368.286 465.616 368.369C465.591 368.451 465.596 368.54 465.629 368.62C468.572 373.267 472.489 375.421 477.184 375.08C478.166 375.014 479.137 374.825 480.072 374.514C483.546 374.863 487.021 373.851 489.766 371.692Z" fill="black"/>
<path d="M485.339 335.393C485.339 335.393 490.727 331.822 493.281 337.948C495.433 343.112 491.803 348.727 491.803 348.727L488.689 348.387C487.382 348.326 486.476 347.705 486.36 346.458L485.339 335.393Z" fill="#15247C"/>
<path d="M489.2 331.651C489.65 337.491 484.663 339.024 482.62 339.195L465.89 340.612C465.235 340.674 464.628 340.985 464.196 341.482C463.763 341.979 463.538 342.624 463.567 343.283L463.853 348.612C463.881 348.967 463.769 349.319 463.543 349.593C463.316 349.868 462.991 350.044 462.637 350.084L461.615 350.199L460.503 351.617C453.929 350.029 451.204 331.365 463.282 327.624C463.926 327.417 464.523 327.084 465.038 326.646C465.554 326.208 465.978 325.672 466.286 325.069C468.049 321.419 475.25 320.476 478.874 324.558C479.226 324.978 479.671 325.309 480.174 325.527C480.676 325.744 481.222 325.842 481.769 325.811C486.135 325.696 488.969 328.421 489.2 331.651Z" fill="#15247C"/>
<path d="M461.695 352.012C461.645 351.518 461.463 351.045 461.167 350.645C460.871 350.245 460.472 349.933 460.014 349.742C459.555 349.551 459.053 349.487 458.561 349.557C458.068 349.629 457.605 349.831 457.219 350.145L457.158 350.199C454.27 352.693 456.136 360.541 462.491 359.841L461.695 352.012Z" fill="#FC9D9D"/>
<path d="M493.281 347.875L493.226 347.815C492.798 347.567 492.312 347.439 491.818 347.443C491.324 347.448 490.84 347.585 490.416 347.841C489.994 348.096 489.646 348.461 489.412 348.896C489.178 349.331 489.065 349.821 489.085 350.315L489.425 357.803C495.829 357.572 496.455 349.913 493.281 347.875Z" fill="#FC9D9D"/>
<path d="M462.491 352.979C462.502 353.174 462.436 353.366 462.31 353.514C462.183 353.663 462.004 353.756 461.81 353.776C461.623 353.802 461.433 353.757 461.276 353.652C461.119 353.547 461.006 353.388 460.959 353.204L460.223 348.155L462.321 348.216L462.491 352.979Z" fill="#15247C"/>
<path d="M490.386 350.935C490.401 351.131 490.338 351.325 490.21 351.475C490.082 351.624 489.901 351.717 489.705 351.732C489.519 351.759 489.33 351.716 489.174 351.612C489.018 351.507 488.906 351.349 488.859 351.167L488.118 346.117L490.216 346.172L490.386 350.935Z" fill="#15247C"/>
<path d="M482.736 339.931C482.453 339.967 482.167 339.967 481.884 339.931C481.832 339.932 481.78 339.923 481.732 339.903C481.684 339.883 481.641 339.854 481.605 339.816C481.569 339.779 481.541 339.734 481.524 339.685C481.506 339.636 481.499 339.584 481.503 339.532C481.507 339.48 481.521 339.43 481.546 339.384C481.571 339.338 481.605 339.298 481.646 339.266C481.687 339.235 481.734 339.212 481.785 339.199C481.835 339.187 481.888 339.185 481.939 339.195C481.994 339.195 485.339 339.365 486.762 337.151C486.786 337.11 486.82 337.074 486.859 337.046C486.899 337.019 486.943 336.998 486.99 336.989C487.038 336.978 487.086 336.978 487.134 336.987C487.181 336.995 487.226 337.014 487.266 337.041C487.308 337.067 487.344 337.1 487.373 337.14C487.401 337.179 487.421 337.224 487.432 337.272C487.443 337.32 487.444 337.369 487.435 337.417C487.427 337.465 487.409 337.511 487.382 337.552C486.135 339.45 483.922 339.876 482.736 339.931Z" fill="#FC9D9D"/>
<path d="M470.148 356.38C470.438 356.379 470.722 356.291 470.963 356.129C471.205 355.966 471.392 355.736 471.503 355.467C471.613 355.198 471.641 354.902 471.584 354.617C471.526 354.332 471.386 354.07 471.18 353.864C470.974 353.659 470.711 353.519 470.426 353.464C470.141 353.407 469.845 353.437 469.577 353.548C469.308 353.66 469.079 353.849 468.917 354.091C468.756 354.332 468.67 354.617 468.67 354.908C468.67 355.102 468.708 355.293 468.782 355.472C468.857 355.652 468.965 355.814 469.103 355.951C469.24 356.088 469.403 356.196 469.583 356.27C469.762 356.343 469.954 356.381 470.148 356.38Z" fill="black"/>
<path d="M469.472 355.078C469.563 355.078 469.649 355.042 469.713 354.978C469.777 354.914 469.813 354.828 469.813 354.737C469.813 354.647 469.777 354.56 469.713 354.496C469.649 354.433 469.563 354.397 469.472 354.397C469.382 354.397 469.295 354.433 469.232 354.496C469.168 354.56 469.132 354.647 469.132 354.737C469.132 354.828 469.168 354.914 469.232 354.978C469.295 355.042 469.382 355.078 469.472 355.078Z" fill="white"/>
<path d="M481.483 355.534C481.775 355.535 482.062 355.45 482.306 355.288C482.55 355.127 482.74 354.896 482.852 354.626C482.966 354.356 482.995 354.058 482.939 353.771C482.883 353.484 482.742 353.22 482.536 353.013C482.329 352.805 482.066 352.664 481.78 352.606C481.493 352.549 481.195 352.578 480.925 352.69C480.655 352.802 480.424 352.991 480.261 353.234C480.098 353.477 480.011 353.763 480.011 354.056C480.011 354.447 480.166 354.822 480.442 355.099C480.718 355.376 481.092 355.532 481.483 355.534Z" fill="black"/>
<path d="M480.808 354.281C480.875 354.281 480.941 354.261 480.997 354.224C481.053 354.186 481.097 354.133 481.122 354.071C481.148 354.009 481.155 353.94 481.142 353.874C481.129 353.808 481.096 353.747 481.049 353.7C481.001 353.652 480.94 353.619 480.874 353.607C480.809 353.593 480.74 353.6 480.678 353.626C480.615 353.652 480.562 353.695 480.525 353.751C480.487 353.807 480.467 353.873 480.467 353.941C480.467 354.031 480.503 354.118 480.567 354.181C480.631 354.245 480.718 354.281 480.808 354.281Z" fill="white"/>
<path opacity="0.3" d="M476.551 361.885L477.767 361.77C477.88 361.762 477.986 361.711 478.06 361.625C478.135 361.54 478.173 361.43 478.166 361.316C478.158 361.203 478.107 361.098 478.022 361.023C477.937 360.948 477.826 360.911 477.713 360.918L476.496 361.034C476.377 361.041 476.257 361.025 476.143 360.986C476.029 360.947 475.925 360.886 475.835 360.807C475.745 360.728 475.671 360.631 475.618 360.524C475.565 360.416 475.534 360.299 475.526 360.179C475.519 360.059 475.535 359.939 475.574 359.825C475.613 359.712 475.674 359.607 475.753 359.516C475.832 359.426 475.928 359.353 476.036 359.3C476.144 359.247 476.261 359.216 476.381 359.209C476.437 359.205 476.491 359.19 476.542 359.165C476.592 359.141 476.637 359.106 476.674 359.064C476.711 359.022 476.739 358.973 476.757 358.92C476.775 358.867 476.783 358.811 476.779 358.755C476.775 358.699 476.761 358.645 476.737 358.594C476.712 358.544 476.678 358.499 476.635 358.462C476.593 358.425 476.544 358.397 476.491 358.379C476.438 358.361 476.382 358.353 476.326 358.357C476.097 358.369 475.873 358.427 475.667 358.529C475.461 358.631 475.279 358.774 475.13 358.948C474.981 359.123 474.87 359.327 474.803 359.546C474.736 359.765 474.714 359.996 474.739 360.224C474.737 360.456 474.784 360.686 474.876 360.899C474.969 361.111 475.105 361.302 475.276 361.458C475.447 361.615 475.649 361.734 475.868 361.807C476.088 361.881 476.321 361.907 476.551 361.885Z" fill="black"/>
<path d="M485.569 350.145L479.16 350.485L478.308 350.54L472.695 350.881H472.641L465.44 351.276C465.16 351.292 464.886 351.364 464.634 351.487C464.382 351.611 464.156 351.783 463.971 351.994C463.786 352.205 463.645 352.451 463.556 352.717C463.467 352.984 463.431 353.265 463.452 353.545L463.567 355.194C463.676 356.7 464.372 358.103 465.504 359.102C466.636 360.101 468.114 360.616 469.622 360.536C471.129 360.456 472.545 359.788 473.566 358.676C474.586 357.563 475.13 356.095 475.079 354.585L474.964 352.943C474.936 352.491 474.756 352.063 474.453 351.726L476.667 351.611C476.411 351.994 476.291 352.453 476.326 352.912L476.442 354.561C476.482 355.317 476.67 356.057 476.996 356.74C477.322 357.423 477.779 358.035 478.342 358.541C478.904 359.047 479.561 359.437 480.274 359.69C480.987 359.942 481.743 360.052 482.498 360.012C483.254 359.972 483.994 359.784 484.677 359.457C485.36 359.131 485.971 358.674 486.477 358.111C486.983 357.549 487.374 356.892 487.626 356.178C487.878 355.464 487.987 354.708 487.947 353.953L487.838 352.31C487.844 352.015 487.788 351.723 487.675 351.451C487.561 351.178 487.393 350.932 487.179 350.729C486.966 350.525 486.713 350.368 486.436 350.267C486.159 350.167 485.864 350.125 485.569 350.145ZM474.112 352.925L474.228 354.567C474.265 355.206 474.176 355.846 473.966 356.451C473.756 357.056 473.429 357.613 473.003 358.091C472.577 358.569 472.062 358.959 471.486 359.238C470.91 359.517 470.285 359.68 469.646 359.717C469.007 359.754 468.367 359.665 467.762 359.454C467.158 359.244 466.601 358.917 466.123 358.491C465.645 358.066 465.256 357.55 464.976 356.974C464.698 356.398 464.535 355.772 464.498 355.133L464.382 353.49C464.369 353.15 464.488 352.818 464.715 352.563C464.942 352.309 465.259 352.153 465.599 352.128L472.799 351.732H472.86C473.021 351.727 473.181 351.755 473.331 351.812C473.481 351.869 473.619 351.956 473.735 352.067C473.851 352.178 473.945 352.311 474.01 352.458C474.075 352.605 474.109 352.764 474.112 352.925ZM487.108 353.831C487.183 355.122 486.743 356.39 485.883 357.355C485.024 358.321 483.816 358.906 482.526 358.981C481.236 359.055 479.969 358.615 479.003 357.755C478.038 356.896 477.453 355.688 477.378 354.397L477.262 352.754C477.249 352.414 477.368 352.081 477.595 351.827C477.822 351.573 478.139 351.417 478.479 351.392L479.33 351.337L485.734 350.996C486.07 350.98 486.399 351.095 486.653 351.316C486.906 351.537 487.065 351.847 487.096 352.182L487.108 353.831Z" fill="#15247C"/>
<path d="M472.921 364.209L480.127 363.698C480.169 363.697 480.211 363.706 480.25 363.724C480.289 363.741 480.323 363.767 480.349 363.8C480.376 363.833 480.396 363.871 480.405 363.913C480.415 363.954 480.416 363.997 480.407 364.039C480.183 364.847 479.716 365.567 479.069 366.102C478.422 366.636 477.627 366.958 476.791 367.024C475.955 367.091 475.119 366.899 474.396 366.473C473.673 366.048 473.098 365.411 472.75 364.647V364.586C472.728 364.552 472.716 364.512 472.713 364.471C472.711 364.431 472.718 364.39 472.735 364.352C472.752 364.315 472.777 364.283 472.81 364.258C472.842 364.233 472.88 364.216 472.921 364.209Z" fill="white"/>
<path opacity="0.3" d="M460.107 356.1C459.998 356.095 459.894 356.053 459.813 355.981C459.731 355.909 459.676 355.812 459.657 355.705L459.541 354.792C459.521 354.057 459.239 353.354 458.744 352.809C458.653 352.726 458.545 352.664 458.428 352.625C458.31 352.586 458.187 352.572 458.064 352.584C457.952 352.604 457.836 352.579 457.742 352.516C457.648 352.452 457.582 352.355 457.559 352.243C457.535 352.131 457.557 352.015 457.621 351.918C457.683 351.823 457.781 351.755 457.894 351.732C458.373 351.677 458.858 351.798 459.256 352.073C459.61 352.397 459.894 352.79 460.09 353.229C460.286 353.667 460.389 354.141 460.393 354.622L460.502 355.534C460.507 355.659 460.471 355.781 460.4 355.884C460.328 355.986 460.225 356.062 460.107 356.1Z" fill="black"/>
<path opacity="0.3" d="M491.298 353.776C491.409 353.764 491.512 353.71 491.585 353.625C491.658 353.541 491.697 353.432 491.693 353.32V352.414C491.63 352.056 491.642 351.689 491.73 351.337C491.818 350.985 491.98 350.655 492.204 350.37C492.285 350.265 492.388 350.18 492.506 350.121C492.624 350.062 492.753 350.031 492.885 350.029C492.994 350.023 493.098 349.982 493.179 349.91C493.261 349.838 493.316 349.741 493.335 349.633C493.331 349.524 493.289 349.419 493.217 349.337C493.145 349.254 493.048 349.198 492.94 349.177C492.705 349.183 492.473 349.236 492.259 349.333C492.045 349.43 491.852 349.57 491.693 349.743C491.128 350.315 490.897 351.221 490.958 352.468V353.375C490.842 353.606 491.012 353.776 491.298 353.776Z" fill="black"/>
<path d="M475.475 416.033C463.828 416.033 452.444 412.578 442.76 406.106C433.077 399.633 425.529 390.434 421.072 379.67C416.615 368.907 415.449 357.063 417.722 345.636C419.994 334.21 425.602 323.714 433.837 315.476C442.072 307.238 452.564 301.628 463.987 299.355C475.41 297.082 487.249 298.249 498.009 302.707C508.769 307.166 517.965 314.716 524.435 324.402C530.906 334.089 534.359 345.478 534.359 357.128C534.342 372.745 528.132 387.718 517.093 398.761C506.054 409.804 491.086 416.015 475.475 416.033ZM475.475 299.543C464.089 299.542 452.959 302.918 443.492 309.245C434.024 315.572 426.645 324.565 422.287 335.087C417.929 345.609 416.788 357.188 419.009 368.359C421.229 379.529 426.712 389.791 434.762 397.844C442.812 405.899 453.07 411.383 464.236 413.606C475.403 415.829 486.977 414.689 497.497 410.33C508.015 405.972 517.006 398.591 523.332 389.121C529.657 379.651 533.034 368.517 533.034 357.128C533.016 341.862 526.946 327.227 516.156 316.431C505.365 305.636 490.736 299.563 475.475 299.543ZM475.475 411.404C464.744 411.404 454.254 408.22 445.331 402.257C436.409 396.293 429.454 387.816 425.348 377.898C421.241 367.981 420.167 357.068 422.26 346.539C424.354 336.011 429.521 326.34 437.109 318.75C444.697 311.159 454.365 305.99 464.89 303.895C475.414 301.801 486.324 302.876 496.238 306.984C506.152 311.092 514.626 318.049 520.588 326.974C526.549 335.9 529.732 346.393 529.732 357.128C529.714 371.518 523.992 385.312 513.821 395.487C503.649 405.662 489.859 411.386 475.475 411.404ZM475.475 304.179C465.011 304.179 454.782 307.282 446.081 313.098C437.38 318.914 430.599 327.179 426.595 336.85C422.591 346.521 421.543 357.163 423.585 367.429C425.626 377.695 430.665 387.126 438.064 394.527C445.463 401.929 454.89 406.969 465.153 409.012C475.416 411.054 486.054 410.006 495.722 406C505.389 401.994 513.652 395.211 519.465 386.508C525.279 377.804 528.382 367.571 528.382 357.104C528.364 343.071 522.784 329.619 512.866 319.695C502.949 309.772 489.502 304.187 475.475 304.167V304.179Z" fill="#4DD188"/>
<path d="M539.103 445.598H411.846C411.529 445.583 411.228 445.45 411.003 445.225C410.778 445 410.645 444.699 410.63 444.381V436.473C410.645 436.155 410.778 435.854 411.003 435.629C411.228 435.404 411.529 435.271 411.846 435.256H539.103C539.421 435.271 539.722 435.404 539.946 435.629C540.171 435.854 540.304 436.155 540.319 436.473V444.381C540.319 444.704 540.191 445.013 539.963 445.242C539.735 445.47 539.426 445.598 539.103 445.598Z" fill="white"/>
<path d="M539.103 467.498H411.846C411.529 467.484 411.228 467.35 411.003 467.125C410.778 466.9 410.645 466.6 410.63 466.281V458.373C410.645 458.055 410.778 457.755 411.003 457.529C411.228 457.304 411.529 457.171 411.846 457.156H539.103C539.421 457.171 539.722 457.304 539.946 457.529C540.171 457.755 540.304 458.055 540.319 458.373V466.281C540.319 466.604 540.191 466.914 539.963 467.142C539.735 467.37 539.426 467.498 539.103 467.498Z" fill="white"/>
<path d="M508.393 500.932H442.575C441.58 500.93 440.627 500.534 439.924 499.831C439.22 499.127 438.824 498.174 438.823 497.179V486.436C438.823 485.44 439.218 484.485 439.922 483.781C440.626 483.078 441.58 482.682 442.575 482.682H508.393C509.388 482.682 510.342 483.078 511.045 483.781C511.749 484.485 512.145 485.44 512.145 486.436V497.179C512.15 497.673 512.057 498.164 511.87 498.622C511.684 499.08 511.408 499.496 511.058 499.846C510.709 500.195 510.293 500.472 509.835 500.658C509.377 500.845 508.886 500.938 508.393 500.932Z" fill="#298EE0"/>
<path d="M440.72 546.94C437.594 546.94 434.596 545.699 432.385 543.487C430.174 541.277 428.931 538.278 428.929 535.151C428.929 532.022 430.171 529.022 432.382 526.81C434.594 524.598 437.593 523.355 440.72 523.355C443.847 523.357 446.844 524.6 449.054 526.812C451.265 529.024 452.506 532.023 452.506 535.151C452.506 538.278 451.264 541.276 449.054 543.487C446.844 545.698 443.846 546.94 440.72 546.94Z" fill="white"/>
<path d="M438.92 542.274H441.791V535.09H443.792L444.01 532.657H441.791V531.288C441.791 530.722 441.906 530.497 442.454 530.497H444.01V528.033H442.022C439.887 528.033 438.92 528.976 438.92 530.777V532.693H437.431V535.126H438.92V542.274Z" fill="#298EE0"/>
<path d="M476.928 546.94C473.802 546.94 470.805 545.698 468.594 543.487C466.385 541.276 465.143 538.278 465.143 535.151C465.143 532.023 466.384 529.024 468.594 526.812C470.804 524.6 473.802 523.357 476.928 523.355C480.055 523.355 483.054 524.598 485.266 526.81C487.477 529.022 488.72 532.022 488.72 535.151C488.718 538.278 487.475 541.277 485.264 543.487C483.053 545.699 480.055 546.94 476.928 546.94Z" fill="white"/>
<path d="M476.928 530.175C478.546 530.175 478.752 530.175 479.361 530.211C479.745 530.217 480.126 530.289 480.486 530.424C480.748 530.523 480.987 530.676 481.185 530.874C481.383 531.073 481.536 531.311 481.635 531.574C481.77 531.934 481.842 532.315 481.848 532.699C481.848 533.338 481.884 533.533 481.884 535.133C481.884 536.732 481.884 536.958 481.848 537.566C481.842 537.95 481.77 538.331 481.635 538.691C481.535 538.952 481.38 539.189 481.182 539.388C480.984 539.586 480.747 539.74 480.486 539.841C480.126 539.976 479.745 540.046 479.361 540.048C478.752 540.078 478.527 540.084 476.928 540.084C475.329 540.084 475.104 540.084 474.496 540.048C474.111 540.046 473.73 539.976 473.37 539.841C473.107 539.742 472.868 539.587 472.671 539.385C472.473 539.188 472.32 538.952 472.221 538.691C472.086 538.331 472.016 537.95 472.014 537.566C472.014 536.921 471.978 536.732 471.978 535.133C471.978 533.533 471.978 533.308 472.014 532.699C472.016 532.315 472.086 531.934 472.221 531.574C472.318 531.309 472.474 531.07 472.677 530.874C472.872 530.673 473.109 530.518 473.37 530.418C473.732 530.289 474.112 530.219 474.496 530.211C475.104 530.181 475.329 530.175 476.928 530.175ZM476.928 529.086C475.28 529.086 475.104 529.086 474.429 529.122C473.926 529.129 473.428 529.223 472.957 529.402C472.56 529.557 472.202 529.796 471.905 530.102C471.594 530.403 471.354 530.771 471.206 531.178C471.026 531.649 470.929 532.147 470.92 532.651C470.889 533.295 470.883 533.502 470.883 535.151C470.883 536.799 470.883 536.976 470.92 537.651C470.932 538.154 471.027 538.651 471.199 539.123C471.355 539.528 471.596 539.896 471.905 540.2C472.207 540.51 472.575 540.749 472.981 540.9C473.452 541.078 473.95 541.175 474.453 541.185C475.098 541.185 475.304 541.222 476.952 541.222C478.6 541.222 478.777 541.222 479.452 541.185C479.955 541.175 480.453 541.078 480.923 540.9C481.33 540.749 481.698 540.51 482 540.2C482.306 539.896 482.545 539.532 482.699 539.129C482.872 538.657 482.967 538.16 482.979 537.657C483.009 537.006 483.015 536.805 483.015 535.157C483.015 533.508 483.015 533.301 482.979 532.657C482.97 532.154 482.875 531.656 482.699 531.184C482.545 530.78 482.307 530.412 482 530.108C481.695 529.8 481.328 529.562 480.923 529.408C480.453 529.232 479.955 529.137 479.452 529.128C478.807 529.128 478.6 529.092 476.952 529.092" fill="#298EE0"/>
<path d="M476.928 532.036C476.312 532.036 475.71 532.219 475.198 532.561C474.686 532.903 474.287 533.39 474.051 533.959C473.816 534.528 473.754 535.154 473.874 535.759C473.994 536.363 474.291 536.917 474.726 537.353C475.161 537.789 475.717 538.085 476.32 538.206C476.924 538.326 477.55 538.264 478.119 538.028C478.689 537.793 479.174 537.393 479.517 536.881C479.859 536.369 480.042 535.767 480.042 535.151C480.042 534.325 479.713 533.533 479.129 532.949C478.546 532.364 477.754 532.036 476.928 532.036ZM476.928 537.17C476.527 537.172 476.134 537.054 475.801 536.832C475.467 536.61 475.206 536.293 475.052 535.923C474.898 535.552 474.857 535.145 474.935 534.751C475.013 534.358 475.206 533.996 475.49 533.712C475.773 533.429 476.135 533.236 476.528 533.158C476.921 533.079 477.329 533.12 477.7 533.274C478.07 533.429 478.386 533.689 478.608 534.023C478.83 534.357 478.948 534.75 478.947 535.151C478.947 535.416 478.895 535.679 478.793 535.924C478.692 536.169 478.543 536.391 478.355 536.579C478.168 536.767 477.945 536.915 477.7 537.017C477.455 537.118 477.193 537.17 476.928 537.17Z" fill="#298EE0"/>
<path d="M480.893 531.915C480.893 532.059 480.85 532.2 480.77 532.32C480.69 532.44 480.576 532.534 480.443 532.589C480.309 532.644 480.163 532.659 480.021 532.631C479.879 532.603 479.749 532.533 479.647 532.43C479.545 532.329 479.476 532.199 479.448 532.057C479.42 531.915 479.434 531.769 479.489 531.635C479.544 531.502 479.638 531.388 479.758 531.307C479.878 531.227 480.019 531.185 480.163 531.185C480.259 531.184 480.354 531.202 480.444 531.239C480.533 531.275 480.613 531.329 480.681 531.396C480.749 531.464 480.803 531.545 480.839 531.634C480.876 531.723 480.894 531.818 480.893 531.915Z" fill="#298EE0"/>
<path d="M513.136 546.94C510.01 546.94 507.013 545.698 504.802 543.487C502.592 541.276 501.35 538.278 501.35 535.151C501.35 532.022 502.593 529.022 504.804 526.81C507.015 524.598 510.014 523.355 513.142 523.355C516.268 523.357 519.266 524.6 521.476 526.812C523.686 529.024 524.927 532.023 524.927 535.151C524.926 538.278 523.683 541.277 521.471 543.487C519.26 545.699 516.262 546.94 513.136 546.94Z" fill="white"/>
<path d="M506.106 539.592C507.374 540.403 508.841 540.85 510.345 540.884C511.85 540.918 513.335 540.537 514.638 539.784C515.942 539.03 517.013 537.933 517.734 536.611C518.456 535.29 518.8 533.796 518.731 532.292C519.297 531.884 519.785 531.377 520.172 530.795C519.645 531.031 519.085 531.185 518.512 531.251C519.117 530.894 519.569 530.327 519.783 529.658C519.218 529.992 518.602 530.229 517.958 530.357C517.523 529.893 516.948 529.586 516.32 529.483C515.693 529.38 515.049 529.486 514.488 529.787C513.928 530.087 513.482 530.563 513.22 531.143C512.958 531.722 512.894 532.372 513.038 532.991C511.89 532.93 510.766 532.628 509.741 532.104C508.717 531.579 507.814 530.846 507.091 529.95C506.723 530.585 506.611 531.337 506.777 532.052C506.943 532.767 507.375 533.392 507.985 533.8C507.527 533.786 507.079 533.664 506.678 533.441C506.669 534.114 506.896 534.769 507.319 535.293C507.742 535.816 508.335 536.175 508.994 536.307C508.568 536.421 508.121 536.437 507.687 536.355C507.872 536.93 508.232 537.432 508.716 537.792C509.2 538.152 509.784 538.351 510.387 538.363C509.789 538.839 509.104 539.193 508.369 539.404C507.635 539.615 506.865 539.679 506.106 539.592Z" fill="#298EE0"/>
<path d="M265.075 573.932C260.21 504.308 254.865 499.715 254.64 499.545L254.981 498.937C255.212 499.052 260.825 502.496 265.799 573.908L265.075 573.932Z" fill="#298EE0"/>
<path d="M270.099 573.932L269.381 573.883C272.574 523.021 269.101 495.281 269.065 495.007L269.776 494.916C269.813 495.189 273.297 522.99 270.099 573.932Z" fill="#298EE0"/>
<path d="M274.471 575.447C270.604 543.728 280.461 519.565 280.552 519.322L281.215 519.602C281.118 519.839 271.327 543.838 275.177 575.362L274.471 575.447Z" fill="#298EE0"/>
<path d="M278.521 579.322C276.909 567.998 276.997 556.498 278.783 545.2L279.488 545.334C277.717 556.551 277.631 567.97 279.233 579.212L278.521 579.322Z" fill="#298EE0"/>
<path d="M280.686 519.894L283.812 519.638C286.033 519.448 288.187 518.784 290.131 517.692C291.079 517.134 292.062 516.639 293.074 516.207C296.942 514.656 301.253 514.936 305.413 514.729C312.227 514.382 318.904 512.673 325.049 509.704C325.408 509.54 325.708 509.268 325.906 508.925C326.545 507.757 325.353 506.717 324.325 506.085C319.059 502.836 313.695 499.545 307.717 497.933C301.74 496.321 294.947 496.595 289.863 500.105C283.879 504.223 281.696 512.685 280.686 519.882" fill="#298EE0"/>
<g opacity="0.3">
<g opacity="0.3">
<path opacity="0.3" d="M325.955 508.567C325.771 508.5 325.594 508.417 325.426 508.317L323.942 507.545C322.659 506.869 320.81 505.872 318.469 504.746C315.745 503.41 312.908 502.317 309.992 501.48C306.426 500.456 302.693 500.155 299.009 500.591C295.32 501.001 291.836 502.499 288.999 504.892C286.782 506.946 285.007 509.43 283.781 512.192C282.931 514.055 282.173 515.96 281.513 517.898C281.282 518.549 281.1 519.079 280.96 519.474C280.902 519.66 280.828 519.841 280.741 520.015C280.763 519.822 280.808 519.632 280.875 519.45C281.002 519.042 281.16 518.513 281.361 517.844C281.964 515.879 282.683 513.951 283.514 512.071C284.717 509.238 286.498 506.687 288.744 504.582C291.629 502.119 295.185 500.576 298.954 500.153C302.709 499.708 306.516 500.029 310.144 501.096C313.081 501.954 315.931 503.084 318.657 504.473C320.986 505.628 322.817 506.669 324.082 507.393L325.529 508.238C325.702 508.327 325.865 508.433 326.016 508.554" fill="black"/>
</g>
</g>
<g opacity="0.3">
<g opacity="0.3">
<path opacity="0.3" d="M318.463 512.594C318.402 512.685 314.309 510.039 309.341 506.681C304.373 503.323 300.359 500.518 300.414 500.427C300.468 500.336 304.567 502.976 309.536 506.334C314.504 509.692 318.505 512.496 318.439 512.594" fill="black"/>
</g>
</g>
<g opacity="0.3">
<g opacity="0.3">
<path opacity="0.3" d="M314.102 500.208C313.143 500.538 312.138 500.719 311.123 500.744C310.113 500.883 309.088 500.871 308.082 500.707C309.071 500.524 310.074 500.42 311.08 500.397C312.088 500.256 313.104 500.192 314.121 500.208" fill="black"/>
</g>
</g>
<g opacity="0.3">
<g opacity="0.3">
<path opacity="0.3" d="M296.193 497.872C296.297 497.921 295.695 498.858 294.855 499.971C294.382 500.694 293.81 501.344 293.153 501.905C293.055 501.857 293.658 500.92 294.497 499.807C294.969 499.085 295.54 498.434 296.193 497.872Z" fill="black"/>
</g>
</g>
<g opacity="0.3">
<g opacity="0.3">
<path opacity="0.3" d="M299.86 515.003C299.17 514.712 298.51 514.353 297.89 513.932C296.71 513.214 295.111 512.168 293.408 510.927C291.705 509.686 290.197 508.494 289.115 507.66C288.506 507.226 287.938 506.738 287.418 506.2C288.077 506.549 288.704 506.956 289.291 507.417L293.651 510.586C295.354 511.803 296.917 512.904 298.054 513.683C298.698 514.069 299.308 514.508 299.879 514.997" fill="black"/>
</g>
</g>
<path d="M289.17 619.283H258.21L252.451 576.791H294.935L289.17 619.283Z" fill="#15247C"/>
<path d="M298.528 583.27H248.851L248.133 573.908H299.252L298.528 583.27Z" fill="#15247C"/>
<path opacity="0.2" d="M253.333 583.27H294.053L289.17 619.283L284.28 618.949L287.011 586.154L253.643 585.588L253.333 583.27Z" fill="black"/>
<g opacity="0.2">
<g opacity="0.2">
<path opacity="0.2" d="M287.899 573.975L286.451 583.27H298.529L299.252 573.908L287.899 573.975Z" fill="black"/>
</g>
</g>
<g opacity="0.2">
<g opacity="0.2">
<path opacity="0.2" d="M292.052 593.965H255.218V594.682H292.052V593.965Z" fill="white"/>
</g>
</g>
<g opacity="0.2">
<g opacity="0.2">
<path opacity="0.2" d="M292.052 596.848H255.218V597.566H292.052V596.848Z" fill="white"/>
</g>
</g>
<path d="M255.486 499.223C252.506 496.96 249.356 496.516 245.616 496.662C241.874 496.91 238.212 497.853 234.815 499.442C228.971 501.997 223.48 505.768 219.989 511.11C216.499 516.451 215.288 523.52 217.897 529.36C218.103 529.968 218.525 530.479 219.083 530.795C219.733 530.981 220.428 530.927 221.041 530.643C227.682 528.477 234.377 526.287 240.501 522.893C246.625 519.498 252.153 514.772 255.413 508.597C256.254 507.14 256.788 505.524 256.981 503.852C257.075 503.016 256.987 502.171 256.725 501.372C256.462 500.573 256.032 499.84 255.461 499.223" fill="#298EE0"/>
<g opacity="0.3">
<g opacity="0.3">
<path opacity="0.3" d="M255.546 498.517C255.395 498.602 255.233 498.667 255.066 498.712L253.673 499.192L252.664 499.527C252.299 499.661 251.91 499.825 251.484 499.989C250.645 500.33 249.66 500.67 248.644 501.169L247.014 501.911C246.449 502.173 245.883 502.52 245.287 502.793C244.071 503.402 242.855 504.144 241.566 504.91C235.995 508.366 231.04 512.727 226.904 517.813C225.979 518.999 225.079 520.113 224.337 521.232C223.96 521.786 223.565 522.309 223.237 522.832L222.294 524.383C221.686 525.338 221.206 526.263 220.762 527.054C220.549 527.449 220.336 527.82 220.154 528.161C219.971 528.502 219.831 528.83 219.691 529.122L219.035 530.442C218.966 530.6 218.882 530.751 218.785 530.892C218.828 530.724 218.887 530.562 218.962 530.406C219.114 530.059 219.302 529.609 219.57 529.049L219.995 528.076C220.166 527.723 220.366 527.352 220.573 526.944C221.005 526.141 221.449 525.198 222.057 524.231L222.987 522.686C223.31 522.151 223.699 521.627 224.07 521.062C224.806 519.93 225.706 518.799 226.63 517.594C230.757 512.442 235.749 508.046 241.383 504.606C242.697 503.846 243.931 503.098 245.148 502.514C245.756 502.216 246.321 501.905 246.893 501.644L248.541 500.92C249.587 500.439 250.572 500.117 251.423 499.794C251.855 499.642 252.25 499.484 252.64 499.369L253.661 499.064L255.078 498.657C255.242 498.604 255.411 498.565 255.583 498.541" fill="black"/>
</g>
</g>
<g opacity="0.3">
<g opacity="0.3">
<path opacity="0.3" d="M232.261 511.128C232.292 511.237 229.05 512.284 225.012 513.464C220.974 514.644 217.678 515.514 217.648 515.404C217.618 515.295 220.859 514.248 224.897 513.068C228.935 511.888 232.231 511.018 232.261 511.128Z" fill="black"/>
</g>
</g>
<g opacity="0.3">
<g opacity="0.3">
<path opacity="0.3" d="M231.963 527.133C231.837 526.385 231.785 525.627 231.805 524.87C231.769 523.477 231.763 521.542 231.805 519.395C231.848 517.248 231.975 515.337 232.091 513.92C232.114 513.162 232.209 512.408 232.377 511.669C232.444 512.422 232.444 513.18 232.377 513.932C232.334 515.465 232.273 517.327 232.213 519.407C232.152 521.488 232.115 523.325 232.073 524.852C232.096 525.609 232.051 526.366 231.939 527.115" fill="black"/>
</g>
</g>
<g opacity="0.3">
<g opacity="0.3">
<path opacity="0.3" d="M245.682 520.125C245.573 520.125 245.208 516.207 244.874 511.359C244.539 506.51 244.357 502.581 244.472 502.568C244.588 502.556 244.953 506.486 245.287 511.334C245.622 516.183 245.78 520.125 245.682 520.125Z" fill="black"/>
</g>
</g>
<g opacity="0.3">
<g opacity="0.3">
<path opacity="0.3" d="M228.613 502.216C229.382 502.117 230.16 502.092 230.936 502.143C232.365 502.143 234.347 502.198 236.53 502.264C238.714 502.331 240.69 502.429 242.119 502.514C242.894 502.516 243.668 502.592 244.43 502.739C243.661 502.83 242.885 502.852 242.113 502.806C240.678 502.806 238.701 502.757 236.512 502.684C234.323 502.611 232.353 502.52 230.923 502.435C230.148 502.429 229.375 502.356 228.613 502.216Z" fill="black"/>
</g>
</g>
<path d="M249.496 484.075L245.683 491.034C245.597 491.199 245.476 491.381 245.293 491.393C245.111 491.406 244.941 491.217 244.831 491.053L234.669 475.455L237.011 474.129L249.496 484.075Z" fill="#298EE0"/>
<g opacity="0.2">
<g opacity="0.2">
<path opacity="0.2" d="M249.496 484.075L245.683 491.034C245.597 491.199 245.476 491.381 245.293 491.393C245.111 491.406 244.941 491.217 244.831 491.053L234.669 475.455L237.011 474.129L249.496 484.075Z" fill="black"/>
</g>
</g>
<path d="M270.099 496.619L235.435 476.167C235.083 475.954 234.693 475.711 234.59 475.315C234.45 474.798 234.833 474.305 235.198 473.922C237.579 471.445 240.465 469.511 243.661 468.251C246.857 466.991 250.286 466.435 253.716 466.622C260.545 467.115 267.094 471.057 270.457 477.037C273.82 483.017 273.911 490.919 270.074 496.595" fill="#298EE0"/>
<g opacity="0.3">
<g opacity="0.3">
<path opacity="0.3" d="M240.447 469.633C240.594 469.599 240.745 469.581 240.897 469.579C241.195 469.579 241.639 469.512 242.21 469.518C243.82 469.493 245.428 469.619 247.014 469.895C252.299 470.785 257.219 473.17 261.194 476.767C265.168 480.364 268.029 485.023 269.442 490.195C269.875 491.749 270.162 493.339 270.3 494.946C270.335 495.281 270.354 495.618 270.354 495.956C270.325 496.225 270.233 496.483 270.087 496.71C270.194 496.132 270.213 495.542 270.141 494.958C269.94 493.375 269.612 491.811 269.162 490.28C267.707 485.193 264.856 480.617 260.933 477.068C257.01 473.52 252.171 471.143 246.966 470.205C245.395 469.906 243.802 469.735 242.204 469.694C241.073 469.694 240.447 469.694 240.447 469.652" fill="black"/>
</g>
</g>
<g opacity="0.3">
<g opacity="0.3">
<path opacity="0.3" d="M265.41 482.5C264.859 482.832 264.271 483.099 263.659 483.296C262.552 483.728 261.013 484.288 259.286 484.836C257.559 485.383 255.978 485.821 254.829 486.101C254.215 486.296 253.58 486.417 252.938 486.46C253.524 486.196 254.135 485.993 254.762 485.851L259.171 484.471L263.561 483.017C264.151 482.785 264.762 482.612 265.386 482.5" fill="black"/>
</g>
</g>
<g opacity="0.3">
<g opacity="0.3">
<path opacity="0.3" d="M259.955 467.839C260.064 467.839 260.314 469.554 260.362 471.708C260.411 473.861 260.259 475.595 260.15 475.589C260.04 475.583 260.004 473.849 259.949 471.714C259.894 469.579 259.839 467.851 259.949 467.839" fill="black"/>
</g>
</g>
<g opacity="0.3">
<g opacity="0.3">
<path opacity="0.3" d="M235.15 475.777C235.961 475.408 236.804 475.111 237.668 474.889C239.243 474.403 241.432 473.788 243.876 473.198C246.321 472.608 248.553 472.158 250.177 471.878C251.046 471.683 251.931 471.562 252.822 471.519C251.974 471.792 251.108 472.007 250.231 472.164C248.626 472.523 246.412 473.016 243.974 473.606C241.535 474.196 239.34 474.761 237.747 475.175C236.896 475.436 236.028 475.639 235.15 475.783" fill="black"/>
</g>
</g>
<path d="M284.603 535.333C281.617 534.549 278.065 537.45 277.451 540.474C276.837 543.497 277.968 546.594 279.275 549.374C282.219 555.542 286.269 561.267 291.614 565.519C296.96 569.771 303.643 572.503 310.466 572.466C309.207 566.608 310.801 560.488 310.101 554.532C309.474 549.298 307.092 544.43 303.346 540.723C299.598 537.015 294.707 534.687 289.468 534.117C287.564 533.91 285.363 533.612 284.603 535.37" fill="#298EE0"/>
<g opacity="0.3">
<g opacity="0.3">
<path opacity="0.3" d="M310.46 572.478C310.311 572.43 310.168 572.365 310.034 572.284C309.642 572.067 309.27 571.817 308.921 571.535C307.672 570.445 306.668 569.101 305.978 567.593C305.498 566.669 304.969 565.665 304.452 564.552C303.935 563.438 303.406 562.246 302.846 560.999C302.266 559.697 301.606 558.431 300.87 557.209C300.064 555.909 299.157 554.674 298.158 553.517C296.114 551.114 293.901 549.039 292.028 547.056C290.309 545.324 288.744 543.446 287.351 541.441C286.415 540.085 285.648 538.62 285.065 537.079C284.87 536.526 284.736 536.1 284.663 535.796C284.626 535.644 284.605 535.489 284.603 535.333C284.639 535.333 284.809 535.942 285.247 537.012C285.881 538.515 286.679 539.943 287.625 541.271C289.039 543.235 290.613 545.078 292.332 546.782C294.235 548.747 296.443 550.816 298.504 553.243C299.517 554.417 300.437 555.671 301.253 556.99C301.992 558.228 302.65 559.512 303.223 560.835L304.792 564.4C305.291 565.507 305.808 566.517 306.27 567.441C306.92 568.933 307.868 570.277 309.055 571.389C309.925 572.144 310.515 572.424 310.49 572.46" fill="black"/>
</g>
</g>
<g opacity="0.3">
<g opacity="0.3">
<path opacity="0.3" d="M295.038 567.611C295.051 566.934 295.142 566.26 295.311 565.604C295.543 564.387 295.92 562.684 296.443 560.847C296.966 559.01 297.513 557.373 297.957 556.199C298.163 555.563 298.436 554.952 298.772 554.374C298.653 555.04 298.473 555.694 298.237 556.327C297.866 557.543 297.361 559.162 296.844 560.993C296.327 562.824 295.901 564.485 295.597 565.695C295.471 566.36 295.284 567.012 295.038 567.642" fill="black"/>
</g>
</g>
<g opacity="0.3">
<g opacity="0.3">
<path opacity="0.3" d="M309.894 553.231C309.182 553.13 308.48 552.967 307.796 552.744C306.507 552.409 304.756 551.953 302.761 551.527C300.766 551.101 298.985 550.736 297.677 550.487C296.963 550.396 296.259 550.242 295.573 550.025C296.295 550.005 297.017 550.065 297.726 550.201C299.045 550.371 300.864 550.676 302.852 551.126C304.841 551.576 306.611 552.081 307.875 552.488C308.575 552.667 309.252 552.925 309.894 553.255" fill="black"/>
</g>
</g>
<g opacity="0.3">
<g opacity="0.3">
<path opacity="0.3" d="M283.994 557.41C284.023 556.624 284.131 555.844 284.317 555.08C284.578 553.656 284.992 551.697 285.533 549.562C286.074 547.427 286.682 545.505 287.151 544.136C287.363 543.381 287.651 542.65 288.008 541.952C287.876 542.723 287.683 543.481 287.43 544.221C287.035 545.614 286.494 547.53 285.934 549.666C285.375 551.801 284.919 553.735 284.584 555.141C284.441 555.912 284.238 556.671 283.976 557.41" fill="black"/>
</g>
</g>
<g opacity="0.3">
<g opacity="0.3">
<path opacity="0.3" d="M303.053 540.693C303.053 540.808 299.319 540.504 294.734 540.018C290.149 539.531 286.451 539.05 286.464 538.935C286.476 538.819 290.197 539.123 294.783 539.61C299.368 540.097 303.065 540.577 303.053 540.693Z" fill="black"/>
</g>
</g>
<path d="M269.868 505.835C269.612 503.122 266.869 501.072 264.139 501.042C261.409 501.011 258.867 502.648 257.2 504.807C255.534 506.967 254.61 509.601 253.862 512.229C252.037 518.629 251.016 525.357 251.806 531.969C252.597 538.582 255.273 545.091 260.016 549.763C260.788 550.523 261.786 551.284 262.844 551.059C263.413 550.882 263.927 550.564 264.34 550.134C268.985 545.881 272.666 540.682 275.137 534.889C277.608 529.095 278.812 522.839 278.667 516.542C278.594 514.03 278.266 511.408 276.873 509.315C275.481 507.222 272.233 504.996 269.868 505.835Z" fill="#298EE0"/>
<g opacity="0.3">
<g opacity="0.3">
<path opacity="0.3" d="M261.494 550.676C261.461 550.523 261.444 550.369 261.445 550.213C261.445 549.86 261.409 549.422 261.384 548.875C261.329 547.719 261.323 546.04 261.384 543.966C261.445 541.891 261.561 539.427 261.81 536.666C262.059 533.904 262.473 530.947 263.026 527.833C263.579 524.718 264.285 521.749 264.996 519.121C265.708 516.493 266.462 514.109 267.155 512.15C267.849 510.191 268.451 508.621 268.907 507.551L269.436 506.334C269.488 506.186 269.557 506.046 269.642 505.914C269.621 506.069 269.579 506.221 269.515 506.364C269.393 506.693 269.241 507.107 269.059 507.624C268.645 508.707 268.086 510.288 267.435 512.253C266.784 514.218 266.073 516.584 265.367 519.225C264.662 521.865 264.005 524.809 263.434 527.912C262.862 531.014 262.473 533.995 262.187 536.714C261.901 539.434 261.749 541.891 261.67 543.96C261.591 546.028 261.554 547.701 261.561 548.826C261.561 549.369 261.561 549.814 261.561 550.158C261.572 550.315 261.559 550.474 261.524 550.627" fill="black"/>
</g>
</g>
<g opacity="0.3">
<g opacity="0.3">
<path opacity="0.3" d="M263.318 527.979C262.914 528.533 262.451 529.044 261.938 529.499C261.038 530.394 259.767 531.592 258.289 532.87C256.811 534.147 255.479 535.248 254.476 536.021C253.96 536.471 253.395 536.863 252.791 537.189C253.247 536.677 253.75 536.208 254.293 535.79L258.015 532.553L261.713 529.286C262.196 528.8 262.726 528.362 263.294 527.979" fill="black"/>
</g>
</g>
<g opacity="0.3">
<g opacity="0.3">
<path opacity="0.3" d="M274.295 536.818C273.754 536.176 273.262 535.495 272.823 534.78L269.399 529.779L265.903 524.833C265.387 524.17 264.919 523.471 264.504 522.741C265.106 523.329 265.653 523.97 266.14 524.657C267.101 525.874 268.384 527.595 269.74 529.524C271.096 531.452 272.258 533.277 273.072 534.603C273.543 535.297 273.95 536.032 274.289 536.799" fill="black"/>
</g>
</g>
<g opacity="0.3">
<g opacity="0.3">
<path opacity="0.3" d="M268.554 509.023C268.615 509.12 264.972 511.578 260.418 514.498C255.863 517.418 252.117 519.724 252.056 519.626C251.995 519.529 255.638 517.077 260.192 514.151C264.747 511.225 268.487 508.926 268.554 509.017" fill="black"/>
</g>
</g>
<g opacity="0.3">
<g opacity="0.3">
<path opacity="0.3" d="M278.825 520.125C278.746 520.204 276.277 517.923 273.316 515.027C270.354 512.131 268.013 509.722 268.092 509.637C268.171 509.552 270.64 511.839 273.602 514.735C276.563 517.631 278.904 520.04 278.825 520.125Z" fill="black"/>
</g>
</g>
<path d="M286.232 312.221H223.042V399.675H286.232V312.221Z" fill="white"/>
<path d="M277.797 320.312H231.483V391.578H277.797V320.312Z" fill="#4DD188"/>
<path d="M288.129 312.178H286.293V399.632H288.129V312.178Z" fill="#4DD188"/>
<path opacity="0.6" d="M277.797 320.312H231.483V391.578H277.797V320.312Z" fill="white"/>
<path opacity="0.6" d="M288.129 312.178H286.293V399.632H288.129V312.178Z" fill="white"/>
<path d="M265.513 345.54H243.821V379.983H265.513V345.54Z" fill="#4DD188"/>
<path d="M254.671 341.226C257.507 341.226 260.228 340.103 262.239 338.103C264.25 336.102 265.388 333.387 265.404 330.55H243.992C243.992 331.953 244.268 333.341 244.805 334.637C245.341 335.933 246.128 337.11 247.12 338.101C248.111 339.093 249.289 339.879 250.585 340.415C251.88 340.951 253.268 341.227 254.671 341.226Z" fill="white"/>
<path d="M339.036 214.133H279.385V300.62H339.036V214.133Z" fill="#298EE0"/>
<path opacity="0.6" d="M339.036 214.133H279.385V300.62H339.036V214.133Z" fill="white"/>
<path d="M335.764 214.133H276.113V300.62H335.764V214.133Z" fill="white"/>
<path d="M328.509 223.24H283.526V291.045H328.509V223.24Z" fill="#298EE0"/>
<path opacity="0.6" d="M328.509 223.24H283.526V291.045H328.509V223.24Z" fill="white"/>
<path d="M313.525 235.826H298.516V278.465H313.525V235.826Z" fill="#298EE0"/>
<path d="M313.525 235.826H298.516V278.465H313.525V235.826Z" fill="#298EE0"/>
<path d="M298.516 261.425C297.494 261.425 296.494 261.122 295.645 260.554C294.795 259.986 294.132 259.178 293.741 258.233C293.35 257.289 293.247 256.249 293.446 255.246C293.646 254.243 294.139 253.321 294.861 252.598C295.584 251.875 296.505 251.382 297.508 251.183C298.51 250.983 299.55 251.086 300.495 251.477C301.439 251.868 302.246 252.531 302.814 253.382C303.382 254.232 303.685 255.232 303.685 256.254C303.684 257.626 303.139 258.94 302.169 259.909C301.201 260.878 299.887 261.423 298.516 261.425Z" fill="white"/>
<path d="M839.231 482.877H714.17V589.019H823.912L839.231 482.877Z" fill="#298EE0"/>
<path opacity="0.51" d="M839.231 482.877H714.17V589.019H823.912L839.231 482.877Z" fill="white"/>
<path d="M719.077 580.94H825.08L825.183 580.198H719.868V498.541H836.974L837.09 497.738L719.077 497.653V580.94Z" fill="#298EE0"/>
<path d="M839.474 481.192H710.254C709.81 481.192 709.378 481.369 709.062 481.685C708.745 482.001 708.569 482.43 708.569 482.877C708.569 483.324 708.745 483.752 709.062 484.069C709.378 484.384 709.81 484.562 710.254 484.562H838.988L839.474 481.192Z" fill="#298EE0"/>
<path d="M831.307 538.746H719.102V539.537H831.307V538.746Z" fill="#298EE0"/>
<path d="M787.072 512.825C787.589 512.825 788.1 512.671 788.532 512.382C788.963 512.093 789.298 511.683 789.499 511.203C789.699 510.723 789.748 510.194 789.651 509.684C789.547 509.174 789.298 508.706 788.927 508.338C788.562 507.971 788.094 507.721 787.583 507.619C787.072 507.518 786.549 507.57 786.069 507.769C785.588 507.968 785.175 508.304 784.889 508.737C784.597 509.169 784.445 509.677 784.445 510.197C784.445 510.894 784.719 511.563 785.211 512.055C785.704 512.548 786.373 512.825 787.072 512.825Z" fill="#298EE0"/>
<g opacity="0.15">
<g opacity="0.15">
<path opacity="0.15" d="M788.063 510.191C788.063 509.644 787.887 509.111 787.564 508.667C787.248 508.222 786.792 507.89 786.275 507.715C786.543 507.614 786.835 507.562 787.12 507.563C787.82 507.563 788.483 507.84 788.975 508.333C789.474 508.825 789.748 509.494 789.748 510.191C789.748 510.888 789.474 511.557 788.975 512.049C788.483 512.542 787.82 512.819 787.12 512.819C786.835 512.822 786.549 512.773 786.275 512.673C786.792 512.489 787.236 512.154 787.558 511.711C787.875 511.267 788.051 510.737 788.063 510.191Z" fill="black"/>
</g>
</g>
<path d="M787.072 553.772C787.589 553.772 788.1 553.618 788.532 553.329C788.963 553.04 789.298 552.63 789.499 552.15C789.699 551.67 789.748 551.141 789.651 550.631C789.547 550.121 789.298 549.653 788.927 549.285C788.562 548.918 788.094 548.668 787.583 548.566C787.072 548.465 786.549 548.517 786.069 548.716C785.588 548.915 785.175 549.252 784.889 549.684C784.597 550.116 784.445 550.624 784.445 551.144C784.445 551.84 784.725 552.508 785.217 553.001C785.71 553.493 786.373 553.77 787.072 553.772Z" fill="#298EE0"/>
<g opacity="0.15">
<g opacity="0.15">
<path opacity="0.15" d="M788.063 551.15C788.063 550.601 787.887 550.067 787.57 549.622C787.248 549.177 786.792 548.843 786.275 548.668C786.549 548.568 786.835 548.519 787.12 548.522C787.467 548.522 787.808 548.59 788.124 548.722C788.446 548.854 788.732 549.048 788.975 549.292C789.225 549.536 789.413 549.826 789.547 550.145C789.681 550.463 789.748 550.805 789.748 551.15C789.748 551.495 789.681 551.837 789.547 552.156C789.413 552.474 789.225 552.765 788.975 553.009C788.732 553.252 788.446 553.446 788.124 553.578C787.808 553.71 787.467 553.778 787.12 553.778C786.835 553.782 786.543 553.731 786.275 553.626C786.798 553.455 787.248 553.124 787.57 552.679C787.893 552.234 788.063 551.699 788.063 551.15Z" fill="black"/>
</g>
</g>
<path d="M838.988 484.562H714.17V486.198L838.531 487.762L838.988 484.562Z" fill="#298EE0"/>
<path d="M717.946 589.067H726.278L718.591 619.362C718.476 619.697 718.257 619.983 717.965 620.19C717.679 620.39 717.332 620.5 716.979 620.5C716.724 620.5 716.469 620.439 716.238 620.33C716.013 620.22 715.806 620.056 715.648 619.855C715.484 619.66 715.368 619.429 715.307 619.18C715.246 618.93 715.246 618.669 715.295 618.419L717.946 589.067Z" fill="#298EE0"/>
<path opacity="0.51" d="M717.946 589.067H726.278L718.591 619.362C718.476 619.697 718.257 619.983 717.965 620.19C717.679 620.39 717.332 620.5 716.979 620.5C716.724 620.5 716.469 620.439 716.238 620.33C716.013 620.22 715.806 620.056 715.648 619.855C715.484 619.66 715.368 619.429 715.307 619.18C715.246 618.93 715.246 618.669 715.295 618.419L717.946 589.067Z" fill="white"/>
<path d="M722.452 592.292L717.77 591.318L717.971 589.067H726.302L718.877 618.31C718.421 619.965 717.983 620.5 716.979 620.5L722.452 592.292Z" fill="#298EE0"/>
<path d="M750.147 589.067L747.471 618.419C747.422 618.669 747.422 618.93 747.483 619.18C747.544 619.429 747.659 619.66 747.824 619.855C747.982 620.056 748.188 620.22 748.419 620.33C748.644 620.439 748.9 620.5 749.155 620.5C749.514 620.506 749.861 620.397 750.159 620.196C750.451 619.989 750.67 619.697 750.791 619.362L758.472 589.067H750.147Z" fill="#298EE0"/>
<path opacity="0.51" d="M839.474 481.192H710.254C709.81 481.192 709.378 481.369 709.062 481.685C708.745 482.001 708.569 482.43 708.569 482.877C708.569 483.324 708.745 483.752 709.062 484.069C709.378 484.384 709.81 484.562 710.254 484.562H838.988L839.474 481.192Z" fill="white"/>
<path opacity="0.51" d="M750.147 589.067L747.471 618.419C747.422 618.669 747.422 618.93 747.483 619.18C747.544 619.429 747.659 619.66 747.824 619.855C747.982 620.056 748.188 620.22 748.419 620.33C748.644 620.439 748.9 620.5 749.155 620.5C749.514 620.506 749.861 620.397 750.159 620.196C750.451 619.989 750.67 619.697 750.791 619.362L758.472 589.067H750.147Z" fill="white"/>
<path d="M751.588 604.683L748.76 603.99L750.098 589.067H758.472L750.791 619.362C750.67 619.697 750.451 619.989 750.159 620.196C749.861 620.397 749.514 620.506 749.155 620.5H749.058L751.588 604.683Z" fill="#298EE0"/>
<path d="M799.648 470.479H759.755V480.912H799.648C800.998 480.866 802.281 480.296 803.224 479.323C804.16 478.35 804.689 477.049 804.689 475.695C804.689 474.342 804.16 473.041 803.224 472.068C802.281 471.095 800.998 470.525 799.648 470.479Z" fill="#15247C"/>
<path opacity="0.2" d="M799.648 470.479H759.755V480.912H799.648C800.998 480.866 802.281 480.296 803.224 479.323C804.16 478.35 804.689 477.049 804.689 475.695C804.689 474.342 804.16 473.041 803.224 472.068C802.281 471.095 800.998 470.525 799.648 470.479Z" fill="white"/>
<path d="M763.081 480.912H742.904V479.422H749.155V472.024H742.904V470.479H763.081C764.431 470.525 765.715 471.095 766.657 472.068C767.594 473.041 768.123 474.342 768.123 475.695C768.123 477.049 767.594 478.35 766.657 479.323C765.715 480.296 764.431 480.866 763.081 480.912Z" fill="#15247C"/>
<path d="M744.394 479.367H763.02C763.993 479.367 764.93 478.98 765.617 478.291C766.304 477.603 766.694 476.669 766.694 475.695C766.694 474.721 766.304 473.787 765.617 473.099C764.93 472.411 763.993 472.024 763.02 472.024H744.394V479.367Z" fill="white"/>
<path d="M805.607 462.449H772.319V470.479H805.62C805.802 470.48 805.978 470.445 806.149 470.376C806.313 470.307 806.465 470.206 806.593 470.078C806.72 469.95 806.824 469.798 806.891 469.631C806.958 469.464 806.994 469.285 806.994 469.104V463.83C806.994 463.465 806.848 463.115 806.593 462.857C806.465 462.728 806.313 462.625 806.149 462.555C805.978 462.485 805.802 462.449 805.62 462.449" fill="#15247C"/>
<path opacity="0.2" d="M786.695 465.144H798.158C798.31 465.153 798.456 465.221 798.566 465.334C798.669 465.447 798.73 465.597 798.73 465.752V467.522C798.73 467.674 798.669 467.819 798.56 467.927C798.456 468.034 798.31 468.094 798.158 468.094H786.695C786.537 468.094 786.391 468.035 786.275 467.929C786.166 467.823 786.093 467.678 786.087 467.522V465.752C786.087 465.591 786.148 465.436 786.263 465.322C786.379 465.208 786.531 465.144 786.695 465.144Z" fill="black"/>
<path d="M759.414 470.479H777.524C777.707 470.48 777.883 470.445 778.053 470.376C778.217 470.307 778.369 470.206 778.497 470.078C778.625 469.95 778.728 469.798 778.795 469.631C778.862 469.464 778.898 469.285 778.898 469.104V463.83C778.898 463.465 778.753 463.115 778.497 462.857C778.369 462.728 778.217 462.625 778.053 462.555C777.883 462.485 777.707 462.449 777.524 462.449H759.414V470.479Z" fill="#15247C"/>
<path opacity="0.2" d="M759.414 470.479H777.524C777.707 470.48 777.883 470.445 778.053 470.376C778.217 470.307 778.369 470.206 778.497 470.078C778.625 469.95 778.728 469.798 778.795 469.631C778.862 469.464 778.898 469.285 778.898 469.104V463.83C778.898 463.465 778.753 463.115 778.497 462.857C778.369 462.728 778.217 462.625 778.053 462.555C777.883 462.485 777.707 462.449 777.524 462.449H759.414V470.479Z" fill="black"/>
<path d="M759.414 469.274H777.007C777.19 469.273 777.366 469.201 777.494 469.074C777.622 468.944 777.694 468.769 777.694 468.587V464.286C777.694 464.104 777.622 463.929 777.494 463.799C777.366 463.672 777.19 463.6 777.007 463.599H759.414V469.274Z" fill="white"/>
<path d="M749.155 462.449H788.525V454.425H749.155C748.906 454.423 748.663 454.471 748.432 454.566C748.201 454.661 747.988 454.8 747.811 454.976C747.641 455.151 747.501 455.361 747.404 455.591C747.313 455.821 747.264 456.068 747.264 456.317V460.618C747.27 460.862 747.319 461.103 747.416 461.327C747.513 461.55 747.659 461.752 747.836 461.92C748.188 462.263 748.663 462.453 749.155 462.449Z" fill="#15247C"/>
<path opacity="0.3" d="M749.155 462.449H788.525V454.425H749.155C748.906 454.423 748.663 454.471 748.432 454.566C748.201 454.661 747.988 454.8 747.811 454.976C747.641 455.151 747.501 455.361 747.404 455.591C747.313 455.821 747.264 456.068 747.264 456.317V460.618C747.27 460.862 747.319 461.103 747.416 461.327C747.513 461.55 747.659 461.752 747.836 461.92C748.188 462.263 748.663 462.453 749.155 462.449Z" fill="white"/>
<path d="M801.995 455.642H783.873C783.691 455.642 783.514 455.714 783.387 455.842C783.32 455.906 783.271 455.981 783.235 456.065C783.204 456.148 783.186 456.238 783.186 456.329V460.63C783.186 460.721 783.204 460.811 783.235 460.894C783.271 460.978 783.32 461.053 783.387 461.117C783.514 461.245 783.691 461.317 783.873 461.317H801.983L801.995 455.642Z" fill="white"/>
<path d="M783.369 454.425H803.333V455.642H783.873C783.788 455.624 783.697 455.624 783.612 455.642C783.533 455.67 783.454 455.716 783.393 455.775C783.32 455.831 783.265 455.904 783.235 455.988C783.204 456.07 783.186 456.156 783.186 456.244V460.6C783.186 460.687 783.204 460.773 783.235 460.855C783.271 460.937 783.326 461.01 783.393 461.068C783.454 461.126 783.533 461.172 783.612 461.202C783.697 461.22 783.788 461.22 783.873 461.202H803.333V462.418H783.387C783.204 462.42 783.028 462.385 782.858 462.316C782.693 462.247 782.541 462.145 782.414 462.017C782.158 461.758 782.012 461.409 782.012 461.044V455.769C782.012 455.589 782.049 455.409 782.116 455.243C782.183 455.075 782.286 454.923 782.414 454.795C782.541 454.668 782.693 454.566 782.858 454.497C783.028 454.429 783.204 454.394 783.387 454.395" fill="#15247C"/>
<path opacity="0.2" d="M783.369 454.425H803.333V455.642H783.873C783.788 455.624 783.697 455.624 783.612 455.642C783.533 455.67 783.454 455.716 783.393 455.775C783.32 455.831 783.265 455.904 783.235 455.988C783.204 456.07 783.186 456.156 783.186 456.244V460.6C783.186 460.687 783.204 460.773 783.235 460.855C783.271 460.937 783.326 461.01 783.393 461.068C783.454 461.126 783.533 461.172 783.612 461.202C783.697 461.22 783.788 461.22 783.873 461.202H803.333V462.418H783.387C783.204 462.42 783.028 462.385 782.858 462.316C782.693 462.247 782.541 462.145 782.414 462.017C782.158 461.758 782.012 461.409 782.012 461.044V455.769C782.012 455.589 782.049 455.409 782.116 455.243C782.183 455.075 782.286 454.923 782.414 454.795C782.541 454.668 782.693 454.566 782.858 454.497C783.028 454.429 783.204 454.394 783.387 454.395" fill="black"/>
</svg>
