<svg width="80%" height="80%" viewBox="0 0 1093 820" fill="none" xmlns="http://www.w3.org/2000/svg">
<path d="M164.23 401.048L227.214 676.499H888.062L944.489 448.744C945.103 443.804 944.762 438.792 943.464 433.984L882.939 215.044C880.992 208.024 877.051 201.718 871.599 196.891C866.141 192.064 859.405 188.923 852.198 187.848L391.362 120.198C384.821 119.228 378.14 120.007 371.997 122.455C365.854 124.904 360.469 128.934 356.386 134.138L171.335 369.409C167.864 373.818 165.425 378.948 164.196 384.423C162.966 389.898 162.978 395.578 164.23 401.048Z" fill="#F4F4F4"/>
<path d="M502.377 563.427C501.496 542.716 502.725 435.754 502.725 435.754C491.413 432.576 306.498 434.428 300.691 434.694C294.885 434.961 293.218 436.546 293.218 436.546C293.218 436.546 286.168 438.808 282.848 488.705L280.983 551.51C280.983 551.51 285.478 549.46 300.691 549.399C315.904 549.337 504.262 556.915 502.377 563.427Z" fill="#868A91"/>
<path d="M503.122 563.427C504.003 542.716 502.78 435.754 502.78 435.754C514.086 432.576 699.001 434.428 704.814 434.694C710.628 434.961 712.281 436.546 712.281 436.546C712.281 436.546 719.331 438.808 722.651 488.705L724.522 551.51C724.522 551.51 720.027 549.46 704.814 549.399C689.601 549.337 501.236 556.915 503.122 563.427Z" fill="#868A91"/>
<path opacity="0.2" d="M282.745 492.116C282.745 492.116 340.025 539.861 499.747 537.285C499.747 537.285 690.086 541.104 718.347 499.92V551.512L503.361 566.483L280.983 551.512L282.745 492.116Z" fill="black"/>
<path d="M708.845 515.745V599.112H292.616V515.745C292.616 513.701 291.804 511.74 290.359 510.295C288.914 508.849 286.954 508.037 284.91 508.037H247.611C245.568 508.037 243.608 508.849 242.163 510.295C240.718 511.74 239.906 513.701 239.906 515.745V650.977C239.905 651.989 240.104 652.993 240.491 653.929C240.878 654.864 241.445 655.715 242.161 656.431C242.876 657.148 243.726 657.717 244.661 658.104C245.597 658.492 246.599 658.692 247.611 658.692H753.849C754.86 658.692 755.864 658.492 756.8 658.104C757.736 657.717 758.583 657.148 759.3 656.431C760.018 655.715 760.584 654.864 760.967 653.929C761.356 652.993 761.555 651.989 761.555 650.977V515.745C761.555 513.701 760.742 511.74 759.3 510.295C757.852 508.849 755.891 508.037 753.849 508.037H716.55C714.508 508.037 712.547 508.849 711.099 510.295C709.658 511.74 708.845 513.701 708.845 515.745Z" fill="#868A91"/>
<path opacity="0.2" d="M707.629 613.497L601.239 617.05C535.394 619.25 469.532 619.25 403.652 617.05L295.991 613.483C294.495 613.467 293.054 612.917 291.927 611.932C290.8 610.947 290.061 609.593 289.843 608.112L289.385 605.262H714.214L713.756 608.112C713.545 609.592 712.807 610.947 711.686 611.934C710.559 612.921 709.125 613.475 707.629 613.497Z" fill="black"/>
<path d="M289.843 608.487C289.843 608.487 404.977 615.013 503.361 606.273C503.361 606.273 505.629 555.488 500.095 551.832C495.723 548.955 495.45 549.454 472.395 549.099C448.089 548.75 319.819 548.901 313.288 549.099C306.757 549.297 295.991 550.889 289.843 554.463C283.695 558.037 284.078 564.788 284.078 564.788C284.078 564.788 285.615 584.243 285.615 589.805C285.615 595.367 283.64 608.166 289.843 608.487Z" fill="#B2B6BB"/>
<path d="M716.762 608.487C716.762 608.487 601.628 614.999 503.245 606.273C503.245 606.273 500.977 555.488 506.517 551.832C510.882 548.955 511.155 549.454 534.211 549.099C558.516 548.75 686.787 548.901 693.317 549.099C699.848 549.297 710.614 550.889 716.762 554.463C722.91 558.037 722.528 564.788 722.528 564.788C722.528 564.788 720.991 584.243 720.991 589.805C720.991 595.367 722.972 608.166 716.762 608.487Z" fill="#B2B6BB"/>
<path d="M265.92 658.692H281.632V676.233C281.632 676.848 281.388 677.437 280.954 677.872C280.519 678.305 279.93 678.549 279.316 678.549H268.236C267.621 678.549 267.032 678.305 266.598 677.872C266.164 677.437 265.92 676.848 265.92 676.233V658.692Z" fill="#868A91"/>
<path opacity="0.2" d="M281.666 658.692H265.92V663.482H281.666V658.692Z" fill="black"/>
<path d="M311.785 658.692H327.497V676.233C327.497 676.848 327.253 677.437 326.819 677.872C326.384 678.305 325.795 678.549 325.181 678.549H314.108C313.494 678.549 312.905 678.305 312.47 677.872C312.036 677.437 311.792 676.848 311.792 676.233V658.692H311.785Z" fill="#868A91"/>
<path opacity="0.2" d="M327.531 658.692H311.785V666.912H327.531V658.692Z" fill="black"/>
<path d="M732.536 678.55H721.428C720.813 678.55 720.226 678.306 719.788 677.871C719.358 677.437 719.112 676.848 719.112 676.233V658.692H734.824V676.233C734.824 676.843 734.585 677.428 734.155 677.862C733.724 678.296 733.143 678.542 732.536 678.55Z" fill="#868A91"/>
<path opacity="0.2" d="M719.105 663.482H734.851V658.692H719.105V663.482Z" fill="black"/>
<path d="M686.67 678.55H675.563C674.949 678.55 674.36 678.306 673.925 677.871C673.491 677.437 673.247 676.848 673.247 676.233V658.692H688.959V676.233C688.959 676.843 688.72 677.428 688.289 677.862C687.859 678.296 687.278 678.542 686.67 678.55Z" fill="#868A91"/>
<path opacity="0.2" d="M673.24 666.905H688.986V658.685H673.24V666.905Z" fill="black"/>
<path d="M267.641 464.96C267.641 464.96 331.854 471.171 338.611 476.733C345.367 482.295 371.954 522.954 376.722 549.481H300.895C300.998 549.714 252.407 459.917 267.641 464.96Z" fill="#298EE0"/>
<path opacity="0.2" d="M296.982 468.288C296.982 468.288 314.019 472.237 330.25 510.859C330.25 510.859 342.662 533.177 336.938 549.481L368.887 548.716L328.583 472.866L296.982 468.288Z" fill="black"/>
<path d="M731.149 465.24C731.149 465.24 666.935 471.458 660.179 477.014C653.423 482.569 626.835 523.241 622.067 549.762H697.894C697.894 549.762 746.54 459.821 731.149 465.24Z" fill="#298EE0"/>
<path opacity="0.2" d="M658.054 479.166C628.762 514.939 622.067 549.761 622.067 549.761H652.125C652.125 549.761 642.26 534.448 655.848 507.395C669.435 480.342 681.807 471.465 681.807 471.465C681.807 471.465 660.753 473.467 658.054 479.166Z" fill="black"/>
<path d="M954.326 675.817H190.285C190.013 675.817 189.752 675.925 189.56 676.117C189.368 676.309 189.26 676.57 189.26 676.842C189.26 677.114 189.368 677.374 189.56 677.567C189.752 677.759 190.013 677.867 190.285 677.867H954.326C954.599 677.867 954.859 677.759 955.05 677.567C955.241 677.374 955.35 677.114 955.35 676.842C955.35 676.57 955.241 676.309 955.05 676.117C954.859 675.925 954.599 675.817 954.326 675.817Z" fill="#B2B6BB"/>
<path d="M816.348 191.101H588.041C586.226 191.101 584.755 192.573 584.755 194.388V544.473C584.755 546.289 586.226 547.76 588.041 547.76H816.348C818.165 547.76 819.634 546.289 819.634 544.473V194.388C819.634 192.573 818.165 191.101 816.348 191.101Z" fill="#298EE0"/>
<g opacity="0.6">
<path opacity="0.6" d="M816.348 191.101H588.041C586.226 191.101 584.755 192.573 584.755 194.388V544.473C584.755 546.289 586.226 547.76 588.041 547.76H816.348C818.165 547.76 819.634 546.289 819.634 544.473V194.388C819.634 192.573 818.165 191.101 816.348 191.101Z" fill="white"/>
</g>
<path d="M779.883 442.218H624.513C615.496 442.218 608.186 449.53 608.186 458.549V460.108C608.186 469.128 615.496 476.439 624.513 476.439H779.883C788.9 476.439 796.21 469.128 796.21 460.108V458.549C796.21 449.53 788.9 442.218 779.883 442.218Z" fill="white"/>
<path d="M818.22 211.56H586.169V365.05H818.22V211.56Z" fill="white"/>
<path d="M659.414 274.016L659.81 273.134L660.336 273.941C660.762 274.586 661.361 275.098 662.064 275.417L662.945 275.806L662.139 276.339C661.492 276.762 660.979 277.362 660.664 278.068L660.274 278.943L659.742 278.136C659.319 277.491 658.718 276.981 658.013 276.667L657.139 276.271L657.945 275.745C658.589 275.32 659.098 274.72 659.414 274.016Z" fill="#298EE0"/>
<path d="M632.997 267.401L633.223 266.888L633.53 267.36C633.776 267.735 634.125 268.031 634.534 268.214L635.047 268.439L634.575 268.747C634.2 268.993 633.904 269.342 633.721 269.751L633.496 270.264L633.189 269.792C632.942 269.418 632.594 269.121 632.184 268.938L631.672 268.713L632.143 268.405C632.518 268.159 632.814 267.811 632.997 267.401Z" fill="#298EE0"/>
<path d="M748.165 323.107L748.398 322.595L748.698 323.06C748.944 323.436 749.293 323.733 749.703 323.914L750.215 324.146L749.75 324.454C749.375 324.7 749.074 325.048 748.89 325.458L748.664 325.971L748.357 325.499C748.111 325.124 747.762 324.827 747.353 324.645L746.84 324.413L747.312 324.105C747.687 323.861 747.981 323.515 748.165 323.107Z" fill="#298EE0"/>
<path d="M788.893 299.983L789.29 299.101L789.816 299.907C790.239 300.555 790.84 301.068 791.544 301.383L792.425 301.773L791.619 302.306C790.977 302.732 790.464 303.331 790.143 304.035L789.754 304.916L789.221 304.11C788.805 303.461 788.203 302.948 787.5 302.634L786.618 302.238L787.425 301.711C788.067 301.286 788.579 300.687 788.893 299.983Z" fill="#298EE0"/>
<path d="M783.592 267.661L784.275 266.185L785.163 267.552C785.874 268.635 786.885 269.493 788.067 270.025L789.549 270.709L788.183 271.597C787.097 272.306 786.236 273.315 785.71 274.501L785.027 275.977L784.139 274.61C783.428 273.525 782.417 272.666 781.235 272.137L779.753 271.453L781.119 270.565C782.205 269.852 783.059 268.844 783.592 267.661Z" fill="#298EE0"/>
<path d="M651.203 247.025L651.886 245.542L652.774 246.909C653.486 247.995 654.493 248.856 655.677 249.389L657.159 250.073L655.793 250.961C654.71 251.674 653.852 252.682 653.32 253.865L652.637 255.348L651.749 253.981C651.039 252.893 650.031 252.032 648.846 251.501L647.37 250.818L648.736 249.929C649.817 249.214 650.672 248.207 651.203 247.025Z" fill="#298EE0"/>
<path d="M779.883 484.291H624.513C615.496 484.291 608.186 491.603 608.186 500.623V502.181C608.186 511.2 615.496 518.513 624.513 518.513H779.883C788.9 518.513 796.21 511.2 796.21 502.181V500.623C796.21 491.603 788.9 484.291 779.883 484.291Z" fill="#298EE0"/>
<path d="M588.246 191.101H816.471C817.345 191.101 818.179 191.447 818.794 192.064C819.409 192.68 819.757 193.516 819.757 194.388V209.462H584.96V194.381C584.961 193.51 585.308 192.676 585.925 192.061C586.541 191.447 587.375 191.101 588.246 191.101Z" fill="#298EE0"/>
<path d="M597.591 199.928C597.592 200.495 597.426 201.05 597.112 201.521C596.798 201.993 596.352 202.361 595.829 202.579C595.306 202.796 594.73 202.854 594.175 202.744C593.619 202.635 593.108 202.362 592.707 201.963C592.306 201.562 592.033 201.052 591.922 200.497C591.811 199.941 591.867 199.365 592.084 198.841C592.3 198.318 592.667 197.87 593.138 197.555C593.609 197.24 594.162 197.072 594.729 197.072C595.486 197.074 596.212 197.375 596.748 197.91C597.284 198.445 597.587 199.171 597.591 199.928Z" fill="white"/>
<path d="M605.802 199.928C605.803 200.495 605.636 201.05 605.322 201.522C605.008 201.994 604.562 202.362 604.038 202.58C603.515 202.797 602.938 202.854 602.383 202.744C601.827 202.634 601.317 202.361 600.916 201.96C600.515 201.559 600.242 201.048 600.132 200.492C600.021 199.937 600.079 199.36 600.297 198.836C600.514 198.313 600.882 197.866 601.353 197.552C601.826 197.238 602.38 197.071 602.947 197.072C603.703 197.074 604.428 197.375 604.963 197.911C605.499 198.446 605.8 199.172 605.802 199.928Z" fill="white"/>
<path d="M614.013 199.928C614.015 200.495 613.848 201.05 613.534 201.522C613.22 201.994 612.773 202.362 612.249 202.58C611.726 202.797 611.15 202.854 610.594 202.744C610.038 202.634 609.528 202.361 609.127 201.96C608.727 201.559 608.454 201.048 608.343 200.492C608.233 199.937 608.291 199.36 608.508 198.836C608.725 198.313 609.093 197.866 609.565 197.552C610.037 197.238 610.591 197.071 611.158 197.072C611.915 197.074 612.64 197.375 613.175 197.911C613.71 198.446 614.012 199.172 614.013 199.928Z" fill="white"/>
<path d="M772.136 395.062H632.253C631.721 395.062 631.289 395.493 631.289 396.025V398.69C631.289 399.222 631.721 399.654 632.253 399.654H772.136C772.669 399.654 773.099 399.222 773.099 398.69V396.025C773.099 395.493 772.669 395.062 772.136 395.062Z" fill="#298EE0"/>
<path d="M792.09 410.471H612.299C612.146 410.471 612 410.411 611.893 410.303C611.785 410.195 611.724 410.05 611.724 409.897C611.724 409.745 611.785 409.599 611.893 409.492C612 409.384 612.146 409.324 612.299 409.324H792.09C792.166 409.324 792.241 409.338 792.309 409.367C792.377 409.396 792.446 409.438 792.493 409.492C792.548 409.545 792.589 409.608 792.623 409.677C792.651 409.747 792.664 409.822 792.664 409.897C792.664 409.973 792.651 410.047 792.623 410.117C792.589 410.187 792.548 410.25 792.493 410.303C792.446 410.357 792.377 410.399 792.309 410.428C792.241 410.456 792.166 410.471 792.09 410.471Z" fill="#298EE0"/>
<path d="M750.242 419.655H654.147C653.994 419.655 653.849 419.595 653.741 419.487C653.634 419.379 653.573 419.233 653.573 419.081C653.573 418.928 653.634 418.783 653.741 418.675C653.849 418.568 653.994 418.507 654.147 418.507H750.242C750.392 418.507 750.542 418.568 750.645 418.675C750.754 418.783 750.816 418.928 750.816 419.081C750.816 419.233 750.754 419.379 750.645 419.487C750.542 419.595 750.392 419.655 750.242 419.655Z" fill="#298EE0"/>
<path d="M644.87 466.504H623.693V452.154H644.87V466.504ZM624.376 465.821H644.187V452.838H624.376V465.821Z" fill="#3F4249"/>
<path d="M634.281 461.133L623.822 452.762L624.246 452.229L634.281 460.258L644.316 452.229L644.739 452.762L634.281 461.133Z" fill="#3F4249"/>
<path d="M631.617 458.473L623.793 465.88L624.262 466.376L632.087 458.969L631.617 458.473Z" fill="#3F4249"/>
<path d="M637.24 458.483L636.77 458.979L644.593 466.387L645.063 465.891L637.24 458.483Z" fill="#3F4249"/>
<path d="M740.712 303.482C757.538 303.482 771.18 289.837 771.18 273.005C771.18 256.173 757.538 242.529 740.712 242.529C723.887 242.529 710.245 256.173 710.245 273.005C710.245 289.837 723.887 303.482 740.712 303.482Z" fill="#298EE0"/>
<path opacity="0.8" d="M740.712 303.482C757.538 303.482 771.18 289.837 771.18 273.005C771.18 256.173 757.538 242.529 740.712 242.529C723.887 242.529 710.245 256.173 710.245 273.005C710.245 289.837 723.887 303.482 740.712 303.482Z" fill="white"/>
<path opacity="0.2" d="M659.728 337.785C671.224 337.785 680.543 328.463 680.543 316.963C680.543 305.464 671.224 296.142 659.728 296.142C648.232 296.142 638.913 305.464 638.913 316.963C638.913 328.463 648.232 337.785 659.728 337.785Z" fill="black"/>
<path d="M724.263 267.319V289.186H718.115V267.319C718.115 259.01 711.803 252.252 704.042 252.252C696.282 252.252 689.956 258.983 689.956 267.319V289.186H683.808V267.319C683.808 255.416 692.894 245.733 704.063 245.733C715.232 245.733 724.263 255.416 724.263 267.319Z" fill="#B2B6BB"/>
<path opacity="0.2" d="M724.263 267.319V289.186H718.115V267.319C718.115 259.01 711.803 252.252 704.042 252.252C696.282 252.252 689.956 258.983 689.956 267.319V289.186H683.808V267.319C683.808 255.416 692.894 245.733 704.063 245.733C715.232 245.733 724.263 255.416 724.263 267.319Z" fill="black"/>
<path d="M722.132 267.319V289.186H715.983V267.319C715.983 259.01 709.671 252.252 701.911 252.252C694.151 252.252 687.832 259.01 687.832 267.319V289.186H681.684V267.319C681.684 255.416 690.769 245.733 701.938 245.733C713.108 245.733 722.132 255.416 722.132 267.319Z" fill="#B2B6BB"/>
<path d="M730.042 276.736H673.712V327.856H730.042V276.736Z" fill="#298EE0"/>
<path opacity="0.2" d="M730.049 276.736H723.586V327.856H730.049V276.736Z" fill="black"/>
<path d="M700.797 312.229L702.608 320.791H694.943L696.746 312.229C696.036 311.788 695.489 311.128 695.189 310.349C694.888 309.571 694.854 308.716 695.08 307.913C695.312 307.11 695.79 306.403 696.46 305.9C697.129 305.397 697.935 305.125 698.775 305.125C699.609 305.125 700.422 305.397 701.084 305.9C701.754 306.403 702.232 307.11 702.464 307.913C702.69 308.716 702.655 309.571 702.355 310.349C702.054 311.128 701.508 311.788 700.797 312.229Z" fill="#263238"/>
<path d="M868.58 632.083C863.982 566.025 858.886 561.659 858.674 561.509L858.995 560.907C859.221 561.01 864.549 564.276 869.242 632.035L868.58 632.083Z" fill="#3F4249"/>
<path d="M873.348 632.083L872.665 632.042C875.691 583.785 872.399 557.463 872.364 557.203L873.048 557.114C873.048 557.381 876.381 583.764 873.355 632.083" fill="#3F4249"/>
<path d="M877.495 633.545C873.819 603.478 883.178 580.525 883.274 580.293L883.902 580.559C883.807 580.785 874.523 603.553 878.171 633.463L877.495 633.545Z" fill="#3F4249"/>
<path d="M881.327 637.214C879.79 626.475 879.872 615.566 881.573 604.851L882.256 604.974C880.575 615.608 880.493 626.434 882.017 637.091L881.327 637.214Z" fill="#3F4249"/>
<path d="M883.39 580.832L886.355 580.586C888.465 580.412 890.508 579.784 892.353 578.748C893.247 578.222 894.183 577.754 895.14 577.347C898.808 575.871 902.907 576.137 906.855 575.939C913.318 575.604 919.65 573.977 925.477 571.156C925.819 571.005 926.106 570.749 926.29 570.425C926.898 569.311 925.771 568.32 924.794 567.726C919.794 564.644 914.704 561.521 909.041 559.99C903.378 558.46 896.936 558.719 892.1 562.04C886.416 565.949 884.346 573.978 883.39 580.811" fill="#4DD188"/>
<g opacity="0.3">
<g opacity="0.3">
<path opacity="0.3" d="M926.359 570.077C926.181 570.016 926.01 569.938 925.853 569.845L924.446 569.107C923.23 568.464 921.474 567.521 919.254 566.455C916.672 565.186 913.98 564.148 911.214 563.353C907.825 562.386 904.287 562.1 900.789 562.512C897.285 562.907 893.985 564.334 891.294 566.612C889.19 568.568 887.502 570.933 886.341 573.562C885.303 575.79 884.661 577.662 884.189 578.974C883.971 579.596 883.8 580.095 883.663 580.47C883.609 580.649 883.54 580.823 883.458 580.99C883.479 580.806 883.527 580.624 883.588 580.45C883.704 580.06 883.855 579.555 884.046 578.926C884.62 577.065 885.303 575.24 886.095 573.459C887.243 570.774 888.93 568.355 891.055 566.353C893.794 564.016 897.169 562.554 900.748 562.157C904.294 561.736 907.887 562.035 911.316 563.039C914.097 563.854 916.802 564.925 919.384 566.237C921.597 567.337 923.332 568.328 924.528 569.011L925.894 569.81C926.058 569.899 926.208 570 926.359 570.111" fill="black"/>
</g>
</g>
<g opacity="0.3">
<g opacity="0.3">
<path opacity="0.3" d="M919.233 573.91C919.172 573.999 915.292 571.485 910.564 568.3C905.837 565.116 902.06 562.458 902.121 562.362C902.183 562.267 906.056 564.788 910.783 567.972C915.51 571.157 919.295 573.822 919.233 573.91Z" fill="black"/>
</g>
</g>
<g opacity="0.3">
<g opacity="0.3">
<path opacity="0.3" d="M915.094 562.157C914.185 562.474 913.229 562.647 912.266 562.67C911.309 562.802 910.339 562.787 909.383 562.629C910.326 562.464 911.275 562.368 912.231 562.342C913.181 562.21 914.137 562.148 915.094 562.157Z" fill="black"/>
</g>
</g>
<g opacity="0.3">
<g opacity="0.3">
<path opacity="0.3" d="M898.104 559.944C897.79 560.672 897.36 561.345 896.834 561.939C896.383 562.62 895.843 563.237 895.221 563.771C895.536 563.042 895.959 562.37 896.492 561.782C896.943 561.095 897.483 560.476 898.104 559.944Z" fill="black"/>
</g>
</g>
<g opacity="0.3">
<g opacity="0.3">
<path opacity="0.3" d="M901.582 576.193C900.926 575.925 900.297 575.586 899.717 575.181C898.596 574.498 897.08 573.508 895.461 572.333C893.842 571.157 892.414 570.044 891.362 569.23C890.781 568.826 890.242 568.368 889.75 567.864C890.378 568.194 890.973 568.583 891.526 569.025L895.666 572.032C897.278 573.2 898.76 574.232 899.84 574.97C900.441 575.337 901.015 575.753 901.554 576.214" fill="black"/>
</g>
</g>
<path d="M891.437 675.132H862.063L856.598 634.815H896.902L891.437 675.132Z" fill="#61656D"/>
<path d="M900.318 640.965H853.182L852.499 632.082H901.001L900.318 640.965Z" fill="#61656D"/>
<g opacity="0.2">
<g opacity="0.2">
<path opacity="0.2" d="M857.431 640.965H896.069L891.437 675.132L886.799 674.818L889.388 643.699L857.732 643.166L857.431 640.965Z" fill="black"/>
</g>
</g>
<g opacity="0.2">
<g opacity="0.2">
<path opacity="0.2" d="M890.228 632.143L888.862 640.965H900.318L901.001 632.082L890.228 632.143Z" fill="black"/>
</g>
</g>
<g opacity="0.2">
<g opacity="0.2">
<path opacity="0.2" d="M894.176 651.114H859.228V651.797H894.176V651.114Z" fill="white"/>
</g>
</g>
<g opacity="0.2">
<g opacity="0.2">
<path opacity="0.2" d="M894.176 653.847H859.228V654.531H894.176V653.847Z" fill="white"/>
</g>
</g>
<path d="M859.481 561.221C856.652 559.075 853.66 558.659 850.115 558.795C846.563 559.034 843.092 559.932 839.868 561.44C834.328 563.872 829.116 567.446 825.802 572.516C822.489 577.587 821.335 584.29 823.814 589.812C824.006 590.391 824.409 590.878 824.942 591.178C825.556 591.355 826.212 591.306 826.793 591.042C833.098 588.992 839.451 586.942 845.237 583.682C851.023 580.423 856.311 575.981 859.426 570.125C860.225 568.742 860.731 567.209 860.915 565.622C861.004 564.829 860.915 564.027 860.669 563.269C860.423 562.511 860.013 561.816 859.474 561.228" fill="#4DD188"/>
<g opacity="0.3">
<g opacity="0.3">
<path opacity="0.3" d="M859.535 560.557C859.392 560.633 859.235 560.695 859.078 560.742L857.759 561.193L856.803 561.514C856.454 561.637 856.12 561.794 855.683 561.951C854.89 562.273 853.961 562.594 852.984 563.072L851.44 563.755C850.907 564.001 850.368 564.302 849.801 564.596C848.66 565.156 847.505 565.874 846.269 566.598C843.646 568.254 841.152 570.106 838.809 572.14C836.494 574.206 834.335 576.447 832.361 578.843C831.486 579.971 830.626 581.023 829.922 582.089C829.567 582.615 829.198 583.107 828.884 583.606C828.569 584.105 828.276 584.59 827.989 585.048C827.394 585.957 826.957 586.832 826.534 587.583C826.329 587.966 826.131 588.308 825.96 588.636L825.523 589.544C825.27 590.064 825.065 590.474 824.901 590.802C824.839 590.951 824.757 591.094 824.662 591.225C824.703 591.067 824.757 590.913 824.833 590.768C824.976 590.433 825.154 590.009 825.386 589.483L825.789 588.554C825.953 588.219 826.144 587.87 826.342 587.481C826.745 586.722 827.169 585.827 827.75 584.905L828.624 583.442C828.938 582.937 829.307 582.438 829.655 581.905C830.339 580.825 831.206 579.752 832.081 578.611C836.002 573.731 840.736 569.569 846.085 566.311C847.328 565.587 848.496 564.876 849.651 564.323C850.224 564.042 850.771 563.742 851.31 563.496L852.875 562.812C853.865 562.355 854.801 562.047 855.607 561.746C856.017 561.596 856.393 561.453 856.741 561.337L857.711 561.049L859.078 560.667C859.235 560.614 859.392 560.577 859.556 560.557" fill="black"/>
</g>
</g>
<g opacity="0.3">
<g opacity="0.3">
<path opacity="0.3" d="M837.443 572.523C832.9 574.124 828.275 575.477 823.582 576.575C825.83 575.715 828.125 574.975 830.454 574.361C834.287 573.24 837.415 572.413 837.443 572.523Z" fill="black"/>
</g>
</g>
<g opacity="0.3">
<g opacity="0.3">
<path opacity="0.3" d="M837.163 587.699C837.04 586.994 836.992 586.277 837.013 585.561C837.013 584.235 836.972 582.404 837.013 580.381C837.054 578.358 837.177 576.527 837.286 575.208C837.307 574.491 837.395 573.776 837.559 573.076C837.621 573.79 837.621 574.508 837.559 575.222C837.511 576.677 837.457 578.44 837.402 580.388C837.347 582.335 837.307 584.105 837.272 585.561C837.286 586.276 837.245 586.992 837.142 587.699" fill="black"/>
</g>
</g>
<g opacity="0.3">
<g opacity="0.3">
<path opacity="0.3" d="M850.163 581.078C850.053 581.078 849.712 577.361 849.391 572.762C849.07 568.163 848.906 564.432 849.015 564.425C849.124 564.418 849.466 568.136 849.787 572.734C850.108 577.333 850.272 581.071 850.163 581.078Z" fill="black"/>
</g>
</g>
<g opacity="0.3">
<g opacity="0.3">
<path opacity="0.3" d="M833.979 564.064C834.71 563.975 835.448 563.952 836.186 563.995C837.552 563.995 839.424 564.043 841.494 564.111C843.564 564.18 845.442 564.269 846.795 564.344C847.533 564.349 848.27 564.42 848.995 564.556C848.264 564.648 847.526 564.67 846.788 564.624C845.422 564.624 843.55 564.576 841.48 564.508C839.41 564.439 837.532 564.357 836.172 564.275C835.435 564.27 834.704 564.2 833.979 564.064Z" fill="black"/>
</g>
</g>
<path d="M853.797 546.85L850.149 553.458C850.067 553.609 849.951 553.779 849.78 553.8C849.609 553.82 849.446 553.629 849.336 553.472L839.704 538.678L841.924 537.414L853.797 546.85Z" fill="#4DD188"/>
<g opacity="0.2">
<g opacity="0.2">
<path opacity="0.2" d="M853.797 546.85L850.149 553.458C850.067 553.609 849.951 553.779 849.78 553.8C849.609 553.82 849.446 553.629 849.336 553.472L839.704 538.678L841.924 537.414L853.797 546.85Z" fill="black"/>
</g>
</g>
<path d="M873.348 558.754L840.469 539.347C840.107 539.19 839.827 538.902 839.67 538.541C839.54 538.056 839.902 537.585 840.257 537.222C842.518 534.875 845.258 533.044 848.284 531.853C851.317 530.662 854.569 530.139 857.82 530.321C861.072 530.551 864.221 531.571 866.995 533.292C869.762 535.014 872.07 537.386 873.717 540.202C876.893 545.866 876.996 553.369 873.362 558.754" fill="#4DD188"/>
<g opacity="0.3">
<g opacity="0.3">
<path opacity="0.3" d="M845.21 533.156C845.347 533.115 845.497 533.096 845.641 533.102C845.921 533.102 846.324 533.033 846.884 533.04C848.407 533.017 849.937 533.139 851.44 533.402C856.454 534.246 861.12 536.508 864.891 539.92C868.662 543.332 871.381 547.752 872.72 552.659C873.13 554.133 873.403 555.643 873.533 557.169C873.567 557.487 873.587 557.806 873.587 558.125C873.56 558.381 873.471 558.627 873.334 558.843C873.43 558.295 873.451 557.735 873.382 557.182C872.727 551.422 870.233 546.026 866.271 541.793C862.309 537.56 857.097 534.714 851.392 533.676C849.903 533.393 848.394 533.231 846.884 533.191C845.804 533.191 845.21 533.191 845.21 533.191" fill="black"/>
</g>
</g>
<g opacity="0.3">
<g opacity="0.3">
<path opacity="0.3" d="M868.894 545.361C868.368 545.674 867.815 545.926 867.234 546.113C866.189 546.529 864.72 547.055 863.087 547.575C861.455 548.094 859.945 548.511 858.852 548.777C858.271 548.957 857.67 549.072 857.062 549.119C857.609 548.857 858.189 548.65 858.777 548.504L862.964 547.199L867.138 545.832C867.705 545.605 868.293 545.44 868.894 545.34" fill="black"/>
</g>
</g>
<g opacity="0.3">
<g opacity="0.3">
<path opacity="0.3" d="M863.716 531.448C864.01 532.648 864.14 533.882 864.105 535.118C864.201 536.348 864.133 537.587 863.907 538.801C863.791 538.801 863.764 537.154 863.716 535.124C863.62 533.901 863.62 532.671 863.716 531.448Z" fill="black"/>
</g>
</g>
<g opacity="0.3">
<g opacity="0.3">
<path opacity="0.3" d="M840.182 538.979C840.954 538.635 841.753 538.354 842.573 538.139C844.062 537.681 846.146 537.093 848.462 536.54C850.777 535.986 852.902 535.549 854.439 535.282C855.266 535.094 856.099 534.98 856.946 534.941C856.147 535.204 855.327 535.409 854.494 535.556C852.97 535.89 850.873 536.362 848.557 536.922C846.242 537.483 844.158 538.016 842.648 538.405C841.842 538.659 841.016 538.851 840.182 538.979Z" fill="black"/>
</g>
</g>
<path d="M887.079 595.497C884.244 594.752 880.869 597.506 880.289 600.376C879.708 603.246 880.78 606.178 882.037 608.822C884.831 614.671 888.677 620.097 893.746 624.136C898.815 628.174 905.161 630.764 911.637 630.73C910.442 625.167 911.958 619.359 911.289 613.715C910.701 608.739 908.447 604.11 904.888 600.584C901.329 597.059 896.677 594.846 891.697 594.308C889.886 594.11 887.796 593.83 887.079 595.497Z" fill="#4DD188"/>
<g opacity="0.3">
<g opacity="0.3">
<path opacity="0.3" d="M911.637 630.716C911.494 630.669 911.364 630.605 911.234 630.525C910.865 630.328 910.51 630.1 910.175 629.841C908.986 628.81 908.037 627.535 907.381 626.103C906.93 625.229 906.425 624.279 905.933 623.22C905.441 622.161 904.949 621.04 904.41 619.858C903.863 618.621 903.241 617.418 902.545 616.257C901.773 615.027 900.912 613.858 899.969 612.758C898.029 610.476 895.952 608.508 894.149 606.608C892.516 604.963 891.034 603.179 889.709 601.278C888.821 599.991 888.096 598.6 887.543 597.137C887.393 596.741 887.27 596.338 887.167 595.928C887.12 595.787 887.092 595.639 887.079 595.49C887.079 595.49 887.27 596.071 887.687 597.082C888.288 598.506 889.046 599.86 889.941 601.121C891.287 602.985 892.776 604.736 894.409 606.355C896.219 608.214 898.309 610.182 900.27 612.505C901.233 613.622 902.101 614.812 902.873 616.065C903.576 617.241 904.198 618.459 904.744 619.714C905.263 620.903 905.762 622.029 906.233 623.09C906.705 624.142 907.197 625.14 907.634 625.98C908.249 627.398 909.15 628.675 910.278 629.732C911.104 630.415 911.644 630.709 911.644 630.75" fill="black"/>
</g>
</g>
<g opacity="0.3">
<g opacity="0.3">
<path opacity="0.3" d="M897.005 626.111C897.011 625.467 897.1 624.827 897.264 624.204C897.483 623.036 897.852 621.437 898.337 619.694C898.822 617.952 899.355 616.394 899.778 615.28C899.969 614.667 900.229 614.077 900.55 613.524C900.441 614.156 900.27 614.777 900.038 615.376C899.689 616.503 899.211 618.061 898.719 619.797C898.227 621.533 897.824 623.118 897.537 624.266C897.415 624.895 897.237 625.512 897.005 626.111Z" fill="black"/>
</g>
</g>
<g opacity="0.3">
<g opacity="0.3">
<path opacity="0.3" d="M911.104 612.464C910.428 612.369 909.759 612.215 909.11 612.006C907.887 611.685 906.206 611.248 904.328 610.824C902.449 610.4 900.741 610.079 899.505 609.84C898.829 609.753 898.159 609.607 897.51 609.403C898.2 609.382 898.883 609.437 899.559 609.567C900.816 609.731 902.545 610.018 904.423 610.441C906.302 610.865 907.989 611.35 909.205 611.74C909.868 611.911 910.517 612.153 911.125 612.464" fill="black"/>
</g>
</g>
<g opacity="0.3">
<g opacity="0.3">
<path opacity="0.3" d="M886.505 616.427C886.532 615.683 886.635 614.944 886.806 614.22C887.058 612.853 887.455 611.008 887.981 608.978C888.507 606.949 889.074 605.138 889.518 603.833C889.723 603.124 889.989 602.438 890.331 601.783C890.201 602.516 890.023 603.238 889.784 603.942C889.408 605.261 888.889 607.079 888.363 609.101C887.837 611.124 887.38 612.949 887.079 614.315C886.949 615.045 886.758 615.763 886.505 616.461" fill="black"/>
</g>
</g>
<g opacity="0.3">
<g opacity="0.3">
<path opacity="0.3" d="M904.608 600.574C904.608 600.677 901.063 600.39 896.718 599.932C894.088 599.721 891.465 599.377 888.869 598.9C891.506 598.981 894.142 599.196 896.759 599.542C899.389 599.753 902.012 600.097 904.608 600.574Z" fill="black"/>
</g>
</g>
<path d="M873.123 567.501C872.884 564.925 870.281 562.977 867.658 562.95C865.035 562.922 862.657 564.474 861.072 566.524C859.488 568.574 858.62 571.075 857.903 573.562C856.161 579.637 855.17 586.019 855.949 592.292C856.728 598.565 859.242 604.743 863.743 609.177C864.474 609.861 865.424 610.619 866.428 610.401C866.968 610.237 867.453 609.935 867.842 609.526C872.248 605.491 875.746 600.56 878.089 595.063C880.439 589.566 881.58 583.63 881.443 577.655C881.368 575.27 881.061 572.79 879.735 570.822C878.41 568.854 875.336 566.722 873.089 567.521" fill="#4DD188"/>
<g opacity="0.3">
<g opacity="0.3">
<path opacity="0.3" d="M865.185 610.038C865.151 609.895 865.137 609.748 865.137 609.601C865.137 609.266 865.137 608.849 865.082 608.337C865.034 607.237 865.021 605.644 865.082 603.676C865.144 601.708 865.253 599.371 865.492 596.782C865.731 594.192 866.114 591.315 866.647 588.397C867.179 585.479 867.842 582.65 868.518 580.129C869.195 577.607 869.885 575.345 870.568 573.521C871.251 571.696 871.797 570.173 872.228 569.154C872.433 568.683 872.597 568.293 872.726 567.986C872.788 567.851 872.849 567.718 872.924 567.59C872.904 567.738 872.863 567.883 872.802 568.02L872.351 569.216C871.961 570.248 871.428 571.744 870.814 573.617C870.199 575.489 869.516 577.717 868.846 580.231C868.177 582.746 867.555 585.52 867.015 588.472C866.476 591.424 866.107 594.24 865.834 596.823C865.56 599.406 865.41 601.736 865.342 603.69C865.274 605.644 865.232 607.243 865.232 608.337C865.232 608.856 865.232 609.273 865.232 609.608C865.253 609.753 865.253 609.9 865.232 610.045" fill="black"/>
</g>
</g>
<g opacity="0.3">
<g opacity="0.3">
<path opacity="0.3" d="M866.92 588.506C866.537 589.036 866.1 589.52 865.608 589.948C864.761 590.796 863.559 591.937 862.193 593.146C860.826 594.356 859.528 595.401 858.579 596.132C858.087 596.561 857.554 596.934 856.98 597.246C857.411 596.759 857.889 596.316 858.401 595.921L861.933 592.852L865.437 589.743C865.902 589.287 866.401 588.873 866.94 588.506" fill="black"/>
</g>
</g>
<g opacity="0.3">
<g opacity="0.3">
<path opacity="0.3" d="M877.324 596.891C876.818 596.282 876.367 595.635 875.957 594.957L872.706 590.215L869.393 585.52C868.894 584.898 868.457 584.235 868.067 583.539C868.634 584.098 869.153 584.706 869.618 585.356C870.527 586.511 871.749 588.144 873.034 589.989C874.318 591.834 875.425 593.55 876.19 594.807C876.64 595.453 877.03 596.139 877.351 596.857" fill="black"/>
</g>
</g>
<g opacity="0.3">
<g opacity="0.3">
<path opacity="0.3" d="M871.872 570.527C871.934 570.616 868.457 572.947 864.153 575.721C859.849 578.496 856.284 580.682 856.222 580.593C856.161 580.505 859.638 578.174 863.941 575.393C868.245 572.611 871.818 570.432 871.872 570.527Z" fill="black"/>
</g>
</g>
<g opacity="0.3">
<g opacity="0.3">
<path opacity="0.3" d="M881.621 581.052C878.048 577.922 874.653 574.601 871.442 571.103C875.015 574.228 878.417 577.549 881.621 581.052Z" fill="black"/>
</g>
</g>
<path d="M434.7 241.401H347V310.302H434.7V241.401Z" fill="white"/>
<path d="M425.881 250.578H355.826V301.117H425.881V250.578Z" fill="#DDDDDD"/>
<path d="M436.674 241.414H434.672V310.253H436.674V241.414Z" fill="#DADDDF"/>
<path d="M392.149 278.423C394.31 278.423 396.424 277.783 398.221 276.581C400.018 275.38 401.419 273.672 402.247 271.674C403.074 269.677 403.29 267.478 402.868 265.357C402.447 263.236 401.406 261.288 399.878 259.76C398.349 258.23 396.401 257.189 394.281 256.767C392.161 256.345 389.963 256.562 387.966 257.389C385.968 258.217 384.261 259.618 383.06 261.416C381.859 263.214 381.219 265.328 381.219 267.49C381.219 270.39 382.37 273.171 384.42 275.221C386.47 277.272 389.25 278.423 392.149 278.423Z" fill="#4DD188"/>
<g opacity="0.2">
<g opacity="0.2">
<path opacity="0.2" d="M363.381 296.668L381.204 285.249L363.559 273.892L363.381 296.668Z" fill="black"/>
</g>
</g>
<g opacity="0.2">
<g opacity="0.2">
<path opacity="0.2" d="M418.195 270.012H394.552V293.662H418.195V270.012Z" fill="black"/>
</g>
</g>
<path d="M527.092 213.925H462.332V303.551H527.092V213.925Z" fill="white"/>
<path d="M518.451 222.219H470.98V295.254H518.451V222.219Z" fill="#DDDDDD"/>
<path d="M529.039 213.883H527.154V303.509H529.039V213.883Z" fill="#DADDDF"/>
<path d="M505.861 248.077H483.625V283.371H505.861V248.077Z" fill="#B1B5BA"/>
<path d="M494.747 243.656C497.651 243.653 500.436 242.502 502.495 240.454C504.556 238.407 505.723 235.628 505.745 232.723H483.803C483.803 235.623 484.954 238.403 487.004 240.454C489.054 242.505 491.834 243.656 494.733 243.656" fill="#4DD188"/>
<path d="M269.151 365.617C285.676 365.617 299.072 352.217 299.072 335.687C299.072 319.157 285.676 305.757 269.151 305.757C252.626 305.757 239.23 319.157 239.23 335.687C239.23 352.217 252.626 365.617 269.151 365.617Z" fill="white"/>
<path d="M269.151 365.925C263.173 365.925 257.328 364.152 252.357 360.829C247.386 357.506 243.512 352.784 241.224 347.259C238.936 341.734 238.338 335.654 239.504 329.788C240.67 323.923 243.549 318.535 247.777 314.307C252.004 310.078 257.391 307.198 263.254 306.031C269.118 304.864 275.196 305.463 280.719 307.751C286.242 310.041 290.963 313.916 294.285 318.888C297.607 323.861 299.38 329.707 299.38 335.687C299.371 343.704 296.183 351.39 290.516 357.059C284.849 362.727 277.166 365.916 269.151 365.925ZM269.151 306.058C263.293 306.058 257.566 307.796 252.695 311.052C247.824 314.307 244.027 318.935 241.786 324.349C239.544 329.763 238.957 335.72 240.1 341.468C241.243 347.215 244.064 352.495 248.207 356.638C252.349 360.782 257.627 363.604 263.373 364.748C269.118 365.891 275.074 365.304 280.486 363.061C285.899 360.819 290.525 357.021 293.78 352.149C297.034 347.276 298.772 341.548 298.772 335.687C298.763 327.832 295.639 320.301 290.086 314.746C284.533 309.192 277.004 306.067 269.151 306.058Z" fill="#298EE0"/>
<path d="M307.065 357.123C305.865 357.123 304.692 357.479 303.695 358.146C302.697 358.812 301.919 359.76 301.46 360.869C301.001 361.977 300.881 363.198 301.115 364.375C301.349 365.552 301.927 366.633 302.775 367.482C303.624 368.33 304.705 368.908 305.882 369.142C307.058 369.377 308.278 369.256 309.386 368.797C310.495 368.338 311.442 367.56 312.109 366.563C312.775 365.564 313.131 364.391 313.131 363.191C313.127 361.583 312.487 360.041 311.35 358.904C310.213 357.767 308.673 357.126 307.065 357.123ZM307.065 368.623C305.983 368.63 304.922 368.315 304.019 367.719C303.116 367.122 302.411 366.271 301.992 365.272C301.572 364.275 301.46 363.174 301.667 362.111C301.874 361.049 302.391 360.072 303.155 359.303C303.917 358.535 304.891 358.011 305.952 357.798C307.013 357.584 308.113 357.69 309.114 358.103C310.115 358.516 310.97 359.217 311.572 360.116C312.175 361.016 312.496 362.074 312.496 363.157C312.496 364.601 311.924 365.987 310.907 367.01C309.889 368.034 308.508 368.615 307.065 368.623Z" fill="#298EE0"/>
<path d="M320.386 367.373C319.591 367.373 318.814 367.609 318.154 368.05C317.493 368.492 316.979 369.12 316.675 369.853C316.371 370.587 316.291 371.396 316.446 372.175C316.601 372.954 316.984 373.671 317.545 374.232C318.107 374.794 318.823 375.177 319.602 375.332C320.382 375.487 321.189 375.408 321.923 375.104C322.657 374.799 323.284 374.284 323.725 373.623C324.167 372.963 324.402 372.186 324.402 371.391C324.4 370.326 323.977 369.305 323.224 368.552C322.471 367.799 321.451 367.375 320.386 367.373ZM320.386 374.814C319.71 374.814 319.05 374.614 318.488 374.239C317.926 373.863 317.488 373.33 317.23 372.706C316.971 372.081 316.904 371.394 317.036 370.732C317.167 370.069 317.493 369.46 317.971 368.982C318.448 368.504 319.057 368.179 319.72 368.047C320.382 367.915 321.069 367.983 321.693 368.242C322.317 368.5 322.85 368.938 323.225 369.5C323.601 370.062 323.801 370.722 323.801 371.398C323.801 372.304 323.441 373.173 322.801 373.814C322.16 374.454 321.291 374.814 320.386 374.814Z" fill="#298EE0"/>
<path d="M267.191 344.619C266.931 344.496 266.711 344.303 266.557 344.061C266.402 343.819 266.318 343.539 266.316 343.252V335.585C266.317 335.348 266.372 335.114 266.478 334.902C266.584 334.69 266.738 334.505 266.927 334.362C267.116 334.219 267.336 334.122 267.569 334.078C267.802 334.034 268.042 334.045 268.27 334.109C268.901 334.273 269.557 334.307 270.201 334.208C270.845 334.11 271.462 333.881 272.014 333.535C272.524 333.243 272.969 332.85 273.321 332.38C273.674 331.91 273.926 331.373 274.063 330.802C274.164 330.22 274.146 329.625 274.011 329.05C273.876 328.476 273.626 327.935 273.277 327.46C272.918 326.92 272.454 326.456 271.914 326.097C271.373 325.738 270.765 325.49 270.128 325.369C267.662 324.973 264.909 326.736 264.11 329.257C263.968 329.622 263.693 329.918 263.341 330.086C262.988 330.255 262.584 330.283 262.212 330.165C261.84 330.046 261.526 329.79 261.336 329.449C261.145 329.108 261.092 328.707 261.186 328.328C262.436 324.392 266.651 321.706 270.606 322.335C271.656 322.518 272.658 322.911 273.551 323.491C274.444 324.071 275.211 324.826 275.805 325.711C276.389 326.529 276.802 327.457 277.019 328.438C277.237 329.42 277.253 330.435 277.069 331.423C276.847 332.407 276.427 333.333 275.832 334.147C275.237 334.96 274.482 335.643 273.612 336.152C272.345 336.932 270.885 337.341 269.397 337.334V343.232C269.397 343.433 269.358 343.633 269.28 343.818C269.202 344.005 269.09 344.174 268.946 344.316C268.804 344.458 268.634 344.571 268.448 344.647C268.261 344.724 268.062 344.763 267.86 344.762C267.629 344.769 267.399 344.72 267.191 344.619Z" fill="#35A868"/>
<path d="M269.301 347.816C269.308 348.065 269.241 348.31 269.108 348.521C268.975 348.732 268.783 348.898 268.556 348.999C268.328 349.1 268.075 349.131 267.831 349.089C267.586 349.047 267.358 348.933 267.178 348.761C266.997 348.589 266.872 348.368 266.818 348.125C266.764 347.882 266.783 347.628 266.872 347.396C266.963 347.164 267.119 346.964 267.323 346.821C267.527 346.678 267.768 346.598 268.017 346.593C268.349 346.586 268.671 346.71 268.912 346.939C269.152 347.169 269.292 347.484 269.301 347.816Z" fill="#298EE0"/>
<path d="M529.162 648.941L531.109 651.962C533.653 655.961 537.503 658.955 542.005 660.435L566.55 669.127C568.763 669.81 568.497 673.063 566.174 673.063H563.1C562.903 673.335 562.642 673.557 562.342 673.708C562.041 673.859 561.708 673.935 561.372 673.931C560.675 673.899 560.01 673.631 559.486 673.172C559.432 673.118 559.377 673.117 559.322 673.063H558.892C558.837 673.117 558.728 673.118 558.673 673.227C558.471 673.46 558.223 673.647 557.945 673.778C557.665 673.909 557.362 673.979 557.054 673.985C556.405 673.946 555.785 673.708 555.278 673.302C555.226 673.254 555.164 673.216 555.097 673.192C555.03 673.169 554.958 673.159 554.887 673.164C554.816 673.169 554.747 673.189 554.683 673.222C554.62 673.256 554.564 673.301 554.52 673.357C554.363 673.547 554.165 673.698 553.942 673.801C553.719 673.904 553.475 673.955 553.229 673.951C552.683 673.927 552.157 673.738 551.719 673.411C551.615 673.345 551.492 673.314 551.369 673.322C551.246 673.331 551.13 673.379 551.036 673.459C550.713 673.763 550.29 673.938 549.847 673.951C549.55 673.949 549.258 673.868 549.002 673.715C548.746 673.562 548.536 673.344 548.392 673.083H548.174L517.809 672.632C514.899 672.578 512.74 671.662 511.497 669.393L511.387 653.39L529.162 648.941Z" fill="#FC9D9D"/>
<path opacity="0.15" d="M567.198 669.393C567.144 669.338 567.035 669.283 566.987 669.235C566.863 669.171 566.736 669.116 566.605 669.071L566.119 668.907H566.065C565.984 668.948 565.912 669.003 565.853 669.071C565.657 669.311 565.41 669.503 565.13 669.632C564.849 669.763 564.543 669.828 564.234 669.823C563.583 669.823 562.952 669.596 562.45 669.181C562.34 669.096 562.203 669.055 562.065 669.065C561.927 669.075 561.796 669.136 561.7 669.235C561.541 669.424 561.342 669.574 561.117 669.676C560.892 669.778 560.648 669.828 560.401 669.823C559.855 669.801 559.328 669.613 558.892 669.283C558.786 669.22 558.664 669.191 558.542 669.201C558.419 669.21 558.303 669.259 558.209 669.338C558.025 669.52 557.802 669.658 557.556 669.739C557.311 669.821 557.05 669.844 556.794 669.808C556.537 669.772 556.293 669.676 556.08 669.529C555.867 669.382 555.69 669.188 555.565 668.962H555.354L540.352 668.723L543.508 660.974C541.683 663.927 539.347 666.53 536.609 668.661L524.948 668.477C522.037 668.422 519.879 667.507 518.635 665.238C517.892 663.92 517.623 662.388 517.872 660.897C518.12 659.405 518.872 658.043 520.002 657.038L529.135 648.913L515.602 652.583L511.504 653.266V669.42C512.747 671.689 514.919 672.604 517.816 672.659L548.187 673.144H548.405C548.549 673.405 548.76 673.623 549.015 673.776C549.271 673.929 549.563 674.01 549.86 674.012C550.304 673.998 550.726 673.823 551.049 673.52C551.142 673.437 551.26 673.388 551.383 673.379C551.507 673.371 551.63 673.403 551.732 673.472C552.174 673.798 552.702 673.986 553.249 674.012C553.495 674.016 553.739 673.965 553.963 673.862C554.186 673.759 554.383 673.607 554.541 673.417C554.585 673.362 554.64 673.316 554.704 673.283C554.767 673.25 554.836 673.23 554.907 673.225C554.978 673.22 555.05 673.23 555.117 673.253C555.185 673.277 555.246 673.314 555.299 673.363C555.805 673.769 556.426 674.009 557.074 674.046C557.382 674.04 557.686 673.97 557.964 673.839C558.244 673.708 558.492 673.521 558.693 673.288C558.748 673.178 558.857 673.178 558.912 673.124H559.342C559.397 673.178 559.452 673.178 559.506 673.233C560.031 673.692 560.696 673.96 561.392 673.991C561.728 673.996 562.061 673.92 562.362 673.769C562.663 673.618 562.923 673.396 563.121 673.124H566.195C568.278 673.083 568.708 670.472 567.198 669.393Z" fill="black"/>
<path d="M567.848 675.385H512.173C511.975 675.385 511.778 675.347 511.595 675.271C511.412 675.195 511.246 675.083 511.105 674.943C510.965 674.803 510.854 674.637 510.778 674.453C510.702 674.27 510.663 674.073 510.663 673.875C510.663 673.677 510.702 673.481 510.778 673.297C510.854 673.114 510.965 672.948 511.105 672.807C511.246 672.667 511.412 672.556 511.595 672.48C511.778 672.404 511.975 672.365 512.173 672.365H569.303V673.875C569.307 674.268 569.156 674.645 568.884 674.928C568.612 675.211 568.24 675.375 567.848 675.385Z" fill="#298EE0"/>
<path d="M569.303 672.399C569.245 670.845 568.721 669.343 567.796 668.091C566.873 666.839 565.593 665.895 564.125 665.382L545.68 658.958C545.497 658.886 545.301 658.855 545.104 658.867C544.908 658.878 544.716 658.931 544.542 659.023C544.368 659.115 544.216 659.244 544.097 659.4C543.977 659.557 543.893 659.737 543.85 659.929C543.037 662.628 541.042 668.402 537.1 672.399H512.173C511.974 672.399 511.778 672.437 511.594 672.513C511.411 672.588 511.243 672.699 511.103 672.84C510.963 672.98 510.852 673.147 510.776 673.331C510.701 673.515 510.662 673.711 510.663 673.909C510.659 674.109 510.694 674.308 510.769 674.493C510.843 674.678 510.954 674.847 511.095 674.988C511.236 675.129 511.405 675.24 511.59 675.314C511.775 675.389 511.974 675.424 512.173 675.42H567.848C568.234 675.42 568.603 675.267 568.877 674.993C569.149 674.721 569.303 674.35 569.303 673.964V672.399Z" fill="#298EE0"/>
<path d="M569.303 672.399C569.245 670.845 568.721 669.343 567.796 668.091C566.873 666.839 565.593 665.895 564.125 665.382L545.68 658.958C545.497 658.886 545.301 658.855 545.104 658.867C544.908 658.878 544.716 658.931 544.542 659.023C544.368 659.115 544.216 659.244 544.097 659.4C543.977 659.557 543.893 659.737 543.85 659.929C543.037 662.628 541.042 668.402 537.1 672.399H512.173C511.974 672.399 511.778 672.437 511.594 672.513C511.411 672.588 511.243 672.699 511.103 672.84C510.963 672.98 510.852 673.147 510.776 673.331C510.701 673.515 510.662 673.711 510.663 673.909C510.659 674.109 510.694 674.308 510.769 674.493C510.843 674.678 510.954 674.847 511.095 674.988C511.236 675.129 511.405 675.24 511.59 675.314C511.775 675.389 511.974 675.424 512.173 675.42H567.848C568.234 675.42 568.603 675.267 568.877 674.993C569.149 674.721 569.303 674.35 569.303 673.964V672.399Z" fill="#21252B"/>
<path opacity="0.4" d="M569.302 672.4C569.26 671.178 568.928 669.983 568.335 668.914C567.741 667.844 566.902 666.932 565.886 666.25C568.53 668.143 568.045 670.029 564.267 669.865C544.791 668.949 542.257 668.949 539.989 668.737C540.01 668.716 540.026 668.69 540.035 668.661C540.045 668.633 540.048 668.603 540.044 668.573C539.19 669.952 538.194 671.237 537.072 672.407H512.206C512.008 672.406 511.811 672.444 511.628 672.52C511.444 672.595 511.277 672.707 511.137 672.847C510.997 672.988 510.886 673.154 510.81 673.338C510.734 673.521 510.696 673.718 510.697 673.917C510.693 674.117 510.728 674.315 510.803 674.501C510.876 674.686 510.988 674.854 511.128 674.995C511.27 675.137 511.438 675.247 511.624 675.322C511.809 675.396 512.007 675.432 512.206 675.427H567.881C568.267 675.427 568.637 675.274 568.911 675.001C569.183 674.728 569.336 674.358 569.336 673.972L569.302 672.4Z" fill="black"/>
<path opacity="0.4" d="M569.303 671.879H537.531L537.093 672.364H569.303V671.879Z" fill="black"/>
<path d="M534.73 653.949L509.563 654.1L482.922 548.429H384.77V508.037H499.897C503.379 508.04 506.781 509.078 509.672 511.018C512.563 512.959 514.812 515.714 516.135 518.936L534.73 653.949Z" fill="#3F4249"/>
<path opacity="0.2" d="M516.285 654.633L508.88 654.1L482.922 548.429H384.77V508.037H480.046C483.527 508.04 486.929 509.078 489.82 511.018C492.711 512.959 494.961 515.714 496.283 518.936L516.285 654.633Z" fill="black"/>
<path d="M469.047 648.941L470.994 651.962C473.538 655.961 477.388 658.955 481.89 660.435L506.435 669.127C508.648 669.81 508.382 673.063 506.059 673.063H502.985C502.788 673.335 502.527 673.557 502.227 673.708C501.926 673.859 501.593 673.935 501.257 673.931C500.56 673.899 499.895 673.631 499.371 673.172C499.317 673.118 499.262 673.117 499.207 673.063H498.777C498.722 673.117 498.613 673.118 498.558 673.227C498.356 673.46 498.108 673.647 497.83 673.778C497.55 673.909 497.247 673.979 496.939 673.985C496.29 673.946 495.67 673.708 495.163 673.302C495.111 673.254 495.049 673.216 494.982 673.192C494.915 673.169 494.843 673.159 494.772 673.164C494.701 673.169 494.632 673.189 494.568 673.222C494.505 673.256 494.449 673.301 494.405 673.357C494.248 673.547 494.05 673.698 493.827 673.801C493.604 673.904 493.36 673.955 493.114 673.951C492.568 673.927 492.042 673.738 491.604 673.411C491.5 673.345 491.377 673.314 491.254 673.322C491.131 673.331 491.015 673.379 490.921 673.459C490.598 673.763 490.175 673.938 489.732 673.951C489.435 673.949 489.143 673.868 488.887 673.715C488.631 673.562 488.421 673.344 488.277 673.083H488.059L457.694 672.632C454.784 672.578 452.625 671.662 451.382 669.393L451.272 653.39L469.047 648.941Z" fill="#FC9D9D"/>
<path opacity="0.15" d="M507.083 669.393C507.029 669.338 506.92 669.283 506.872 669.235C506.748 669.171 506.621 669.116 506.49 669.071L506.004 668.907H505.95C505.869 668.948 505.797 669.003 505.738 669.071C505.542 669.311 505.295 669.503 505.015 669.632C504.734 669.763 504.428 669.828 504.119 669.823C503.468 669.823 502.837 669.596 502.335 669.181C502.225 669.096 502.088 669.055 501.949 669.065C501.812 669.075 501.681 669.136 501.585 669.235C501.426 669.424 501.227 669.574 501.002 669.676C500.777 669.778 500.533 669.828 500.286 669.823C499.74 669.801 499.213 669.613 498.777 669.283C498.671 669.22 498.549 669.191 498.427 669.201C498.304 669.21 498.188 669.259 498.094 669.338C497.91 669.52 497.687 669.658 497.441 669.739C497.196 669.821 496.935 669.844 496.678 669.808C496.422 669.772 496.178 669.676 495.965 669.529C495.752 669.382 495.575 669.188 495.45 668.962H495.238L480.237 668.723L483.393 660.974C481.568 663.927 479.232 666.53 476.494 668.661L464.833 668.477C461.922 668.422 459.764 667.507 458.521 665.238C457.777 663.92 457.508 662.388 457.757 660.897C458.005 659.405 458.757 658.043 459.887 657.038L469.02 648.913L455.487 652.583L451.389 653.266V669.42C452.632 671.689 454.804 672.604 457.701 672.659L488.072 673.144H488.29C488.434 673.405 488.645 673.623 488.9 673.776C489.156 673.929 489.448 674.01 489.745 674.012C490.189 673.998 490.611 673.823 490.934 673.52C491.027 673.437 491.145 673.388 491.268 673.379C491.392 673.371 491.515 673.403 491.617 673.472C492.059 673.798 492.587 673.986 493.134 674.012C493.38 674.016 493.624 673.965 493.848 673.862C494.071 673.759 494.268 673.607 494.426 673.417C494.47 673.362 494.525 673.316 494.589 673.283C494.652 673.25 494.721 673.23 494.792 673.225C494.863 673.22 494.935 673.23 495.002 673.253C495.07 673.277 495.131 673.314 495.184 673.363C495.69 673.769 496.311 674.009 496.959 674.046C497.267 674.04 497.571 673.97 497.849 673.839C498.129 673.708 498.377 673.521 498.578 673.288C498.633 673.178 498.742 673.178 498.797 673.124H499.227C499.282 673.178 499.337 673.178 499.391 673.233C499.916 673.692 500.581 673.96 501.277 673.991C501.613 673.996 501.946 673.92 502.247 673.769C502.548 673.618 502.808 673.396 503.006 673.124H506.08C508.163 673.083 508.593 670.472 507.083 669.393Z" fill="black"/>
<path d="M475.981 653.266L448.513 653.416L428.736 548.402H368.273C362.092 548.394 356.167 545.933 351.799 541.559C347.431 537.185 344.978 531.255 344.978 525.073V508.037H446.409C449.891 508.039 453.295 509.076 456.187 511.016C459.08 512.957 461.33 515.714 462.653 518.936L475.981 653.266Z" fill="#3F4249"/>
<path opacity="0.2" d="M344.978 524.615V508.037L351.693 508.372L357.958 522.941C358.809 524.925 360.224 526.616 362.028 527.804C363.831 528.992 365.943 529.625 368.102 529.624H429.583C435.588 529.624 439.584 530.696 442.795 533.84C445.432 536.493 447.015 540.014 447.249 543.748L455.487 652.583L447.829 652.733L429.385 548.429L369.092 548.654C365.93 548.664 362.796 548.05 359.872 546.846C356.947 545.642 354.288 543.873 352.048 541.64C349.808 539.407 348.03 536.754 346.817 533.832C345.604 530.91 344.979 527.778 344.978 524.615Z" fill="black"/>
<path d="M507.733 675.385H452.058C451.86 675.385 451.663 675.347 451.48 675.271C451.297 675.195 451.131 675.083 450.99 674.943C450.85 674.803 450.739 674.637 450.663 674.453C450.587 674.27 450.548 674.073 450.548 673.875C450.548 673.677 450.587 673.481 450.663 673.297C450.739 673.114 450.85 672.948 450.99 672.807C451.131 672.667 451.297 672.556 451.48 672.48C451.663 672.404 451.86 672.365 452.058 672.365H509.188V673.875C509.192 674.268 509.041 674.645 508.769 674.928C508.497 675.211 508.125 675.375 507.733 675.385Z" fill="#298EE0"/>
<path d="M509.188 672.399C509.13 670.845 508.606 669.343 507.682 668.091C506.758 666.839 505.478 665.895 504.01 665.382L485.565 658.958C485.382 658.886 485.186 658.855 484.989 658.867C484.793 658.878 484.601 658.931 484.427 659.023C484.253 659.115 484.101 659.244 483.982 659.4C483.862 659.557 483.778 659.737 483.735 659.929C482.922 662.628 480.927 668.402 476.985 672.399H452.058C451.859 672.399 451.663 672.437 451.479 672.513C451.296 672.588 451.128 672.699 450.988 672.84C450.848 672.98 450.737 673.147 450.661 673.331C450.586 673.515 450.547 673.711 450.548 673.909C450.544 674.109 450.579 674.308 450.654 674.493C450.728 674.678 450.839 674.847 450.98 674.988C451.121 675.129 451.29 675.24 451.475 675.314C451.66 675.389 451.859 675.424 452.058 675.42H507.733C508.119 675.42 508.488 675.267 508.762 674.993C509.034 674.721 509.188 674.35 509.188 673.964V672.399Z" fill="#298EE0"/>
<path d="M509.188 672.399C509.13 670.845 508.606 669.343 507.682 668.091C506.758 666.839 505.478 665.895 504.01 665.382L485.565 658.958C485.382 658.886 485.186 658.855 484.989 658.867C484.793 658.878 484.601 658.931 484.427 659.023C484.253 659.115 484.101 659.244 483.982 659.4C483.862 659.557 483.778 659.737 483.735 659.929C482.922 662.628 480.927 668.402 476.985 672.399H452.058C451.859 672.399 451.663 672.437 451.479 672.513C451.296 672.588 451.128 672.699 450.988 672.84C450.848 672.98 450.737 673.147 450.661 673.331C450.586 673.515 450.547 673.711 450.548 673.909C450.544 674.109 450.579 674.308 450.654 674.493C450.728 674.678 450.839 674.847 450.98 674.988C451.121 675.129 451.29 675.24 451.475 675.314C451.66 675.389 451.859 675.424 452.058 675.42H507.733C508.119 675.42 508.488 675.267 508.762 674.993C509.034 674.721 509.188 674.35 509.188 673.964V672.399Z" fill="#21252B"/>
<path opacity="0.4" d="M509.187 672.4C509.145 671.178 508.813 669.983 508.22 668.914C507.626 667.844 506.787 666.932 505.771 666.25C508.415 668.143 507.93 670.029 504.152 669.865C484.676 668.949 482.142 668.949 479.874 668.737C479.895 668.716 479.911 668.69 479.92 668.661C479.93 668.633 479.933 668.603 479.929 668.573C479.075 669.952 478.079 671.237 476.957 672.407H452.091C451.893 672.406 451.697 672.444 451.513 672.52C451.329 672.595 451.162 672.707 451.022 672.847C450.882 672.988 450.771 673.154 450.695 673.338C450.619 673.521 450.581 673.718 450.582 673.917C450.578 674.117 450.613 674.315 450.688 674.501C450.761 674.686 450.873 674.854 451.013 674.995C451.155 675.137 451.323 675.247 451.509 675.322C451.694 675.396 451.892 675.432 452.091 675.427H507.766C508.152 675.427 508.522 675.274 508.795 675.001C509.068 674.728 509.221 674.358 509.221 673.972L509.187 672.4Z" fill="black"/>
<path opacity="0.4" d="M509.188 671.879H477.416L476.978 672.364H509.188V671.879Z" fill="black"/>
<path d="M437.883 494.05L429.003 433.671C428.455 429.932 426.799 426.444 424.251 423.654C421.703 420.866 418.378 418.904 414.705 418.022L385.843 411.189L356.762 411.462L329.881 417.858C325.28 418.959 321.259 421.746 318.612 425.667C315.965 429.589 314.884 434.362 315.583 439.042L318.712 459.658L323.999 471.097C324.273 471.746 333.884 471.507 334.048 472.156L342.246 514.523C344.165 518.363 345.306 518.992 347.485 519.026C349.377 519.039 351.267 518.918 353.142 518.664C372.611 511.83 398.815 507.819 419.405 507.689V497.467L437.883 494.05Z" fill="#4DD188"/>
<path d="M423.052 433.186C422.858 433.188 422.669 433.12 422.519 432.995C422.37 432.869 422.271 432.694 422.24 432.502L421.864 429.912C421.839 429.801 421.838 429.687 421.86 429.575C421.882 429.464 421.927 429.358 421.992 429.265C422.056 429.172 422.141 429.094 422.237 429.034C422.334 428.975 422.442 428.937 422.554 428.922C422.667 428.906 422.781 428.915 422.891 428.946C422.999 428.978 423.101 429.032 423.188 429.104C423.275 429.176 423.346 429.266 423.397 429.368C423.448 429.469 423.477 429.58 423.483 429.694L423.859 432.284C423.876 432.389 423.872 432.496 423.847 432.6C423.822 432.704 423.776 432.801 423.712 432.886C423.648 432.972 423.568 433.044 423.475 433.097C423.383 433.151 423.281 433.186 423.175 433.199L423.052 433.186Z" fill="white"/>
<path d="M391.813 462.759C391.609 462.758 391.413 462.68 391.263 462.541C391.114 462.401 391.022 462.211 391.007 462.007L390.734 459.363C390.72 459.253 390.728 459.141 390.758 459.034C390.789 458.927 390.841 458.828 390.912 458.742C390.982 458.656 391.069 458.586 391.168 458.535C391.266 458.484 391.374 458.454 391.485 458.446C391.596 458.439 391.707 458.454 391.812 458.491C391.916 458.528 392.012 458.586 392.093 458.662C392.175 458.738 392.24 458.83 392.284 458.931C392.329 459.033 392.352 459.143 392.353 459.253L392.626 461.898C392.64 462.006 392.63 462.115 392.598 462.219C392.566 462.322 392.513 462.418 392.441 462.5C392.369 462.581 392.281 462.646 392.182 462.691C392.083 462.736 391.977 462.759 391.868 462.759H391.813Z" fill="white"/>
<path d="M348.278 432.433C348.072 432.43 347.875 432.351 347.725 432.21C347.575 432.07 347.482 431.879 347.465 431.674L347.198 429.029C347.197 428.823 347.275 428.624 347.416 428.472C347.557 428.32 347.75 428.228 347.957 428.214C348.163 428.201 348.366 428.266 348.527 428.397C348.687 428.528 348.791 428.715 348.817 428.92L349.084 431.565C349.098 431.673 349.09 431.782 349.058 431.886C349.028 431.99 348.975 432.087 348.904 432.169C348.833 432.251 348.745 432.317 348.646 432.362C348.548 432.408 348.441 432.432 348.332 432.433C348.332 432.378 348.278 432.433 348.278 432.433Z" fill="white"/>
<path d="M366.564 468.698C366.389 468.701 366.217 468.643 366.079 468.534C365.922 468.393 365.824 468.198 365.803 467.988C365.783 467.778 365.843 467.568 365.97 467.399L367.644 465.349C367.782 465.193 367.976 465.097 368.184 465.08C368.392 465.064 368.599 465.129 368.76 465.262C368.921 465.394 369.024 465.585 369.048 465.792C369.072 466 369.014 466.208 368.887 466.374L367.213 468.424C367.032 468.583 366.805 468.679 366.564 468.698Z" fill="white"/>
<path d="M404.116 421.692C403.916 421.692 403.723 421.616 403.577 421.48C403.419 421.339 403.32 421.145 403.301 420.934C403.28 420.724 403.34 420.514 403.467 420.346L405.032 418.453C405.17 418.296 405.364 418.2 405.572 418.184C405.78 418.167 405.987 418.233 406.148 418.365C406.308 418.498 406.412 418.689 406.435 418.896C406.459 419.103 406.402 419.312 406.275 419.478L404.711 421.371C404.643 421.466 404.554 421.545 404.451 421.6C404.348 421.656 404.233 421.687 404.116 421.692Z" fill="white"/>
<path d="M366.893 444.522C366.759 444.512 366.629 444.473 366.51 444.409C366.392 444.344 366.29 444.254 366.21 444.146L364.912 442.041C364.797 441.855 364.761 441.63 364.811 441.417C364.862 441.203 364.995 441.019 365.182 440.904C365.368 440.788 365.593 440.753 365.806 440.803C366.02 440.854 366.204 440.987 366.319 441.174L367.61 443.278C367.716 443.466 367.747 443.688 367.698 443.897C367.648 444.107 367.522 444.291 367.344 444.413C367.199 444.469 367.047 444.506 366.893 444.522Z" fill="white"/>
<path d="M409.192 477.116C408.99 477.116 408.797 477.038 408.652 476.898C408.494 476.757 408.396 476.562 408.375 476.352C408.356 476.141 408.415 475.931 408.543 475.763L410.107 473.877C410.249 473.721 410.443 473.624 410.653 473.603C410.863 473.583 411.072 473.642 411.241 473.768C411.4 473.907 411.499 474.103 411.52 474.313C411.54 474.524 411.48 474.734 411.35 474.902L409.786 476.795C409.732 476.903 409.646 476.992 409.539 477.049C409.433 477.107 409.312 477.13 409.192 477.116Z" fill="white"/>
<path d="M404.116 445.71C404.039 445.719 403.962 445.699 403.898 445.656L401.254 444.849C401.055 444.778 400.893 444.632 400.798 444.443C400.704 444.254 400.686 444.037 400.749 443.835C400.811 443.634 400.949 443.463 401.134 443.361C401.318 443.258 401.535 443.231 401.739 443.284L404.383 444.098C404.59 444.162 404.763 444.306 404.864 444.498C404.965 444.691 404.987 444.915 404.922 445.123C404.873 445.297 404.767 445.449 404.621 445.556C404.475 445.663 404.297 445.717 404.116 445.71Z" fill="white"/>
<path d="M424.508 464.919L424.344 464.755L422.779 462.438C422.718 462.35 422.675 462.25 422.652 462.145C422.63 462.04 422.629 461.931 422.649 461.825C422.67 461.719 422.711 461.619 422.771 461.529C422.831 461.44 422.908 461.363 422.998 461.304C423.086 461.241 423.186 461.196 423.291 461.173C423.397 461.15 423.506 461.148 423.612 461.168C423.719 461.189 423.82 461.231 423.909 461.292C423.998 461.352 424.074 461.431 424.132 461.523L425.696 463.839C425.802 464.001 425.847 464.196 425.823 464.388C425.798 464.579 425.706 464.756 425.562 464.887C425.42 465.017 425.234 465.091 425.041 465.097C424.848 465.103 424.659 465.04 424.508 464.919Z" fill="white"/>
<path d="M386.799 431.08C386.722 431.088 386.645 431.069 386.58 431.026L383.916 430.219C383.718 430.147 383.555 430.002 383.461 429.813C383.366 429.624 383.349 429.406 383.411 429.204C383.474 429.003 383.612 428.833 383.796 428.731C383.98 428.628 384.197 428.601 384.401 428.654L387.045 429.461C387.251 429.528 387.421 429.672 387.522 429.864C387.623 430.055 387.645 430.278 387.585 430.486C387.527 430.65 387.421 430.795 387.281 430.9C387.141 431.006 386.974 431.069 386.799 431.08Z" fill="white"/>
<path d="M384.53 484.776C384.454 484.785 384.376 484.766 384.312 484.722L381.668 483.915C381.461 483.851 381.288 483.706 381.187 483.513C381.087 483.32 381.067 483.095 381.132 482.887C381.197 482.68 381.342 482.507 381.535 482.406C381.728 482.306 381.953 482.286 382.16 482.351L384.804 483.157C385.009 483.225 385.18 483.37 385.281 483.561C385.382 483.752 385.404 483.975 385.343 484.182C385.281 484.35 385.17 484.496 385.026 484.602C384.882 484.707 384.709 484.768 384.53 484.776Z" fill="white"/>
<path opacity="0.2" d="M349.951 482.891L345.661 440.962C345.64 440.848 345.664 440.73 345.729 440.634C345.795 440.537 345.896 440.471 346.01 440.449C346.124 440.427 346.242 440.452 346.338 440.518C346.434 440.583 346.5 440.684 346.522 440.798L359.795 484.347L349.951 482.891Z" fill="black"/>
<path opacity="0.2" d="M409.779 499.728L409.833 499.673L409.943 499.782L409.779 499.728Z" fill="black"/>
<path d="M429.201 502.249C428.939 502.573 428.562 502.782 428.149 502.833C427.736 502.884 427.319 502.773 426.987 502.523L417.424 495.505L429.556 501.06C429.581 501.272 429.563 501.487 429.502 501.692C429.44 501.896 429.338 502.086 429.201 502.249Z" fill="#868A91"/>
<path opacity="0.6" d="M381.348 471.5C381.561 471.5 381.77 471.436 381.947 471.318C382.125 471.199 382.263 471.031 382.345 470.834C382.426 470.636 382.448 470.419 382.406 470.21C382.365 470 382.262 469.808 382.111 469.657C381.96 469.506 381.768 469.403 381.558 469.361C381.349 469.319 381.132 469.341 380.935 469.423C380.738 469.505 380.569 469.643 380.45 469.82C380.332 469.998 380.268 470.206 380.268 470.42C380.268 470.562 380.296 470.703 380.35 470.834C380.405 470.964 380.484 471.083 380.585 471.184C380.685 471.284 380.804 471.363 380.935 471.418C381.066 471.472 381.206 471.5 381.348 471.5Z" fill="black"/>
<path opacity="0.6" d="M426.345 452.128C426.559 452.128 426.767 452.065 426.945 451.946C427.122 451.827 427.26 451.659 427.342 451.461C427.424 451.264 427.446 451.046 427.404 450.837C427.362 450.628 427.259 450.436 427.108 450.285C426.958 450.134 426.765 450.031 426.555 449.989C426.346 449.948 426.129 449.969 425.932 450.051C425.735 450.132 425.566 450.271 425.448 450.448C425.329 450.626 425.266 450.835 425.266 451.048C425.266 451.334 425.38 451.609 425.582 451.811C425.784 452.014 426.059 452.128 426.345 452.128Z" fill="black"/>
<path opacity="0.6" d="M405.517 431.464C405.73 431.464 405.939 431.4 406.116 431.282C406.294 431.163 406.432 430.994 406.514 430.797C406.595 430.6 406.617 430.382 406.575 430.173C406.534 429.964 406.431 429.772 406.28 429.621C406.129 429.47 405.937 429.366 405.727 429.325C405.518 429.283 405.301 429.305 405.103 429.386C404.907 429.468 404.738 429.606 404.619 429.784C404.501 429.962 404.437 430.171 404.437 430.384C404.437 430.67 404.551 430.945 404.754 431.147C404.956 431.35 405.23 431.464 405.517 431.464Z" fill="black"/>
<path opacity="0.6" d="M382.748 446.25C382.961 446.25 383.17 446.187 383.348 446.068C383.526 445.949 383.664 445.781 383.746 445.583C383.827 445.386 383.849 445.169 383.807 444.959C383.765 444.75 383.662 444.558 383.511 444.407C383.36 444.256 383.168 444.153 382.959 444.111C382.75 444.07 382.532 444.091 382.335 444.173C382.138 444.255 381.969 444.393 381.851 444.571C381.732 444.748 381.669 444.957 381.669 445.17C381.669 445.312 381.697 445.453 381.751 445.583C381.805 445.714 381.885 445.833 381.985 445.934C382.085 446.034 382.204 446.113 382.335 446.167C382.466 446.222 382.606 446.25 382.748 446.25Z" fill="black"/>
<path opacity="0.6" d="M409.998 485.426C410.211 485.426 410.42 485.362 410.597 485.243C410.775 485.125 410.913 484.956 410.995 484.759C411.077 484.562 411.098 484.345 411.056 484.136C411.015 483.926 410.912 483.734 410.761 483.583C410.61 483.432 410.417 483.329 410.208 483.287C409.999 483.245 409.782 483.266 409.585 483.348C409.387 483.43 409.219 483.568 409.1 483.746C408.982 483.924 408.919 484.132 408.919 484.346C408.919 484.632 409.032 484.907 409.234 485.109C409.437 485.312 409.712 485.426 409.998 485.426Z" fill="black"/>
<path opacity="0.6" d="M431.175 483.376C431.388 483.376 431.597 483.312 431.774 483.193C431.952 483.075 432.09 482.906 432.172 482.709C432.254 482.512 432.275 482.295 432.233 482.086C432.191 481.876 432.089 481.684 431.938 481.533C431.787 481.382 431.594 481.279 431.385 481.237C431.176 481.195 430.959 481.216 430.762 481.298C430.564 481.38 430.396 481.518 430.277 481.696C430.158 481.874 430.096 482.082 430.096 482.296C430.096 482.437 430.124 482.578 430.178 482.709C430.232 482.84 430.311 482.959 430.411 483.059C430.512 483.16 430.63 483.239 430.762 483.293C430.893 483.348 431.033 483.376 431.175 483.376Z" fill="black"/>
<path opacity="0.6" d="M406.002 461.414C406.216 461.414 406.424 461.35 406.602 461.232C406.779 461.113 406.917 460.945 406.999 460.748C407.08 460.55 407.102 460.333 407.061 460.124C407.019 459.914 406.916 459.722 406.765 459.571C406.614 459.42 406.422 459.317 406.212 459.275C406.003 459.233 405.786 459.255 405.588 459.337C405.392 459.419 405.223 459.557 405.104 459.734C404.986 459.912 404.922 460.121 404.922 460.334C404.922 460.476 404.95 460.617 405.004 460.748C405.059 460.878 405.138 460.998 405.239 461.098C405.338 461.198 405.458 461.277 405.588 461.332C405.72 461.386 405.86 461.414 406.002 461.414Z" fill="black"/>
<path opacity="0.6" d="M363.709 425.252C363.923 425.252 364.132 425.188 364.309 425.07C364.486 424.951 364.625 424.783 364.707 424.586C364.788 424.388 364.809 424.171 364.768 423.962C364.727 423.752 364.623 423.56 364.472 423.409C364.322 423.258 364.13 423.155 363.92 423.114C363.711 423.072 363.494 423.093 363.296 423.175C363.099 423.257 362.931 423.395 362.812 423.572C362.693 423.75 362.63 423.959 362.63 424.172C362.63 424.314 362.658 424.455 362.712 424.586C362.766 424.717 362.846 424.836 362.946 424.936C363.046 425.036 363.165 425.115 363.296 425.17C363.427 425.224 363.567 425.252 363.709 425.252Z" fill="black"/>
<path opacity="0.6" d="M357.772 452.721C357.986 452.721 358.194 452.658 358.372 452.54C358.55 452.421 358.688 452.253 358.77 452.055C358.852 451.858 358.873 451.641 358.831 451.431C358.789 451.222 358.687 451.029 358.536 450.878C358.385 450.727 358.192 450.625 357.983 450.583C357.774 450.542 357.556 450.563 357.36 450.645C357.162 450.726 356.993 450.865 356.875 451.042C356.756 451.219 356.693 451.428 356.693 451.642C356.693 451.784 356.721 451.924 356.776 452.055C356.83 452.186 356.909 452.305 357.009 452.406C357.11 452.505 357.228 452.585 357.36 452.639C357.49 452.693 357.631 452.721 357.772 452.721Z" fill="black"/>
<path d="M324.894 436.582C324.718 436.585 324.547 436.527 324.409 436.418C324.251 436.277 324.153 436.082 324.133 435.872C324.113 435.662 324.172 435.451 324.299 435.283L325.973 433.233C326.039 433.147 326.122 433.075 326.215 433.022C326.31 432.968 326.414 432.935 326.521 432.922C326.629 432.91 326.738 432.92 326.842 432.95C326.946 432.981 327.043 433.032 327.126 433.101C327.209 433.17 327.278 433.255 327.328 433.351C327.378 433.447 327.408 433.552 327.417 433.66C327.425 433.768 327.412 433.877 327.377 433.979C327.343 434.083 327.289 434.177 327.216 434.258L325.543 436.308C325.361 436.467 325.134 436.563 324.894 436.582Z" fill="white"/>
<path d="M432.418 455.1L413.974 457.15L418.073 499.517L437.787 494.351L432.418 455.1Z" fill="#FC9D9D"/>
<path d="M325.577 454.348C325.401 454.352 325.23 454.294 325.092 454.184C324.935 454.044 324.836 453.849 324.816 453.638C324.796 453.429 324.855 453.218 324.982 453.05L326.656 451C326.722 450.914 326.805 450.842 326.899 450.789C326.993 450.735 327.097 450.701 327.205 450.689C327.313 450.677 327.421 450.686 327.525 450.717C327.629 450.748 327.726 450.799 327.809 450.868C327.893 450.936 327.962 451.022 328.011 451.117C328.061 451.214 328.091 451.319 328.1 451.427C328.108 451.535 328.095 451.644 328.061 451.746C328.026 451.849 327.972 451.944 327.899 452.025L326.226 454.075C326.045 454.234 325.817 454.329 325.577 454.348Z" fill="white"/>
<path opacity="0.6" d="M335.912 422.655C336.126 422.655 336.334 422.592 336.512 422.473C336.69 422.354 336.828 422.186 336.91 421.988C336.992 421.791 337.013 421.574 336.971 421.364C336.929 421.155 336.827 420.963 336.676 420.812C336.525 420.661 336.332 420.558 336.123 420.516C335.914 420.475 335.696 420.496 335.5 420.578C335.302 420.659 335.133 420.798 335.015 420.976C334.896 421.153 334.833 421.362 334.833 421.575C334.833 421.861 334.947 422.136 335.149 422.339C335.351 422.541 335.626 422.655 335.912 422.655Z" fill="black"/>
<path opacity="0.6" d="M335.912 441.788C336.126 441.788 336.334 441.725 336.512 441.606C336.69 441.487 336.828 441.319 336.91 441.122C336.992 440.924 337.013 440.708 336.971 440.498C336.929 440.289 336.827 440.096 336.676 439.945C336.525 439.794 336.332 439.691 336.123 439.65C335.914 439.608 335.696 439.629 335.5 439.711C335.302 439.793 335.133 439.931 335.015 440.109C334.896 440.286 334.833 440.495 334.833 440.708C334.833 440.995 334.947 441.269 335.149 441.472C335.351 441.675 335.626 441.788 335.912 441.788Z" fill="black"/>
<path opacity="0.6" d="M358.853 481.49C359.066 481.49 359.274 481.426 359.452 481.308C359.629 481.189 359.768 481.02 359.849 480.823C359.931 480.626 359.952 480.409 359.911 480.2C359.869 479.99 359.767 479.798 359.616 479.647C359.465 479.496 359.272 479.393 359.063 479.351C358.853 479.309 358.637 479.331 358.439 479.412C358.242 479.494 358.073 479.632 357.955 479.81C357.836 479.988 357.773 480.196 357.773 480.41C357.773 480.696 357.887 480.971 358.089 481.173C358.292 481.376 358.566 481.49 358.853 481.49Z" fill="black"/>
<path opacity="0.2" d="M412.314 440.75L417.444 491.317L421.918 495.745L426.017 493.011L417.061 444.44C416.146 440.477 412.314 440.149 412.314 440.75Z" fill="black"/>
<path opacity="0.6" d="M356.694 411.441C356.694 411.441 356.154 413.648 357.882 414.728C359.822 415.862 367.323 420.878 377.898 417.7C380.234 416.982 382.437 415.888 384.422 414.461C384.787 414.203 385.096 413.874 385.33 413.494C385.565 413.113 385.721 412.69 385.788 412.247V411.222L388.753 411.906C388.743 412.681 388.581 413.448 388.275 414.161C387.969 414.874 387.526 415.519 386.97 416.06C386.109 416.921 373.307 426.796 357.028 417.68C355.974 417.213 355.098 416.421 354.525 415.421C353.952 414.42 353.714 413.263 353.845 412.118L356.694 411.441Z" fill="black"/>
<path d="M397.579 489.854L405.243 490.879L421.591 489.423C423.009 489.45 424.361 490.029 425.361 491.036L435.451 500.049C435.763 500.326 435.956 500.713 435.989 501.129C436.022 501.546 435.891 501.959 435.625 502.281C435.36 502.603 434.98 502.81 434.565 502.857C434.151 502.905 433.733 502.79 433.402 502.536L423.838 495.518L430.048 502.857C430.21 503.049 430.324 503.277 430.38 503.522C430.436 503.768 430.432 504.023 430.369 504.266C430.305 504.51 430.184 504.735 430.015 504.921C429.845 505.107 429.634 505.25 429.399 505.338C429.125 505.437 428.83 505.46 428.544 505.404C428.259 505.347 427.994 505.213 427.78 505.017L419.473 496.865L425.785 503.076C426.032 503.338 426.172 503.684 426.181 504.044C426.189 504.405 426.064 504.755 425.829 505.029C425.594 505.302 425.267 505.48 424.909 505.527C424.552 505.574 424.19 505.487 423.893 505.283L415.067 498.833L421.058 503.254C421.22 503.371 421.352 503.524 421.443 503.703C421.534 503.881 421.582 504.079 421.582 504.279C421.582 504.478 421.534 504.676 421.443 504.854C421.352 505.032 421.22 505.186 421.058 505.304C420.882 505.434 420.675 505.518 420.457 505.546C420.239 505.575 420.019 505.548 419.814 505.468L411.774 502.119C411.389 501.955 410.973 501.875 410.555 501.885C410.137 501.895 409.726 501.993 409.349 502.174L406.275 503.684C403.782 504.914 401.041 505.555 398.262 505.557H393.248C386.041 505.557 397.579 489.854 397.579 489.854Z" fill="#FC9D9D"/>
<path opacity="0.15" d="M350.006 483.751L347.308 483.54C347.125 483.524 346.949 483.464 346.794 483.365C346.641 483.266 346.513 483.13 346.423 482.971C346.333 482.812 346.283 482.633 346.277 482.45C346.272 482.267 346.312 482.085 346.392 481.92L349.248 476.146L350.006 483.751Z" fill="black"/>
<path opacity="0.15" d="M421.058 503.507C421.028 503.511 420.998 503.509 420.97 503.499C420.941 503.49 420.915 503.474 420.894 503.453L415.388 499.407C415.33 499.363 415.294 499.298 415.285 499.226C415.276 499.154 415.296 499.082 415.34 499.025C415.36 498.997 415.387 498.972 415.417 498.954C415.448 498.936 415.481 498.924 415.516 498.919C415.551 498.914 415.587 498.916 415.621 498.924C415.655 498.933 415.687 498.949 415.716 498.97L421.215 503.022C421.324 503.131 421.379 503.289 421.269 503.398C421.211 503.455 421.138 503.494 421.058 503.507Z" fill="black"/>
<path opacity="0.15" d="M425.751 503.343C425.696 503.343 425.587 503.343 425.587 503.288L419.65 497.466C419.601 497.416 419.573 497.348 419.573 497.278C419.573 497.208 419.601 497.14 419.65 497.09C419.675 497.064 419.705 497.044 419.738 497.03C419.771 497.016 419.806 497.009 419.842 497.009C419.877 497.009 419.913 497.016 419.946 497.03C419.978 497.044 420.008 497.064 420.033 497.09L425.962 502.919C425.988 502.943 426.008 502.972 426.022 503.004C426.036 503.036 426.042 503.071 426.042 503.107C426.042 503.142 426.036 503.177 426.022 503.209C426.008 503.241 425.988 503.27 425.962 503.295C425.9 503.336 425.824 503.353 425.751 503.343Z" fill="black"/>
<path opacity="0.15" d="M413.556 501.129C415.387 502.051 418.468 503.616 419.547 504.204C421.057 505.071 421.487 503.937 421.487 503.937C421.549 504.187 421.536 504.45 421.45 504.693C421.364 504.936 421.208 505.148 421.002 505.304C420.826 505.434 420.62 505.518 420.402 505.547C420.185 505.576 419.963 505.548 419.759 505.468L411.719 502.119C411.334 501.955 410.919 501.876 410.501 501.885C410.083 501.895 409.671 501.993 409.294 502.174L410.858 501.258C411.266 501.026 411.723 500.894 412.192 500.871C412.661 500.848 413.128 500.937 413.556 501.129Z" fill="black"/>
<path d="M396.349 490.497L350.006 483.697L346.98 454.314L318.063 455.783L323.945 493.291C324.478 496.702 326.212 499.81 328.833 502.057C331.454 504.303 334.791 505.54 338.243 505.544H390.953L396.349 490.497Z" fill="#298EE0"/>
<path d="M402.661 490.497L350.006 483.752L346.98 454.369L318.063 455.852L323.945 493.367C324.478 496.777 326.212 499.886 328.833 502.132C331.454 504.378 334.791 505.615 338.243 505.619H397.429L402.661 490.497Z" fill="#FC9D9D"/>
<path d="M347.615 459.849L344.978 439.383L318.063 455.797L319.019 462.617L347.615 459.849Z" fill="#35A868"/>
<path opacity="0.15" d="M398.343 502.857L397.476 505.502H338.296C334.843 505.506 331.502 504.273 328.879 502.025C326.256 499.778 324.525 496.664 323.999 493.25L315.528 439.014C314.826 434.333 315.905 429.559 318.553 425.637C321.2 421.714 325.223 418.928 329.826 417.83L334.84 416.641C331.059 418.318 327.935 421.192 325.946 424.819C323.958 428.447 323.216 432.627 323.835 436.718L331.663 486.69C332.197 490.099 333.93 493.205 336.55 495.45C339.17 497.696 342.504 498.931 345.954 498.935L398.343 502.857Z" fill="black"/>
<g opacity="0.2">
<path opacity="0.2" d="M397.968 489.472C397.952 489.563 397.905 489.645 397.836 489.705C397.766 489.764 397.678 489.798 397.586 489.8H397.531L349.951 482.891L349.842 482.03L397.661 488.987C397.762 489.015 397.851 489.081 397.907 489.17C397.964 489.26 397.986 489.367 397.968 489.472Z" fill="black"/>
</g>
<path d="M352.008 515.335C351.831 515.339 351.659 515.281 351.523 515.171C351.364 515.032 351.264 514.838 351.245 514.629C351.224 514.419 351.284 514.21 351.413 514.044L353.087 511.994C353.225 511.837 353.419 511.741 353.627 511.724C353.835 511.708 354.041 511.773 354.202 511.906C354.364 512.039 354.467 512.229 354.491 512.436C354.515 512.644 354.457 512.853 354.33 513.019L352.657 515.069C352.473 515.222 352.246 515.315 352.008 515.335Z" fill="white"/>
<path opacity="0.6" d="M363.812 510.026C364.026 510.027 364.235 509.965 364.414 509.847C364.592 509.729 364.731 509.561 364.814 509.363C364.897 509.167 364.919 508.949 364.878 508.74C364.837 508.529 364.735 508.336 364.585 508.185C364.434 508.033 364.242 507.93 364.032 507.887C363.822 507.845 363.605 507.866 363.408 507.948C363.209 508.029 363.041 508.168 362.922 508.345C362.803 508.523 362.739 508.732 362.739 508.946C362.739 509.087 362.765 509.228 362.819 509.359C362.873 509.489 362.951 509.608 363.051 509.709C363.151 509.809 363.269 509.889 363.4 509.943C363.53 509.998 363.671 510.026 363.812 510.026Z" fill="black"/>
<path opacity="0.15" d="M397.428 505.557H398.18C400.971 505.56 403.724 504.912 406.22 503.664L409.889 501.942C409.028 502.051 406.76 502.912 403.577 502.912C402.333 502.912 400.311 502.912 398.262 502.912" fill="black"/>
<path d="M388.199 379.332C388.199 379.332 363.491 361.196 361.066 380.951L360.383 386.131L356.714 411.415V411.469L356.66 412.009C356.607 412.36 356.627 412.72 356.72 413.063C356.813 413.406 356.977 413.727 357.199 414.004V414.1L357.254 414.155C357.43 414.39 357.65 414.591 357.903 414.742C359.44 415.752 361.085 416.587 362.808 417.23C366.49 418.634 370.47 419.073 374.37 418.506C378.27 417.94 381.96 416.385 385.091 413.991C385.585 413.384 385.83 412.612 385.774 411.831L385.344 398.663C385.789 397.187 386.077 395.669 386.205 394.133C387.011 386.343 388.199 379.332 388.199 379.332Z" fill="#FC9D9D"/>
<path d="M331.883 454.983C331.677 454.98 331.48 454.901 331.33 454.76C331.18 454.62 331.087 454.429 331.07 454.224L330.803 451.579C330.802 451.373 330.88 451.174 331.021 451.022C331.162 450.87 331.355 450.778 331.562 450.764C331.768 450.751 331.971 450.816 332.132 450.947C332.292 451.078 332.396 451.265 332.422 451.47L332.689 454.115C332.703 454.223 332.695 454.332 332.663 454.436C332.633 454.54 332.58 454.637 332.509 454.719C332.438 454.801 332.35 454.867 332.251 454.912C332.153 454.958 332.046 454.982 331.937 454.983C331.937 454.928 331.883 454.983 331.883 454.983Z" fill="white"/>
<path d="M391.007 380.733C392.748 380.733 394.449 380.217 395.896 379.249C397.343 378.282 398.471 376.907 399.137 375.298C399.802 373.69 399.977 371.919 399.636 370.212C399.296 368.505 398.457 366.936 397.226 365.706C395.995 364.475 394.427 363.637 392.72 363.298C391.013 362.96 389.243 363.135 387.635 363.802C386.028 364.469 384.654 365.598 383.688 367.047C382.722 368.495 382.207 370.197 382.208 371.938C382.208 373.094 382.436 374.238 382.879 375.306C383.321 376.373 383.969 377.343 384.786 378.159C385.603 378.976 386.573 379.624 387.641 380.065C388.708 380.507 389.852 380.733 391.007 380.733Z" fill="#21252B"/>
<path d="M392.114 365.583C392.114 365.583 398.481 404.814 378.451 405.948C361.127 406.973 361.237 380.152 361.237 380.152L363.382 362.85L392.114 365.583Z" fill="#FC9D9D"/>
<path d="M390.843 367.886H373.253C372.729 367.886 372.209 367.99 371.724 368.191C371.24 368.392 370.8 368.686 370.429 369.057C370.059 369.429 369.765 369.87 369.565 370.354C369.365 370.84 369.262 371.359 369.263 371.884C369.265 372.408 369.161 372.927 368.961 373.412C368.761 373.897 368.467 374.337 368.097 374.708C367.726 375.078 367.286 375.372 366.802 375.572C366.318 375.772 365.798 375.875 365.274 375.874C365.132 375.874 364.992 375.902 364.861 375.956C364.73 376.011 364.611 376.09 364.511 376.191C364.41 376.291 364.331 376.41 364.277 376.541C364.222 376.672 364.194 376.813 364.194 376.954V380.842C364.194 380.963 364.17 381.083 364.124 381.194C364.078 381.305 364.01 381.407 363.924 381.492C363.838 381.577 363.737 381.644 363.625 381.69C363.513 381.736 363.393 381.758 363.272 381.758C363.061 381.758 362.857 381.681 362.699 381.541C362.541 381.402 362.438 381.209 362.411 380.999L361.872 377.282L361.189 375.984L356.878 378.252C356.878 378.252 350.942 367.456 354.829 358.34C357.035 353.099 362.487 351.643 364.966 351.507C365.369 351.475 365.76 351.356 366.113 351.161C366.467 350.965 366.775 350.696 367.016 350.372C368.15 348.698 370.848 345.89 376.354 346.539C377.911 346.657 379.411 347.17 380.714 348.03C382.016 348.89 383.079 350.068 383.8 351.452C384.12 352.007 384.623 352.433 385.222 352.659C385.821 352.884 386.48 352.895 387.086 352.689C388.3 352.23 389.611 352.088 390.894 352.277C392.178 352.466 393.392 352.979 394.423 353.768C400.017 357.636 396.991 367.401 390.843 367.886Z" fill="#21252B"/>
<path opacity="0.15" d="M360.143 387.449C360.143 387.449 361.762 387.723 362.685 387.073L359.604 391.173L360.143 387.449Z" fill="black"/>
<path d="M390.897 368.699L388.848 368.754C388.747 368.75 388.652 368.708 388.579 368.638C388.508 368.567 388.464 368.472 388.457 368.372C388.45 368.271 388.481 368.172 388.543 368.092C388.605 368.013 388.694 367.959 388.794 367.941L390.843 367.886C391.099 367.883 391.353 367.848 391.601 367.784C392.447 367.564 393.262 367.238 394.027 366.813C394.071 366.776 394.124 366.75 394.18 366.736C394.236 366.722 394.295 366.72 394.352 366.732C394.409 366.743 394.463 366.766 394.509 366.8C394.557 366.835 394.596 366.879 394.624 366.929C394.652 366.981 394.668 367.037 394.671 367.095C394.675 367.153 394.667 367.211 394.645 367.265C394.624 367.319 394.591 367.368 394.549 367.408C394.507 367.448 394.457 367.478 394.402 367.497C393.577 367.969 392.686 368.315 391.759 368.522C391.487 368.643 391.194 368.703 390.897 368.699Z" fill="#FC9D9D"/>
<path opacity="0.15" d="M385.774 409.603L385.556 403.344C383.78 404.963 378.813 407.068 373.581 405.394C370.937 404.533 368.632 402.859 366.995 400.61C366.932 400.532 366.844 400.478 366.745 400.458C366.647 400.438 366.544 400.453 366.456 400.501C366.378 400.564 366.324 400.653 366.305 400.752C366.286 400.851 366.303 400.953 366.353 401.041C368.476 403.911 371.591 405.886 375.09 406.583C376.576 407.781 378.288 408.666 380.124 409.185C381.96 409.704 383.882 409.846 385.774 409.603Z" fill="black"/>
<path opacity="0.3" d="M380.596 398.903H378.164C378.022 398.903 377.884 398.845 377.782 398.744C377.681 398.643 377.625 398.506 377.625 398.363C377.625 398.219 377.681 398.082 377.782 397.981C377.884 397.88 378.022 397.823 378.164 397.823H380.542C380.685 397.823 380.822 397.88 380.923 397.981C381.025 398.082 381.081 398.219 381.081 398.363C381.055 398.487 380.997 398.603 380.911 398.698C380.826 398.793 380.717 398.863 380.596 398.903Z" fill="black"/>
<path opacity="0.3" d="M377.693 394.283C381.259 394.017 382.714 396.046 383.199 397.058C383.226 397.145 383.221 397.239 383.185 397.323C383.149 397.407 383.085 397.477 383.004 397.518C382.922 397.56 382.828 397.571 382.739 397.551C382.65 397.53 382.571 397.479 382.516 397.406C382.031 396.443 380.466 394.283 376.088 395.356C375.982 395.379 375.872 395.36 375.782 395.303C375.69 395.245 375.626 395.154 375.603 395.049C375.579 394.943 375.598 394.833 375.656 394.742C375.713 394.651 375.805 394.587 375.91 394.563C376.493 394.41 377.09 394.315 377.693 394.283Z" fill="black"/>
<path d="M376.545 385.208C376.855 385.208 377.157 385.116 377.414 384.944C377.672 384.772 377.872 384.527 377.991 384.242C378.109 383.956 378.14 383.641 378.08 383.338C378.019 383.034 377.871 382.756 377.651 382.536C377.433 382.317 377.154 382.168 376.851 382.108C376.547 382.048 376.232 382.079 375.947 382.197C375.661 382.315 375.416 382.516 375.245 382.773C375.073 383.031 374.981 383.334 374.981 383.643C374.98 383.849 375.02 384.052 375.098 384.243C375.176 384.433 375.292 384.606 375.437 384.752C375.583 384.897 375.756 385.012 375.946 385.09C376.135 385.169 376.34 385.209 376.545 385.208Z" fill="#21252B"/>
<path d="M377.304 384.348C377.388 384.348 377.47 384.314 377.53 384.253C377.591 384.193 377.625 384.111 377.625 384.027C377.625 383.94 377.591 383.858 377.531 383.797C377.471 383.735 377.389 383.7 377.304 383.699C377.217 383.7 377.135 383.735 377.073 383.796C377.013 383.858 376.977 383.94 376.976 384.027C376.977 384.112 377.013 384.194 377.074 384.254C377.136 384.314 377.218 384.348 377.304 384.348Z" fill="white"/>
<path d="M389.06 386.184C389.37 386.184 389.672 386.093 389.929 385.921C390.187 385.749 390.387 385.505 390.506 385.219C390.624 384.933 390.655 384.618 390.594 384.315C390.534 384.011 390.385 383.732 390.167 383.513C389.947 383.295 389.669 383.146 389.365 383.085C389.062 383.025 388.747 383.056 388.462 383.174C388.175 383.293 387.932 383.494 387.759 383.75C387.588 384.008 387.496 384.31 387.496 384.62C387.496 385.035 387.66 385.433 387.954 385.727C388.247 386.02 388.645 386.184 389.06 386.184Z" fill="#21252B"/>
<path d="M389.819 385.263C389.882 385.263 389.944 385.244 389.997 385.209C390.049 385.174 390.091 385.123 390.115 385.064C390.14 385.006 390.146 384.941 390.133 384.879C390.121 384.817 390.09 384.76 390.045 384.715C390.001 384.67 389.944 384.639 389.881 384.626C389.818 384.614 389.754 384.621 389.696 384.645C389.637 384.67 389.587 384.711 389.551 384.763C389.517 384.816 389.497 384.878 389.497 384.941C389.497 385.027 389.531 385.109 389.592 385.169C389.652 385.229 389.733 385.263 389.819 385.263Z" fill="white"/>
<path opacity="0.3" d="M383.021 392.232H380.863C380.734 392.232 380.611 392.181 380.52 392.09C380.429 391.999 380.378 391.876 380.378 391.747C380.378 391.618 380.429 391.495 380.52 391.404C380.611 391.313 380.734 391.262 380.863 391.262H383.021C383.279 391.262 383.525 391.16 383.707 390.977C383.889 390.796 383.991 390.549 383.991 390.291C383.991 390.034 383.889 389.788 383.707 389.605C383.525 389.423 383.279 389.321 383.021 389.321C382.893 389.321 382.769 389.27 382.678 389.179C382.587 389.088 382.536 388.965 382.536 388.836C382.536 388.707 382.587 388.584 382.678 388.493C382.769 388.402 382.893 388.351 383.021 388.351C383.536 388.351 384.03 388.556 384.393 388.919C384.757 389.283 384.961 389.777 384.961 390.291C384.961 390.807 384.757 391.3 384.393 391.664C384.03 392.028 383.536 392.232 383.021 392.232Z" fill="black"/>
<path d="M393.917 380.787L387.011 380.302L386.095 380.247L380.057 379.816H380.002L372.228 379.249C371.93 379.225 371.63 379.261 371.346 379.354C371.062 379.447 370.799 379.596 370.573 379.792C370.347 379.988 370.163 380.227 370.031 380.495C369.899 380.764 369.821 381.055 369.803 381.354L369.694 383.131C369.6 384.762 370.152 386.366 371.23 387.594C372.308 388.823 373.826 389.577 375.456 389.696C377.086 389.814 378.696 389.287 379.94 388.227C381.185 387.168 381.962 385.661 382.106 384.033L382.208 382.249C382.249 381.763 382.116 381.279 381.833 380.882L384.265 381.04C383.925 381.42 383.717 381.899 383.67 382.406L383.561 384.19C383.447 385.835 383.991 387.459 385.073 388.703C386.156 389.948 387.688 390.711 389.333 390.825C390.978 390.939 392.601 390.395 393.845 389.312C395.089 388.229 395.853 386.696 395.967 385.051L396.076 383.267C396.098 382.657 395.887 382.061 395.486 381.601C395.085 381.14 394.525 380.849 393.917 380.787ZM381.238 382.242L381.136 384.026C381.028 385.423 380.372 386.72 379.31 387.635C378.248 388.549 376.868 389.005 375.471 388.905C374.074 388.805 372.774 388.156 371.854 387.099C370.933 386.043 370.469 384.665 370.561 383.267L370.664 381.491C370.672 381.309 370.717 381.131 370.795 380.966C370.874 380.802 370.985 380.654 371.121 380.533C371.257 380.412 371.416 380.32 371.589 380.261C371.761 380.203 371.944 380.179 372.125 380.192L379.893 380.732H379.947C380.315 380.768 380.656 380.946 380.896 381.228C381.137 381.509 381.26 381.873 381.238 382.242ZM394.997 384.976C394.951 385.673 394.767 386.355 394.457 386.981C394.147 387.607 393.716 388.165 393.189 388.625C392.662 389.084 392.05 389.434 391.388 389.656C390.725 389.877 390.025 389.966 389.328 389.915C388.631 389.866 387.951 389.678 387.326 389.365C386.702 389.051 386.146 388.616 385.69 388.087C385.234 387.557 384.888 386.943 384.67 386.279C384.452 385.615 384.368 384.914 384.422 384.217L384.531 382.44C384.54 382.259 384.584 382.081 384.663 381.918C384.741 381.754 384.851 381.607 384.986 381.486C385.122 381.365 385.28 381.273 385.452 381.213C385.623 381.154 385.805 381.13 385.986 381.142L386.908 381.197L393.808 381.682C393.989 381.691 394.167 381.735 394.33 381.814C394.494 381.892 394.641 382.002 394.762 382.137C394.883 382.273 394.975 382.431 395.035 382.603C395.094 382.775 395.118 382.956 395.106 383.137L394.997 384.976Z" fill="#21252B"/>
<path d="M361.872 377.199C361.741 376.697 361.503 376.23 361.172 375.831C360.842 375.432 360.428 375.11 359.959 374.888C359.49 374.666 358.979 374.55 358.461 374.548C357.942 374.546 357.43 374.658 356.96 374.875C352.54 376.44 352.65 386.314 359.932 387.394C363.764 387.988 363.115 385.72 362.664 382.699L361.872 377.199Z" fill="#FC9D9D"/>
<path opacity="0.3" d="M356.591 377.385C356.905 377.173 357.259 377.031 357.631 376.966C358.003 376.901 358.384 376.916 358.75 377.009C359.095 377.134 359.412 377.327 359.68 377.577C359.949 377.827 360.165 378.129 360.314 378.464C360.714 379.305 360.899 380.233 360.854 381.163V382.031C360.85 382.091 360.835 382.15 360.809 382.204C360.782 382.259 360.746 382.307 360.701 382.347C360.656 382.387 360.603 382.417 360.546 382.437C360.489 382.457 360.429 382.465 360.369 382.462C360.309 382.458 360.25 382.443 360.196 382.417C360.142 382.39 360.094 382.353 360.053 382.308C360.014 382.263 359.983 382.211 359.963 382.154C359.943 382.097 359.935 382.037 359.939 381.977V381.109C359.962 380.332 359.815 379.56 359.508 378.847C359.414 378.617 359.275 378.407 359.099 378.231C358.923 378.056 358.714 377.916 358.483 377.822C357.973 377.741 357.451 377.855 357.022 378.143C356.972 378.172 356.917 378.191 356.86 378.198C356.803 378.206 356.746 378.202 356.69 378.186C356.634 378.171 356.583 378.145 356.538 378.11C356.493 378.073 356.455 378.03 356.427 377.979C356.379 377.877 356.369 377.76 356.399 377.651C356.429 377.542 356.497 377.447 356.591 377.385Z" fill="black"/>
<path opacity="0.2" d="M366.838 505.666L370.937 513.866L350.3 518.97C350.3 518.97 340.879 522.749 340.736 505.304L366.838 505.666Z" fill="black"/>
<path opacity="0.6" d="M347.191 456.2L318.664 459.083L319.019 462.616L347.614 459.848L347.191 456.2Z" fill="black"/>
<path opacity="0.6" d="M432.418 455.099L431.632 451.642L413.598 453.371L413.974 457.149L432.418 455.099Z" fill="black"/>
<path d="M389.286 505.195H442.481C442.693 505.199 442.895 505.286 443.045 505.436C443.195 505.586 443.281 505.788 443.287 506.001V507.368C443.281 507.579 443.195 507.782 443.045 507.932C442.895 508.082 442.693 508.168 442.481 508.174H389.286C389.073 508.17 388.868 508.084 388.717 507.934C388.566 507.784 388.478 507.581 388.473 507.368V506.001C388.472 505.894 388.493 505.788 388.533 505.689C388.573 505.591 388.633 505.501 388.709 505.426C388.785 505.351 388.875 505.292 388.974 505.252C389.073 505.212 389.179 505.192 389.286 505.195Z" fill="#21252B"/>
<path opacity="0.6" d="M389.286 505.195H442.481C442.693 505.199 442.895 505.286 443.045 505.436C443.195 505.586 443.281 505.788 443.287 506.001V507.368C443.281 507.579 443.195 507.782 443.045 507.932C442.895 508.082 442.693 508.168 442.481 508.174H389.286C389.073 508.17 388.868 508.084 388.717 507.934C388.566 507.784 388.478 507.581 388.473 507.368V506.001C388.472 505.894 388.493 505.788 388.533 505.689C388.573 505.591 388.633 505.501 388.709 505.426C388.785 505.351 388.875 505.292 388.974 505.252C389.073 505.212 389.179 505.192 389.286 505.195Z" fill="black"/>
<path d="M425.156 505.194H517.897C518.11 505.199 518.313 505.286 518.464 505.436C518.615 505.585 518.703 505.788 518.71 506.001V507.367C518.703 507.58 518.615 507.782 518.464 507.932C518.313 508.082 518.11 508.168 517.897 508.174H425.156C424.944 508.168 424.742 508.082 424.592 507.932C424.442 507.782 424.355 507.579 424.35 507.367V506.001C424.364 505.792 424.454 505.595 424.602 505.447C424.75 505.298 424.947 505.209 425.156 505.194Z" fill="#21252B"/>
<g opacity="0.6">
<path opacity="0.6" d="M516.709 505.735H422.301C422.262 505.741 422.222 505.738 422.184 505.728C422.146 505.717 422.111 505.699 422.081 505.673C422.05 505.647 422.027 505.615 422.009 505.579C421.993 505.544 421.985 505.505 421.985 505.465C421.985 505.425 421.993 505.387 422.009 505.35C422.027 505.315 422.05 505.283 422.081 505.257C422.111 505.231 422.146 505.212 422.184 505.202C422.222 505.191 422.262 505.189 422.301 505.195H516.709C516.745 505.193 516.78 505.199 516.814 505.211C516.848 505.224 516.878 505.243 516.904 505.268C516.93 505.294 516.95 505.324 516.963 505.356C516.977 505.39 516.983 505.425 516.982 505.462C516.977 505.532 516.947 505.599 516.897 505.65C516.846 505.699 516.779 505.73 516.709 505.735Z" fill="black"/>
</g>
<path d="M424.945 505.194H438.915C439.44 505.194 439.948 505.01 440.353 504.674C440.757 504.339 441.031 503.872 441.128 503.356L452.837 441.781C452.899 441.457 452.887 441.123 452.805 440.803C452.721 440.484 452.568 440.187 452.356 439.934C452.145 439.681 451.88 439.478 451.58 439.34C451.28 439.202 450.953 439.133 450.623 439.137H436.653C436.128 439.137 435.62 439.321 435.215 439.657C434.812 439.992 434.537 440.458 434.44 440.975L422.731 502.55C422.675 502.873 422.689 503.205 422.774 503.523C422.859 503.84 423.013 504.135 423.223 504.387C423.434 504.639 423.697 504.842 423.994 504.981C424.292 505.121 424.616 505.193 424.945 505.194Z" fill="#21252B"/>
<path opacity="0.6" d="M424.945 505.194H438.915C439.44 505.194 439.948 505.01 440.353 504.674C440.757 504.339 441.031 503.872 441.128 503.356L452.837 441.781C452.899 441.457 452.887 441.123 452.805 440.803C452.721 440.484 452.568 440.187 452.356 439.934C452.145 439.681 451.88 439.478 451.58 439.34C451.28 439.202 450.953 439.133 450.623 439.137H436.653C436.128 439.137 435.62 439.321 435.215 439.657C434.812 439.992 434.537 440.458 434.44 440.975L422.731 502.55C422.675 502.873 422.689 503.205 422.774 503.523C422.859 503.84 423.013 504.135 423.223 504.387C423.434 504.639 423.697 504.842 423.994 504.981C424.292 505.121 424.616 505.193 424.945 505.194Z" fill="black"/>
<path d="M426.953 505.194H516.661C517.185 505.194 517.693 505.009 518.096 504.674C518.499 504.338 518.772 503.872 518.868 503.356L530.576 441.781C530.639 441.457 530.629 441.122 530.546 440.803C530.464 440.483 530.311 440.185 530.099 439.931C529.887 439.679 529.621 439.476 529.321 439.338C529.02 439.2 528.693 439.132 528.363 439.137H438.703C438.178 439.137 437.669 439.321 437.265 439.657C436.861 439.992 436.587 440.458 436.49 440.975L424.781 502.55C424.713 502.872 424.719 503.204 424.797 503.523C424.875 503.842 425.024 504.14 425.232 504.394C425.441 504.648 425.704 504.851 426.002 504.99C426.299 505.129 426.625 505.199 426.953 505.194Z" fill="#21252B"/>
<path opacity="0.6" d="M478.187 470.441C477.648 471.678 478.242 472.757 479.479 472.757H479.697C478.996 473.568 478.136 474.226 477.17 474.69C476.204 475.154 475.153 475.415 474.082 475.456C471.438 475.402 470.202 473.249 471.39 470.605C472.579 467.96 475.653 465.903 478.29 465.958C479.964 466.013 481.098 466.881 481.371 468.227C480.693 468.286 480.043 468.521 479.484 468.909C478.926 469.298 478.478 469.826 478.187 470.441Z" fill="black"/>
</svg>
